<svg width="40" height="40" viewBox="0 0 40 40" fill="none" xmlns="http://www.w3.org/2000/svg">
<circle cx="20" cy="20" r="20" fill="#2590FF"/>
<path fill-rule="evenodd" clip-rule="evenodd" d="M21.6661 9.4445C21.6661 8.52402 20.9199 7.77783 19.9995 7.77783C19.079 7.77783 18.3328 8.52402 18.3328 9.4445V18.3334H9.4445C8.52402 18.3334 7.77783 19.0796 7.77783 20.0001C7.77783 20.9206 8.52402 21.6668 9.4445 21.6668H18.3328V30.5556C18.3328 31.4761 19.079 32.2223 19.9995 32.2223C20.9199 32.2223 21.6661 31.4761 21.6661 30.5556V21.6668H30.5556C31.4761 21.6668 32.2223 20.9206 32.2223 20.0001C32.2223 19.0796 31.4761 18.3334 30.5556 18.3334H21.6661V9.4445Z" fill="white"/>
</svg>
