<svg width="24" height="24" viewBox="0 0 24 24" fill="none" xmlns="http://www.w3.org/2000/svg">
<path d="M21.0247 2.26165C20.9418 2.17873 20.8434 2.11296 20.7351 2.06809C20.6267 2.02322 20.5106 2.00012 20.3934 2.00012C20.2761 2.00012 20.16 2.02322 20.0517 2.06809C19.9434 2.11296 19.8449 2.17873 19.762 2.26165L18.5701 3.4536L16.8089 5.21451L12.6183 9.40531C12.451 9.57275 12.3569 9.79981 12.3569 10.0366C12.3569 10.2733 12.451 10.5004 12.6183 10.6678C12.7013 10.7507 12.7997 10.8165 12.908 10.8614C13.0163 10.9062 13.1324 10.9293 13.2497 10.9293C13.367 10.9293 13.4831 10.9062 13.5914 10.8614C13.6997 10.8165 13.7981 10.7507 13.8811 10.6678L18.0719 6.47722L19.8328 4.71608L21.0247 3.52436C21.1076 3.44145 21.1734 3.34302 21.2183 3.23469C21.2632 3.12636 21.2862 3.01026 21.2862 2.893C21.2862 2.77575 21.2632 2.65964 21.2183 2.55131C21.1734 2.44298 21.1076 2.34456 21.0247 2.26165Z" fill="white"/>
<path d="M18.9632 8.77337C18.7293 8.77333 18.5048 8.86503 18.3379 9.02877C18.1709 9.19252 18.0748 9.41522 18.0703 9.64903V19.321C18.0703 19.5578 17.9763 19.7849 17.8088 19.9524C17.6414 20.1198 17.4143 20.2139 17.1775 20.2139H5.39192C5.15512 20.2139 4.92802 20.1198 4.76058 19.9524C4.59314 19.7849 4.49907 19.5578 4.49907 19.321V6.10688C4.49907 5.87009 4.59314 5.64299 4.76058 5.47555C4.92802 5.30811 5.15512 5.21404 5.39192 5.21404H13.6731C13.9099 5.21404 14.137 5.11997 14.3044 4.95253C14.4719 4.78509 14.5659 4.55799 14.5659 4.32119C14.5659 4.08439 14.4719 3.85729 14.3044 3.68985C14.137 3.52241 13.9099 3.42834 13.6731 3.42834H4.27586C3.86146 3.42834 3.46404 3.59296 3.17102 3.88598C2.878 4.17901 2.71338 4.57643 2.71338 4.99083V20.4371C2.71338 20.8515 2.878 21.2489 3.17102 21.5419C3.46404 21.8349 3.86146 21.9996 4.27586 21.9996H18.2936C18.708 21.9996 19.1054 21.8349 19.3984 21.5419C19.6914 21.2489 19.856 20.8515 19.856 20.4371V9.61332C19.8425 9.38581 19.7425 9.17207 19.5765 9.01591C19.4105 8.85974 19.1911 8.77297 18.9632 8.77337V8.77337Z" fill="white"/>
<path d="M5.56982 13.965C5.56982 14.2018 5.66389 14.4289 5.83133 14.5964C5.99877 14.7638 6.22587 14.8579 6.46267 14.8579H14.6769C14.9137 14.8579 15.1408 14.7638 15.3082 14.5964C15.4756 14.4289 15.5697 14.2018 15.5697 13.965C15.5697 13.7283 15.4756 13.5012 15.3082 13.3337C15.1408 13.1663 14.9137 13.0722 14.6769 13.0722H6.46267C6.22587 13.0722 5.99877 13.1663 5.83133 13.3337C5.66389 13.5012 5.56982 13.7283 5.56982 13.965ZM10.3912 9.14368H6.46267C6.22587 9.14368 5.99877 9.23774 5.83133 9.40519C5.66389 9.57263 5.56982 9.79973 5.56982 10.0365C5.56982 10.2733 5.66389 10.5004 5.83133 10.6679C5.99877 10.8353 6.22587 10.9294 6.46267 10.9294H10.3912C10.628 10.9294 10.8551 10.8353 11.0225 10.6679C11.19 10.5004 11.284 10.2733 11.284 10.0365C11.284 9.79973 11.19 9.57263 11.0225 9.40519C10.8551 9.23774 10.628 9.14368 10.3912 9.14368Z" fill="white"/>
</svg>
