<svg width="20" height="17" viewBox="0 0 20 17" fill="none" xmlns="http://www.w3.org/2000/svg">
<path d="M17.8571 0H2.14286C0.928571 0 0 1.00455 0 2.31818V14.6818C0 15.9955 0.928571 17 2.14286 17H17.8571C19.0714 17 20 15.9955 20 14.6818V2.31818C20 1.00455 19.0714 0 17.8571 0ZM1.42857 14.6818V2.31818C1.42857 1.85455 1.71429 1.54545 2.14286 1.54545H17.8571C18.2857 1.54545 18.5714 1.85455 18.5714 2.31818V11.1273L14.7857 7.03182C13.9286 6.10455 12.5714 6.10455 11.7857 7.03182L4 15.4545H2.14286C1.71429 15.4545 1.42857 15.1455 1.42857 14.6818ZM17.8571 15.4545H6L12.7857 8.11364C13.0714 7.80455 13.5 7.80455 13.7857 8.11364L18.5714 13.2909V14.6818C18.5714 15.1455 18.2857 15.4545 17.8571 15.4545V15.4545Z" fill="white"/>
</svg>
