<svg width="20" height="20" viewBox="0 0 20 20" fill="none" xmlns="http://www.w3.org/2000/svg">
<path d="M6.63979 0H2.62652C1.93016 0.000768643 1.26254 0.277737 0.770138 0.770138C0.277737 1.26254 0.000768643 1.93016 0 2.62652V6.63979C0.000946077 7.33601 0.278 8.00343 0.770388 8.49565C1.26278 8.98787 1.93029 9.2647 2.62652 9.26541H9.26541V2.62652C9.26464 1.93031 8.9878 1.26283 8.49559 0.770453C8.00338 0.278078 7.33599 0.00100506 6.63979 0ZM8.05401 8.05401H2.62585C2.2509 8.0536 1.89142 7.90447 1.62629 7.63934C1.36117 7.37421 1.21203 7.01474 1.21162 6.63979V2.62652C1.21203 2.25157 1.36117 1.89209 1.62629 1.62697C1.89142 1.36184 2.2509 1.2127 2.62585 1.21229H6.63979C7.01474 1.2127 7.37421 1.36184 7.63934 1.62697C7.90447 1.89209 8.0536 2.25157 8.05401 2.62652V8.05401ZM0 13.3604V17.3742C0.000886862 18.0704 0.277908 18.7379 0.770296 19.2302C1.26268 19.7225 1.93024 19.9995 2.62652 20.0002H6.63979C7.33591 19.9992 8.00324 19.7222 8.49543 19.2299C8.98763 18.7376 9.26452 18.0703 9.26541 17.3742V10.7341H2.62652C1.93018 10.7349 1.26256 11.0118 0.770152 11.5041C0.277744 11.9965 0.000768748 12.6641 0 13.3604ZM8.05401 17.3742C8.0536 17.7491 7.90447 18.1086 7.63934 18.3737C7.37421 18.6388 7.01474 18.788 6.63979 18.7884H2.62652C2.25157 18.788 1.89209 18.6388 1.62697 18.3737C1.36184 18.1086 1.2127 17.7491 1.21229 17.3742V13.3604C1.21265 12.9854 1.36175 12.6259 1.62689 12.3607C1.89202 12.0956 2.25153 11.9464 2.62652 11.946H8.05468L8.05401 17.3742ZM17.3742 0H13.3604C12.6641 0.000768643 11.9965 0.277737 11.5041 0.770138C11.0117 1.26254 10.7347 1.93016 10.7339 2.62652V9.26541H17.3742C18.0703 9.26452 18.7376 8.98762 19.2298 8.49542C19.7221 8.00322 19.9991 7.33589 20 6.63979V2.62652C19.9993 1.93026 19.7224 1.2627 19.2302 0.770309C18.7379 0.277915 18.0704 0.000886974 17.3742 0ZM18.7884 6.63979C18.7879 7.01472 18.6388 7.37416 18.3736 7.63927C18.1085 7.90439 17.7491 8.05354 17.3742 8.05401H11.946V2.62585C11.9464 2.2509 12.0955 1.89142 12.3607 1.62629C12.6258 1.36117 12.9853 1.21203 13.3602 1.21162H17.3742C17.7491 1.21209 18.1085 1.36124 18.3736 1.62636C18.6388 1.89148 18.7879 2.25092 18.7884 2.62585V6.63979ZM17.3742 10.7341H10.7339V17.3742C10.7348 18.0704 11.0118 18.7379 11.5042 19.2302C11.9966 19.7225 12.6642 19.9995 13.3604 20.0002H17.3742C18.0703 19.9993 18.7378 19.7224 19.23 19.2301C19.7223 18.7378 19.9992 18.0703 20 17.3742V13.3604C19.9992 12.6642 19.7223 11.9967 19.2301 11.5044C18.7378 11.012 18.0704 10.735 17.3742 10.7341ZM18.7879 17.3742C18.7873 17.7489 18.6382 18.1082 18.3732 18.3732C18.1082 18.6382 17.7489 18.7873 17.3742 18.7879H13.3604C12.9855 18.7876 12.6261 18.6385 12.3609 18.3735C12.0957 18.1085 11.9465 17.7491 11.946 17.3742V11.946H17.3742C17.7491 11.9465 18.1085 12.0956 18.3736 12.3607C18.6388 12.6258 18.7879 12.9853 18.7884 13.3602L18.7879 17.3742Z" fill="white"/>
</svg>
