<svg width="16" height="16" viewBox="0 0 16 16" fill="none" xmlns="http://www.w3.org/2000/svg">
<g id="icon/&#233;&#153;&#132;&#228;&#187;&#182;">
<path id="Vector" d="M13.4797 3.41874C12.3516 2.29061 10.5203 2.29061 9.39218 3.41874L8.89531 3.91561L4.80624 8.00311L4.36406 8.4453C3.63124 9.17811 3.63124 10.364 4.36406 11.0969C5.09687 11.8297 6.28281 11.8297 7.01562 11.0969L11.4344 6.67811C11.4953 6.61718 11.4953 6.51874 11.4344 6.4578L10.8812 5.90468C10.8203 5.84374 10.7219 5.84374 10.6609 5.90468L6.24218 10.3234C5.93749 10.6281 5.44218 10.6281 5.13749 10.3234C4.83281 10.0187 4.83281 9.52343 5.13749 9.21874L5.57968 8.77655L9.66718 4.68905L10.1641 4.19218C10.8656 3.49061 12.0031 3.49061 12.7047 4.19218C13.4062 4.89374 13.4062 6.03124 12.7047 6.7328L12.5391 6.89843L8.12187 11.3172L7.56874 11.8703C6.47031 12.9687 4.68906 12.9687 3.59062 11.8703C2.49218 10.7719 2.49218 8.99061 3.59062 7.89218L8.45312 3.03124C8.51406 2.9703 8.51406 2.87186 8.45312 2.81093L7.89999 2.2578C7.83906 2.19686 7.74062 2.19686 7.67968 2.2578L2.81718 7.11874C1.29218 8.64374 1.29218 11.1172 2.81718 12.6437C4.34218 14.1687 6.81562 14.1687 8.34218 12.6437L8.89531 12.0906L13.3141 7.67186L13.4797 7.50624C14.6078 6.37655 14.6078 4.54686 13.4797 3.41874Z" fill="#2590FF"/>
</g>
</svg>
