<svg width="24" height="24" viewBox="0 0 24 24" fill="none" xmlns="http://www.w3.org/2000/svg">
<g id="icon/&#231;&#137;&#185;&#229;&#174;&#154;">
<path id="Vector" d="M12.4 3.80001L14.36 7.77001C14.4316 7.91621 14.5378 8.04273 14.6693 8.13858C14.8009 8.23443 14.9539 8.29671 15.115 8.32001L19.5 8.95501C19.6856 8.98111 19.8601 9.05884 20.0037 9.17935C20.1473 9.29986 20.2541 9.45828 20.3119 9.63656C20.3698 9.81484 20.3764 10.0058 20.3309 10.1876C20.2855 10.3695 20.1899 10.5349 20.055 10.665L16.885 13.76C16.7685 13.8729 16.6812 14.0125 16.6307 14.1667C16.5802 14.3209 16.5679 14.485 16.595 14.645L17.34 19C17.3723 19.1845 17.3521 19.3744 17.2817 19.548C17.2113 19.7216 17.0936 19.8719 16.942 19.9819C16.7903 20.0919 16.6108 20.157 16.424 20.1699C16.2371 20.1829 16.0503 20.143 15.885 20.055L11.965 18C11.8216 17.9247 11.662 17.8853 11.5 17.8853C11.338 17.8853 11.1784 17.9247 11.035 18L7.115 20.06C6.94925 20.1485 6.76192 20.1885 6.57449 20.1754C6.38705 20.1623 6.20709 20.0967 6.05523 19.9861C5.90337 19.8755 5.78574 19.7243 5.71584 19.5499C5.64594 19.3755 5.62659 19.1849 5.66 19L6.41 14.635C6.43708 14.475 6.42484 14.3109 6.37431 14.1567C6.32379 14.0025 6.23651 13.8629 6.12 13.75L2.95 10.665C2.8152 10.5352 2.71952 10.3702 2.67384 10.1887C2.62817 10.0073 2.63433 9.8166 2.69163 9.63846C2.74892 9.46031 2.85506 9.30182 2.99796 9.181C3.14087 9.06018 3.31481 8.98188 3.5 8.95501L7.88 8.32001C8.04111 8.29671 8.19409 8.23443 8.32566 8.13858C8.45724 8.04273 8.56342 7.91621 8.635 7.77001L10.6 3.80001C10.6819 3.63094 10.8097 3.48835 10.9689 3.38858C11.1281 3.28882 11.3121 3.2359 11.5 3.2359C11.6879 3.2359 11.8719 3.28882 12.0311 3.38858C12.1903 3.48835 12.3181 3.63094 12.4 3.80001V3.80001Z" fill="#FFDC22"/>
</g>
</svg>
