<svg width="80" height="80" viewBox="0 0 80 80" fill="none" xmlns="http://www.w3.org/2000/svg">
<g id="Frame 99" clip-path="url(#clip0_295_2283)">
<g id="Frame 97">
<path id="Ellipse 12 (Stroke)" fill-rule="evenodd" clip-rule="evenodd" d="M48.9455 6.61523C30.5075 1.6748 11.5556 12.6167 6.61521 31.0546C3.2128 43.7526 7.3429 56.695 16.2686 65.1368C20.302 68.9514 25.3145 71.8468 31.0546 73.3849C36.7947 74.9229 42.5833 74.9217 47.9836 73.6348C59.9345 70.7868 69.9824 61.6434 73.3848 48.9455C78.3253 30.5076 67.3834 11.5557 48.9455 6.61523ZM5.77003 30.8281C10.8355 11.9234 30.2672 0.704544 49.1719 5.77004C68.0766 10.8355 79.2955 30.2672 74.23 49.1719C70.7412 62.1925 60.4373 71.5665 48.1865 74.4859C42.6483 75.8057 36.7121 75.8066 30.8281 74.23C24.9442 72.6534 19.8037 69.6845 15.6674 65.7725C6.51756 57.1187 2.28116 43.8488 5.77003 30.8281Z" fill="#29D88E"/>
<path id="Ellipse 13 (Stroke)" fill-rule="evenodd" clip-rule="evenodd" d="M45.322 20.1382C34.3526 17.1989 23.0774 23.7087 20.1382 34.6781C18.5487 40.6102 19.7221 46.6312 22.8709 51.3763C25.5444 55.4051 29.6406 58.5121 34.6781 59.8619C39.7155 61.2117 44.8165 60.5691 49.1462 58.4167C54.2456 55.8818 58.2724 51.2541 59.8619 45.322C62.8011 34.3526 56.2914 23.0774 45.322 20.1382ZM19.293 34.4516C22.3573 23.0154 34.1123 16.2287 45.5485 19.293C56.9846 22.3573 63.7714 34.1123 60.7071 45.5485C59.0499 51.7332 54.8503 56.5583 49.5356 59.2003C45.0224 61.4438 39.7029 62.1141 34.4516 60.7071C29.2003 59.3 24.9286 56.0597 22.1418 51.8601C18.8601 46.9148 17.6358 40.6363 19.293 34.4516Z" fill="#29D88E"/>
<g id="Frame 94">
<rect x="5.88303" y="20.5057" width="76" height="20" rx="3.5" transform="rotate(15 5.88303 20.5057)" fill="#E9F4FF"/>
<g id="Minted">
<path d="M28.3139 33.8758C28.3622 33.8308 28.4168 33.8164 28.4776 33.8327L29.4107 34.0827C29.4445 34.0918 29.468 34.1126 29.481 34.145C29.5026 34.1726 29.5089 34.2032 29.4998 34.2371L27.6627 41.0932C27.6537 41.127 27.632 41.1538 27.5977 41.1736C27.572 41.1885 27.5422 41.1913 27.5084 41.1823L26.5753 40.9323C26.5415 40.9232 26.5138 40.9049 26.4922 40.8774C26.4792 40.8449 26.4772 40.8118 26.4862 40.778L27.7825 35.9401C27.788 35.9198 27.7814 35.9036 27.763 35.8914C27.7513 35.881 27.7393 35.8851 27.7271 35.9035L25.9375 37.5111C25.8892 37.5562 25.8347 37.5705 25.7738 37.5542L25.3073 37.4292C25.2464 37.4129 25.2063 37.3732 25.187 37.31L24.4282 35.0304C24.4268 35.0083 24.4151 34.998 24.393 34.9993C24.3777 35.0024 24.3673 35.0141 24.3619 35.0344L23.0683 39.8621C23.0592 39.8959 23.0376 39.9227 23.0033 39.9425C22.9775 39.9574 22.9478 39.9603 22.914 39.9512L21.9809 39.7012C21.9471 39.6921 21.9194 39.6738 21.8978 39.6463C21.8847 39.6138 21.8827 39.5807 21.8918 39.5469L23.7289 32.6907C23.738 32.6569 23.7553 32.6326 23.7811 32.6178C23.8154 32.598 23.8494 32.5926 23.8832 32.6016L24.8163 32.8517C24.8771 32.868 24.9172 32.9077 24.9365 32.9708L25.9185 35.9189C25.9284 35.9361 25.9401 35.9465 25.9536 35.9501C25.9671 35.9537 25.9791 35.9497 25.9895 35.938L28.3139 33.8758Z" fill="#29D88E"/>
<path d="M29.231 41.6439C29.1972 41.6348 29.1695 41.6165 29.1479 41.589C29.1348 41.5565 29.1328 41.5233 29.1419 41.4895L30.979 34.6334C30.9881 34.5996 31.0054 34.5753 31.0312 34.5604C31.0655 34.5406 31.0995 34.5352 31.1333 34.5443L32.0664 34.7943C32.1002 34.8034 32.1236 34.8241 32.1367 34.8566C32.1583 34.8842 32.1646 34.9148 32.1555 34.9486L30.3184 41.8048C30.3093 41.8386 30.2877 41.8654 30.2534 41.8852C30.2276 41.9 30.1979 41.9029 30.1641 41.8939L29.231 41.6439Z" fill="#29D88E"/>
<path d="M37.7613 36.4507C37.7703 36.4169 37.7877 36.3926 37.8135 36.3777C37.8478 36.3579 37.8818 36.3526 37.9156 36.3616L38.8487 36.6116C38.8825 36.6207 38.9059 36.6415 38.919 36.6739C38.9406 36.7015 38.9468 36.7321 38.9378 36.7659L37.1007 43.6221C37.0916 43.6559 37.07 43.6827 37.0357 43.7025C37.0099 43.7173 36.9802 43.7202 36.9464 43.7112L36.0437 43.4693C35.9761 43.4512 35.936 43.4115 35.9235 43.3501L34.2852 37.7803C34.2771 37.7564 34.2654 37.746 34.2501 37.7492C34.2366 37.7456 34.2262 37.7573 34.2189 37.7843L32.9728 42.516C32.9637 42.5498 32.9421 42.5766 32.9078 42.5964C32.8821 42.6113 32.8523 42.6142 32.8185 42.6051L31.8854 42.3551C31.8516 42.346 31.8239 42.3278 31.8023 42.3002C31.7892 42.2677 31.7873 42.2346 31.7963 42.2008L33.6334 35.3446C33.6425 35.3108 33.6599 35.2865 33.6856 35.2717C33.7199 35.2519 33.7539 35.2465 33.7877 35.2555L34.6904 35.4974C34.758 35.5155 34.7981 35.5553 34.8106 35.6166L36.4387 41.1837C36.4468 41.2076 36.4576 41.2214 36.4712 41.225C36.4865 41.2218 36.4978 41.2067 36.505 41.1797L37.7613 36.4507Z" fill="#29D88E"/>
<path d="M45.116 38.291C45.1498 38.3 45.1733 38.3208 45.1863 38.3533C45.2079 38.3808 45.2142 38.4115 45.2051 38.4453L44.9959 39.2262C44.9868 39.26 44.9651 39.2868 44.9308 39.3066C44.9051 39.3215 44.8754 39.3244 44.8416 39.3153L42.9754 38.8153C42.9416 38.8062 42.9201 38.8186 42.9111 38.8524L41.3294 44.7552C41.3204 44.789 41.2987 44.8158 41.2644 44.8356C41.2387 44.8504 41.2089 44.8533 41.1751 44.8443L40.242 44.5943C40.2082 44.5852 40.1805 44.5669 40.1589 44.5394C40.1459 44.5069 40.1439 44.4737 40.1529 44.4399L41.7346 38.5372C41.7436 38.5034 41.7313 38.4819 41.6975 38.4729L39.9023 37.9919C39.8685 37.9828 39.8408 37.9645 39.8192 37.937C39.8061 37.9045 39.8041 37.8713 39.8132 37.8375L40.0225 37.0566C40.0315 37.0228 40.0489 36.9984 40.0746 36.9836C40.1089 36.9638 40.143 36.9584 40.1768 36.9675L45.116 38.291Z" fill="#29D88E"/>
<path d="M50.8922 40.7953C50.8832 40.8291 50.8615 40.8559 50.8272 40.8757C50.8015 40.8905 50.7717 40.8934 50.7379 40.8844L47.2794 39.9577C47.2456 39.9486 47.2242 39.961 47.2151 39.9948L46.7069 41.8914C46.6979 41.9252 46.7103 41.9466 46.7441 41.9557L49.0666 42.578C49.1004 42.5871 49.1239 42.6079 49.1369 42.6403C49.1585 42.6679 49.1648 42.6985 49.1557 42.7323L48.9492 43.5032C48.9401 43.537 48.9185 43.5638 48.8842 43.5836C48.8584 43.5984 48.8287 43.6013 48.7949 43.5923L46.4723 42.9699C46.4385 42.9609 46.4171 42.9732 46.408 43.007L45.8835 44.9645C45.8745 44.9983 45.8868 45.0197 45.9206 45.0288L49.3791 45.9555C49.4129 45.9646 49.4364 45.9853 49.4494 46.0178C49.471 46.0453 49.4773 46.076 49.4682 46.1098L49.2617 46.8806C49.2526 46.9144 49.231 46.9412 49.1967 46.961C49.1709 46.9759 49.1412 46.9788 49.1074 46.9697L44.5434 45.7468C44.5096 45.7377 44.4819 45.7194 44.4602 45.6919C44.4472 45.6594 44.4452 45.6263 44.4543 45.5925L46.2914 38.7363C46.3004 38.7025 46.3178 38.6782 46.3435 38.6634C46.3778 38.6436 46.4119 38.6382 46.4457 38.6472L51.0097 39.8702C51.0435 39.8792 51.0669 39.9 51.08 39.9325C51.1016 39.96 51.1078 39.9907 51.0988 40.0245L50.8922 40.7953Z" fill="#29D88E"/>
<path d="M50.5455 47.3551C50.5117 47.346 50.484 47.3277 50.4624 47.3002C50.4493 47.2677 50.4474 47.2346 50.4564 47.2007L52.2935 40.3446C52.3026 40.3108 52.32 40.2865 52.3457 40.2716C52.38 40.2518 52.414 40.2464 52.4478 40.2555L54.9225 40.9186C55.4026 41.0472 55.8025 41.245 56.1224 41.5119C56.4422 41.7787 56.6576 42.0973 56.7685 42.4677C56.888 42.833 56.8916 43.2253 56.7793 43.6445L55.9912 46.5858C55.8788 47.005 55.6787 47.3463 55.3907 47.6098C55.1113 47.8683 54.7663 48.0331 54.3559 48.1043C53.9455 48.1755 53.5003 48.1468 53.0202 48.0182L50.5455 47.3551ZM51.8856 46.5728C51.8766 46.6066 51.889 46.628 51.9228 46.6371L53.3427 47.0175C53.701 47.1135 54.0149 47.0781 54.2843 46.9111C54.5623 46.7392 54.7554 46.4648 54.8636 46.088L55.5511 43.522C55.6544 43.1366 55.6278 42.8033 55.4712 42.5222C55.3164 42.2344 55.0565 42.0415 54.6913 41.9437L53.2816 41.5659C53.2478 41.5569 53.2263 41.5693 53.2173 41.6031L51.8856 46.5728Z" fill="#29D88E"/>
</g>
<rect x="5.88303" y="20.5057" width="76" height="20" rx="3.5" transform="rotate(15 5.88303 20.5057)" stroke="#29D88E"/>
</g>
<g id="Linked Path Group">
<path id="[Copy] Capsid Powered" d="M35.6333 15.9655C35.22 16.0405 34.8381 16.0267 34.4875 15.9242C34.1417 15.815 33.8527 15.6273 33.6207 15.3611C33.3934 15.0881 33.2443 14.7564 33.1736 14.3661L32.7693 12.1362C32.6986 11.7459 32.7228 11.3888 32.8419 11.0649C32.9657 10.7341 33.1709 10.4598 33.4575 10.2419C33.7487 10.0171 34.101 9.86732 34.5142 9.7924C34.9275 9.71749 35.3066 9.73177 35.6514 9.83526C35.9952 9.93301 36.2792 10.1098 36.5034 10.3655C36.7333 10.6203 36.8826 10.9371 36.9513 11.3159L36.9529 11.3245C36.9581 11.3532 36.9536 11.3777 36.9395 11.3981C36.9254 11.4184 36.9069 11.4306 36.8839 11.4348L36.2359 11.5879C36.1785 11.5983 36.1451 11.5776 36.1357 11.526L36.131 11.5002C36.0644 11.1328 35.8961 10.858 35.6259 10.6758C35.3557 10.4936 35.0284 10.4373 34.6438 10.507C34.2592 10.5767 33.9696 10.7448 33.7748 11.0113C33.5858 11.2768 33.5246 11.5932 33.5912 11.9606L34.0063 14.2507C34.0729 14.6181 34.2413 14.8929 34.5115 15.0751C34.7874 15.2563 35.1176 15.312 35.5022 15.2423C35.8867 15.1726 36.1735 15.005 36.3625 14.7396C36.5516 14.4741 36.6128 14.1577 36.5462 13.7903L36.5431 13.7731C36.5337 13.7215 36.5577 13.6904 36.6151 13.68L37.2757 13.5958C37.3331 13.5854 37.367 13.6089 37.3774 13.6663C37.4461 14.0452 37.418 14.3971 37.2931 14.722C37.1729 15.0402 36.9696 15.3083 36.683 15.5263C36.3965 15.7442 36.0465 15.8906 35.6333 15.9655Z" fill="#29D88E"/>
<path id="[Copy] Capsid Powered_2" d="M42.6886 15.5867C42.6362 15.5844 42.6022 15.5596 42.5867 15.5122L42.3158 14.476C42.3107 14.4582 42.2995 14.449 42.282 14.4482L39.8255 14.343C39.808 14.3423 39.796 14.3505 39.7894 14.3678L39.4309 15.3771C39.4114 15.423 39.3754 15.4448 39.323 15.4426L38.6149 15.4122C38.5508 15.4095 38.5288 15.3764 38.5491 15.3131L40.7185 9.44176C40.7379 9.39589 40.7739 9.37407 40.8264 9.37632L41.7005 9.41375C41.753 9.41599 41.787 9.4408 41.8025 9.48818L43.4795 15.5242L43.4868 15.5595C43.485 15.6003 43.4579 15.6196 43.4055 15.6174L42.6886 15.5867ZM40.0394 13.6428C40.033 13.6542 40.0325 13.6659 40.0379 13.6778C40.0493 13.6841 40.0608 13.6875 40.0725 13.688L42.0831 13.7741C42.0948 13.7746 42.1036 13.7721 42.1097 13.7665C42.1219 13.7553 42.1253 13.7438 42.12 13.7319L41.2448 10.4452C41.2394 10.4333 41.2309 10.4271 41.2193 10.4266C41.2076 10.4261 41.1986 10.4315 41.1923 10.4429L40.0394 13.6428Z" fill="#29D88E"/>
<path id="[Copy] Capsid Powered_3" d="M47.7626 10.3629C48.108 10.4483 48.3928 10.5969 48.6168 10.8085C48.8479 11.0159 49.0021 11.2674 49.0792 11.5629C49.162 11.8598 49.1614 12.1781 49.0773 12.5179C48.9933 12.8576 48.8461 13.1367 48.6359 13.3551C48.4256 13.5735 48.1671 13.7199 47.8602 13.7942C47.5591 13.8699 47.2329 13.8644 46.8819 13.7775L45.3869 13.4077C45.3643 13.4021 45.3501 13.4106 45.3445 13.4333L44.7478 15.8456C44.7338 15.9022 44.6985 15.9235 44.6419 15.9095L43.9963 15.7498C43.9397 15.7358 43.9184 15.7005 43.9324 15.6439L45.3633 9.85948C45.3773 9.80285 45.4126 9.78154 45.4692 9.79555L47.7626 10.3629ZM46.9693 13.0961C47.2807 13.1731 47.553 13.1413 47.7861 13.0007C48.0249 12.8614 48.1821 12.6389 48.2577 12.3331C48.3347 12.0217 48.3001 11.7487 48.1538 11.5142C48.0146 11.2755 47.7892 11.1176 47.4778 11.0405L46.0593 10.6897C46.0366 10.684 46.0225 10.6926 46.0169 10.7152L45.5252 12.7028C45.5196 12.7255 45.5282 12.7396 45.5508 12.7452L46.9693 13.0961Z" fill="#29D88E"/>
<path id="[Copy] Capsid Powered_4" d="M50.341 17.8614C49.9337 17.6721 49.6088 17.444 49.3662 17.1769C49.129 16.9123 48.9824 16.6255 48.9266 16.3165C48.876 16.01 48.9233 15.7007 49.0683 15.3886L49.1752 15.1585C49.1998 15.1056 49.2385 15.0914 49.2914 15.116L49.8707 15.3851C49.9236 15.4097 49.9378 15.4485 49.9132 15.5014L49.8247 15.6918C49.6993 15.9616 49.7125 16.2379 49.8641 16.5206C50.0158 16.8033 50.2953 17.0393 50.7026 17.2286C51.0676 17.3982 51.3784 17.4493 51.6348 17.3819C51.8913 17.3146 52.0772 17.1566 52.1928 16.9079C52.269 16.7439 52.2865 16.5816 52.2454 16.421C52.2042 16.2604 52.1132 16.0894 51.9723 15.9082C51.8391 15.7241 51.6299 15.4821 51.3447 15.1824C51.0273 14.8548 50.7832 14.5773 50.6122 14.35C50.4466 14.125 50.3352 13.8803 50.278 13.6157C50.2233 13.3459 50.266 13.0602 50.4061 12.7587C50.6175 12.3037 50.9447 12.0216 51.3879 11.9123C51.8363 11.8055 52.3383 11.8811 52.8937 12.1392C53.2852 12.3211 53.5983 12.547 53.8331 12.8169C54.0679 13.0869 54.2094 13.3777 54.2575 13.6895C54.3109 14.0038 54.265 14.317 54.12 14.6291L54.0463 14.7878C54.0217 14.8407 53.9829 14.8548 53.93 14.8303L53.3349 14.5537C53.282 14.5291 53.2678 14.4904 53.2924 14.4375L53.3477 14.3185C53.4755 14.0434 53.4701 13.7643 53.3315 13.4812C53.2007 13.1952 52.9421 12.9626 52.556 12.7831C52.228 12.6307 51.9421 12.5815 51.6983 12.6355C51.457 12.6841 51.2774 12.8355 51.1594 13.0894C51.0782 13.264 51.0568 13.4277 51.0952 13.5806C51.1335 13.7334 51.219 13.8954 51.3518 14.0665C51.4923 14.2347 51.7132 14.4724 52.0143 14.7795C52.3211 15.1022 52.5613 15.381 52.7351 15.6162C52.9113 15.846 53.0282 16.0997 53.0858 16.3773C53.1458 16.6496 53.1057 16.9365 52.9656 17.2381C52.7493 17.7036 52.4053 17.994 51.9336 18.1093C51.4697 18.2218 50.9388 18.1392 50.341 17.8614Z" fill="#29D88E"/>
<path id="[Copy] Capsid Powered_5" d="M53.0314 19.2409C52.9825 19.2091 52.9739 19.1688 53.0056 19.1198L56.2445 14.1286C56.2763 14.0797 56.3166 14.0711 56.3655 14.1029L56.9234 14.4649C56.9723 14.4966 56.9809 14.537 56.9492 14.5859L53.7103 19.5771C53.6785 19.626 53.6382 19.6346 53.5892 19.6029L53.0314 19.2409Z" fill="#29D88E"/>
<path id="[Copy] Capsid Powered_6" d="M54.927 20.4653C54.8836 20.4263 54.8815 20.3851 54.9205 20.3417L58.8999 15.9183C58.9389 15.875 58.9801 15.8728 59.0235 15.9118L60.5977 17.328C61.0487 17.7338 61.3014 18.1768 61.3557 18.6572C61.4139 19.1333 61.2654 19.5687 60.9104 19.9633L59.1548 21.9148C58.7998 22.3094 58.3805 22.5051 57.8971 22.5017C57.4175 22.494 56.9522 22.2873 56.5012 21.8815L54.927 20.4653ZM55.9956 20.4026C55.98 20.42 55.9808 20.4365 55.9982 20.4521L57.013 21.365C57.2645 21.5913 57.5322 21.6949 57.8162 21.6757C58.1085 21.6562 58.3738 21.5182 58.6122 21.2619L60.204 19.4926C60.4381 19.2324 60.5475 18.9581 60.5323 18.6698C60.5253 18.381 60.3939 18.1215 60.138 17.8913L59.1232 16.9784C59.1059 16.9628 59.0894 16.9637 59.0738 16.981L55.9956 20.4026Z" fill="#29D88E"/>
<g id="Linked Path Group_2">
<path id="[Copy] Capsid Powered_7" d="M53.2952 67.6044C52.9775 67.7646 52.6647 67.8375 52.3568 67.8229C52.0464 67.8162 51.7656 67.7259 51.5145 67.552C51.2583 67.3808 51.0513 67.1389 50.8937 66.8264C50.736 66.5139 50.6658 66.2064 50.683 65.9037C50.7001 65.601 50.8009 65.3215 50.9852 65.0652C51.1643 64.8115 51.4153 64.6032 51.7382 64.4403L53.1131 63.7467C53.134 63.7362 53.1391 63.7205 53.1286 63.6996L52.0093 61.481C51.9831 61.4289 51.996 61.3897 52.048 61.3635L52.6418 61.0639C52.6938 61.0377 52.733 61.0506 52.7593 61.1026L55.4432 66.4227C55.4695 66.4748 55.4566 66.514 55.4045 66.5403L53.2952 67.6044ZM52.1159 65.0142C51.8294 65.1587 51.6436 65.3602 51.5585 65.6188C51.4681 65.88 51.4939 66.1512 51.6357 66.4325C51.7802 66.7189 51.9844 66.9034 52.2482 66.9859C52.5094 67.0763 52.7832 67.0492 53.0696 66.9047L54.3743 66.2466C54.3951 66.236 54.4003 66.2204 54.3898 66.1995L53.4675 64.3715C53.457 64.3507 53.4414 64.3455 53.4205 64.356L52.1159 65.0142Z" fill="#29D88E"/>
<path id="[Copy] Capsid Powered_8" d="M46.2914 63.6019C46.7028 63.4917 47.0888 63.479 47.4496 63.5636C47.8105 63.6481 48.1189 63.8192 48.3751 64.0767C48.6327 64.3399 48.8151 64.6715 48.9222 65.0716L49.4607 67.0833C49.5677 67.4833 49.5747 67.8589 49.4814 68.21C49.3882 68.561 49.2064 68.8633 48.9361 69.1168C48.6658 69.3703 48.325 69.5521 47.9137 69.6622C47.4967 69.7739 47.1078 69.7874 46.747 69.7028C46.3862 69.6182 46.0777 69.4472 45.8216 69.1896C45.5654 68.9321 45.3838 68.6033 45.2767 68.2032L44.7382 66.1916C44.6311 65.7915 44.6234 65.4131 44.7152 65.0564C44.8084 64.7054 44.9902 64.4031 45.2605 64.1496C45.5308 63.896 45.8744 63.7135 46.2914 63.6019ZM46.4792 64.3034C46.096 64.406 45.8178 64.6073 45.6445 64.9073C45.4711 65.2073 45.4365 65.5517 45.5406 65.9405L46.0904 67.9945C46.196 68.3889 46.3988 68.6728 46.6988 68.8461C47.0003 69.0251 47.3427 69.0633 47.7259 68.9607C48.109 68.8581 48.3865 68.654 48.5583 68.3484C48.726 68.0498 48.7571 67.7034 48.6515 67.3089L48.1017 65.255C47.9976 64.8662 47.7984 64.5844 47.504 64.4095C47.204 64.2362 46.8624 64.2008 46.4792 64.3034Z" fill="#29D88E"/>
<path id="[Copy] Capsid Powered_9" d="M42.124 64.4851C42.1765 64.4845 42.2088 64.5075 42.221 64.554L43.932 70.4941L43.941 70.5203C43.9415 70.5669 43.9126 70.5906 43.8543 70.5912L43.1456 70.5991C43.0931 70.5997 43.0607 70.5738 43.0485 70.5214L41.854 66.1769C41.848 66.1653 41.8421 66.1595 41.8363 66.1596C41.8246 66.1597 41.8159 66.1657 41.8102 66.1774L40.7736 70.5467C40.7625 70.5993 40.7308 70.6259 40.6783 70.6265L39.987 70.6341C39.9345 70.6347 39.9022 70.6088 39.8899 70.5565L38.6953 66.2032C38.6894 66.1916 38.6835 66.1858 38.6776 66.1859C38.6718 66.186 38.666 66.1918 38.6603 66.2036L37.5538 70.5824C37.5427 70.635 37.5109 70.6616 37.4585 70.6622L36.7935 70.6696C36.7643 70.6699 36.7438 70.6614 36.732 70.644C36.7143 70.6267 36.7082 70.6034 36.7137 70.5742L38.2313 64.607C38.2424 64.5544 38.2742 64.5278 38.3267 64.5272L39.0004 64.5197C39.0529 64.5191 39.0853 64.545 39.0975 64.5974L40.2938 69.0994C40.2998 69.1168 40.3057 69.1255 40.3116 69.1254C40.3174 69.1254 40.3232 69.1166 40.3288 69.099L41.3899 64.572C41.3951 64.5194 41.4269 64.4928 41.4853 64.4921L42.124 64.4851Z" fill="#29D88E"/>
<path id="[Copy] Capsid Powered_10" d="M31.2207 68.7536C31.2337 68.6967 31.2686 68.6748 31.3254 68.6878L34.3537 69.3795C34.3764 69.3847 34.3904 69.376 34.3956 69.3532L34.8146 67.5192C34.8198 67.4965 34.811 67.4825 34.7882 67.4773L32.7068 67.0018C32.65 66.9888 32.628 66.9539 32.641 66.897L32.7638 66.3596C32.7768 66.3028 32.8117 66.2808 32.8686 66.2938L34.95 66.7693C34.9727 66.7745 34.9867 66.7657 34.9919 66.7429L35.4206 64.8663C35.4258 64.8435 35.417 64.8296 35.3943 64.8244L32.366 64.1326C32.3091 64.1196 32.2872 64.0847 32.3002 64.0278L32.423 63.4904C32.4359 63.4336 32.4709 63.4116 32.5277 63.4246L36.3237 64.2917C36.3806 64.3047 36.4025 64.3397 36.3895 64.3965L35.0645 70.1971C35.0515 70.254 35.0165 70.2759 34.9597 70.2629L31.1637 69.3958C31.1068 69.3828 31.0849 69.3479 31.0979 69.291L31.2207 68.7536Z" fill="#29D88E"/>
<path id="[Copy] Capsid Powered_11" d="M28.4112 61.6501C28.4537 61.6694 28.4744 61.7013 28.4735 61.7457L28.5073 64.6343C28.5054 64.6527 28.5124 64.6655 28.5284 64.6727L29.6756 65.1936C29.6969 65.2032 29.7123 65.1974 29.722 65.1762L30.7891 62.8258C30.8132 62.7727 30.8518 62.7582 30.9049 62.7823L31.5104 63.0573C31.5636 63.0814 31.5781 63.12 31.5539 63.1731L29.0942 68.5909C29.0701 68.644 29.0315 68.6585 28.9783 68.6344L26.8351 67.6613C26.5164 67.5166 26.2677 67.3236 26.089 67.0823C25.905 66.8386 25.8008 66.5671 25.7765 66.2678C25.7523 65.9685 25.8113 65.6621 25.9536 65.3487C26.1224 64.9769 26.3641 64.7055 26.6788 64.5345C26.9858 64.3663 27.3324 64.3155 27.7186 64.3819C27.7447 64.381 27.756 64.3701 27.7526 64.3493L27.6826 61.4347C27.6821 61.4216 27.6855 61.4071 27.6927 61.3912C27.7096 61.354 27.7393 61.3451 27.7817 61.3644L28.4112 61.6501ZM28.5615 67.6475C28.5828 67.6572 28.5982 67.6514 28.6079 67.6301L29.4181 65.8454C29.4278 65.8242 29.422 65.8088 29.4007 65.7991L28.0702 65.195C27.7887 65.0672 27.5256 65.047 27.2808 65.1345C27.0337 65.2273 26.8474 65.4118 26.722 65.688C26.5942 65.9695 26.5767 66.2339 26.6695 66.481C26.7623 66.7281 26.9495 66.9156 27.231 67.0434L28.5615 67.6475Z" fill="#29D88E"/>
<path id="[Copy] Capsid Powered_12" d="M20.5296 62.9193C20.5641 62.8722 20.6048 62.8659 20.6519 62.9003L23.1589 64.7344C23.1777 64.7482 23.194 64.7456 23.2078 64.7268L24.3186 63.2085C24.3324 63.1897 24.3298 63.1733 24.311 63.1596L22.5879 61.899C22.5408 61.8645 22.5345 61.8238 22.5689 61.7767L22.8944 61.3318C22.9289 61.2847 22.9696 61.2784 23.0167 61.3128L24.7398 62.5734C24.7587 62.5872 24.775 62.5847 24.7887 62.5658L25.9253 61.0122C25.9391 60.9934 25.9366 60.9771 25.9178 60.9633L23.4108 59.1292C23.3637 59.0948 23.3574 59.054 23.3918 59.007L23.7173 58.5621C23.7517 58.515 23.7925 58.5087 23.8396 58.5431L26.9821 60.8421C27.0292 60.8766 27.0355 60.9174 27.0011 60.9644L23.4879 65.7665C23.4535 65.8136 23.4127 65.8199 23.3657 65.7855L20.2231 63.4864C20.176 63.452 20.1697 63.4112 20.2041 63.3642L20.5296 62.9193Z" fill="#29D88E"/>
<path id="[Copy] Capsid Powered_13" d="M23.1103 57.8561C23.1494 57.8993 23.1474 57.9405 23.1041 57.9797L18.6902 61.9697C18.647 62.0088 18.6058 62.0067 18.5667 61.9635L17.1467 60.3927C16.7398 59.9426 16.5342 59.4759 16.5296 58.9924C16.5208 58.5129 16.7132 58.0952 17.107 57.7392L19.0543 55.9789C19.4481 55.6229 19.8853 55.4715 20.3658 55.5246C20.842 55.5817 21.2835 55.8352 21.6903 56.2853L23.1103 57.8561ZM22.041 57.8083C22.0583 57.7927 22.0591 57.7762 22.0435 57.7589L21.1281 56.7463C20.9012 56.4953 20.6456 56.3647 20.3611 56.3545C20.0684 56.3439 19.7903 56.4538 19.5267 56.6841L17.7612 58.2802C17.5016 58.5149 17.3645 58.7764 17.3499 59.0648C17.3271 59.3527 17.4312 59.6244 17.662 59.8797L18.5773 60.8923C18.593 60.9096 18.6094 60.9104 18.6267 60.8948L22.041 57.8083Z" fill="#29D88E"/>
</g>
</g>
</g>
</g>
<defs>
<clipPath id="clip0_295_2283">
<rect width="80" height="80" fill="white"/>
</clipPath>
</defs>
</svg>
