<svg width="24" height="24" viewBox="0 0 24 24" fill="none" xmlns="http://www.w3.org/2000/svg">
<g id="icon/&#230;&#142;&#168;&#231;&#137;&#185;">
<path id="Vector" d="M21 6.64297C20.3252 6.93064 19.6093 7.1197 18.876 7.20385C19.6461 6.76109 20.2219 6.06489 20.496 5.2451C19.7699 5.65873 18.9755 5.95054 18.147 6.10798C17.6394 5.593 16.9823 5.23599 16.2606 5.08322C15.539 4.93044 14.7861 4.98894 14.0996 5.25112C13.413 5.5133 12.8244 5.9671 12.4099 6.55372C11.9955 7.14035 11.7743 7.83278 11.775 8.54132C11.7762 8.81154 11.8094 9.08075 11.874 9.3438C10.4044 9.27223 8.96689 8.90487 7.65508 8.2656C6.34327 7.62634 5.1865 6.7295 4.26 5.6334C3.93044 6.17253 3.75648 6.78604 3.756 7.41094C3.73965 7.98781 3.87443 8.5594 4.14801 9.07344C4.42158 9.58747 4.82522 10.0275 5.322 10.3534C4.71 10.3361 3.567 10.1808 3.567 9.9133V9.95644C3.58975 10.7775 3.90339 11.5666 4.4563 12.194C5.00922 12.8213 5.76844 13.2495 6.609 13.408C6.31601 13.4868 6.01329 13.5274 5.709 13.5288C5.48249 13.5296 5.25644 13.5093 5.034 13.4684C5.27166 14.172 5.73231 14.7871 6.35178 15.2279C6.97125 15.6687 7.7187 15.9133 8.49 15.9276C7.18415 16.9207 5.56678 17.4619 3.9 17.4635C3.5992 17.4631 3.29869 17.4458 3 17.4118C4.68903 18.4508 6.6542 19.0019 8.661 18.9995C10.046 19.0132 11.4199 18.7624 12.7027 18.2617C13.9855 17.761 15.1514 17.0203 16.1325 16.0829C17.1135 15.1455 17.89 14.0302 18.4167 12.8021C18.9433 11.5739 19.2096 10.2575 19.2 8.92961V8.47228C19.9073 7.96853 20.5166 7.34931 21 6.64297V6.64297Z" fill="#2DAFFF"/>
</g>
</svg>
