<svg width="80" height="80" viewBox="0 0 80 80" fill="none" xmlns="http://www.w3.org/2000/svg">
<g id="Frame 100" clip-path="url(#clip0_295_2284)">
<g id="Frame 98">
<path id="Ellipse 12 (Stroke)" fill-rule="evenodd" clip-rule="evenodd" d="M48.9454 6.61517C30.5075 1.67474 11.5556 12.6166 6.61518 31.0545C3.21277 43.7525 7.34287 56.6949 16.2686 65.1367C20.3019 68.9513 25.3145 71.8467 31.0546 73.3848C36.7947 74.9228 42.5833 74.9216 47.9836 73.6347C59.9344 70.7868 69.9824 61.6434 73.3848 48.9454C78.3252 30.5075 67.3833 11.5556 48.9454 6.61517ZM5.76999 30.8281C10.8355 11.9234 30.2672 0.704483 49.1719 5.76998C68.0766 10.8355 79.2955 30.2672 74.23 49.1719C70.7411 62.1925 60.4373 71.5664 48.1864 74.4859C42.6483 75.8056 36.712 75.8066 30.8281 74.23C24.9442 72.6534 19.8037 69.6844 15.6674 65.7724C6.51753 57.1187 2.28113 43.8487 5.76999 30.8281Z" fill="#FFD74B"/>
<path id="Ellipse 13 (Stroke)" fill-rule="evenodd" clip-rule="evenodd" d="M45.322 20.1381C34.3526 17.1989 23.0774 23.7086 20.1382 34.678C18.5486 40.6101 19.7221 46.6312 22.8709 51.3763C25.5443 55.405 29.6406 58.512 34.678 59.8618C39.7155 61.2116 44.8164 60.569 49.1461 58.4167C54.2456 55.8817 58.2723 51.2541 59.8619 45.3219C62.8011 34.3525 56.2914 23.0774 45.322 20.1381ZM19.293 34.4515C22.3573 23.0154 34.1123 16.2286 45.5484 19.2929C56.9846 22.3573 63.7714 34.1122 60.707 45.5484C59.0499 51.7331 54.8503 56.5583 49.5356 59.2002C45.0223 61.4438 39.7028 62.1141 34.4516 60.707C29.2003 59.2999 24.9286 56.0597 22.1418 51.8601C18.8601 46.9147 17.6358 40.6362 19.293 34.4515Z" fill="#FFD74B"/>
<g id="Frame 94">
<rect x="5.883" y="20.5056" width="76" height="20" rx="3.5" transform="rotate(15 5.883 20.5056)" fill="#E9F4FF"/>
<g id="Minted (lazy)">
<path d="M12.6169 29.6698C12.6652 29.6247 12.7198 29.6104 12.7806 29.6267L13.7137 29.8767C13.7475 29.8858 13.7709 29.9065 13.784 29.939C13.8056 29.9665 13.8119 29.9972 13.8028 30.031L11.9657 36.8872C11.9566 36.921 11.935 36.9478 11.9007 36.9676C11.875 36.9824 11.8452 36.9853 11.8114 36.9762L10.8783 36.7262C10.8445 36.7172 10.8168 36.6989 10.7952 36.6713C10.7821 36.6389 10.7801 36.6057 10.7892 36.5719L12.0855 31.7341C12.0909 31.7138 12.0844 31.6975 12.0659 31.6853C12.0542 31.675 12.0423 31.679 12.0301 31.6975L10.2405 33.3051C10.1922 33.3501 10.1376 33.3645 10.0768 33.3482L9.61025 33.2232C9.54939 33.2069 9.50931 33.1671 9.49 33.104L8.73114 30.8244C8.72981 30.8023 8.7181 30.7919 8.696 30.7932C8.68067 30.7964 8.67028 30.8081 8.66485 30.8284L7.37127 35.6561C7.36221 35.6899 7.34054 35.7167 7.30624 35.7365C7.28052 35.7513 7.25076 35.7542 7.21695 35.7452L6.28387 35.4952C6.25006 35.4861 6.22235 35.4678 6.20074 35.4403C6.1877 35.4078 6.18572 35.3746 6.19477 35.3408L8.03187 28.4847C8.04093 28.4509 8.05832 28.4266 8.08404 28.4117C8.11833 28.3919 8.15238 28.3865 8.18619 28.3956L9.11927 28.6456C9.18013 28.6619 9.22021 28.7017 9.23952 28.7648L10.2215 31.7129C10.2314 31.73 10.2431 31.7404 10.2566 31.7441C10.2701 31.7477 10.2821 31.7436 10.2925 31.7319L12.6169 29.6698Z" fill="#FFD74B"/>
<path d="M13.534 37.4378C13.5002 37.4288 13.4725 37.4105 13.4508 37.3829C13.4378 37.3504 13.4358 37.3173 13.4449 37.2835L15.282 30.4274C15.291 30.3935 15.3084 30.3692 15.3341 30.3544C15.3684 30.3346 15.4025 30.3292 15.4363 30.3383L16.3694 30.5883C16.4032 30.5973 16.4266 30.6181 16.4396 30.6506C16.4613 30.6781 16.4675 30.7088 16.4585 30.7426L14.6214 37.5987C14.6123 37.6325 14.5906 37.6593 14.5563 37.6791C14.5306 37.694 14.5009 37.6969 14.4671 37.6878L13.534 37.4378Z" fill="#FFD74B"/>
<path d="M22.0643 32.2447C22.0733 32.2109 22.0907 32.1865 22.1164 32.1717C22.1507 32.1519 22.1848 32.1465 22.2186 32.1556L23.1517 32.4056C23.1855 32.4146 23.2089 32.4354 23.2219 32.4679C23.2435 32.4954 23.2498 32.5261 23.2408 32.5599L21.4037 39.416C21.3946 39.4499 21.3729 39.4767 21.3386 39.4965C21.3129 39.5113 21.2832 39.5142 21.2494 39.5051L20.3467 39.2633C20.2791 39.2452 20.239 39.2054 20.2264 39.1441L18.5882 33.5743C18.5801 33.5504 18.5684 33.54 18.5531 33.5431C18.5395 33.5395 18.5291 33.5512 18.5219 33.5783L17.2758 38.31C17.2667 38.3438 17.245 38.3706 17.2108 38.3904C17.185 38.4052 17.1553 38.4081 17.1215 38.3991L16.1884 38.1491C16.1546 38.14 16.1269 38.1217 16.1053 38.0942C16.0922 38.0617 16.0902 38.0286 16.0993 37.9947L17.9364 31.1386C17.9454 31.1048 17.9628 31.0805 17.9886 31.0656C18.0228 31.0458 18.0569 31.0404 18.0907 31.0495L18.9934 31.2914C19.061 31.3095 19.1011 31.3492 19.1136 31.4106L20.7417 36.9776C20.7498 37.0015 20.7606 37.0153 20.7741 37.0189C20.7895 37.0158 20.8008 37.0007 20.808 36.9737L22.0643 32.2447Z" fill="#FFD74B"/>
<path d="M29.419 34.0849C29.4528 34.094 29.4762 34.1147 29.4893 34.1472C29.5109 34.1748 29.5172 34.2054 29.5081 34.2392L29.2988 35.0202C29.2898 35.054 29.2681 35.0808 29.2338 35.1006C29.2081 35.1154 29.1783 35.1183 29.1445 35.1093L27.2784 34.6092C27.2446 34.6002 27.2231 34.6126 27.2141 34.6464L25.6324 40.5491C25.6234 40.5829 25.6017 40.6097 25.5674 40.6295C25.5417 40.6444 25.5119 40.6473 25.4781 40.6382L24.545 40.3882C24.5112 40.3792 24.4835 40.3609 24.4619 40.3333C24.4489 40.3008 24.4469 40.2677 24.4559 40.2339L26.0376 34.3311C26.0466 34.2973 26.0343 34.2759 26.0004 34.2668L24.2053 33.7858C24.1715 33.7768 24.1438 33.7585 24.1221 33.7309C24.1091 33.6984 24.1071 33.6653 24.1162 33.6315L24.3254 32.8505C24.3345 32.8167 24.3519 32.7924 24.3776 32.7776C24.4119 32.7578 24.4459 32.7524 24.4797 32.7614L29.419 34.0849Z" fill="#FFD74B"/>
<path d="M35.1952 36.5892C35.1862 36.6231 35.1645 36.6499 35.1302 36.6697C35.1045 36.6845 35.0747 36.6874 35.0409 36.6783L31.5824 35.7516C31.5486 35.7426 31.5272 35.755 31.5181 35.7888L31.0099 37.6854C31.0009 37.7192 31.0132 37.7406 31.047 37.7497L33.3696 38.372C33.4034 38.381 33.4268 38.4018 33.4399 38.4343C33.4615 38.4618 33.4678 38.4925 33.4587 38.5263L33.2522 39.2971C33.2431 39.3309 33.2214 39.3577 33.1871 39.3775C33.1614 39.3924 33.1317 39.3953 33.0979 39.3862L30.7753 38.7639C30.7415 38.7548 30.72 38.7672 30.711 38.801L30.1865 40.7585C30.1774 40.7923 30.1898 40.8137 30.2236 40.8227L33.6821 41.7495C33.7159 41.7585 33.7393 41.7793 33.7524 41.8118C33.774 41.8393 33.7803 41.87 33.7712 41.9038L33.5647 42.6746C33.5556 42.7084 33.5339 42.7352 33.4996 42.755C33.4739 42.7698 33.4442 42.7727 33.4103 42.7637L28.8463 41.5408C28.8125 41.5317 28.7848 41.5134 28.7632 41.4859C28.7502 41.4534 28.7482 41.4202 28.7573 41.3864L30.5943 34.5303C30.6034 34.4965 30.6208 34.4722 30.6465 34.4573C30.6808 34.4375 30.7149 34.4321 30.7487 34.4412L35.3127 35.6641C35.3465 35.6732 35.3699 35.6939 35.3829 35.7264C35.4045 35.754 35.4108 35.7846 35.4018 35.8184L35.1952 36.5892Z" fill="#FFD74B"/>
<path d="M34.8485 43.149C34.8147 43.14 34.787 43.1217 34.7654 43.0941C34.7523 43.0617 34.7503 43.0285 34.7594 42.9947L36.5965 36.1386C36.6055 36.1048 36.6229 36.0804 36.6487 36.0656C36.6829 36.0458 36.717 36.0404 36.7508 36.0495L39.2255 36.7126C39.7056 36.8412 40.1055 37.0389 40.4253 37.3058C40.7452 37.5727 40.9605 37.8913 41.0715 38.2616C41.191 38.627 41.1946 39.0193 41.0822 39.4385L40.2941 42.3797C40.1818 42.799 39.9817 43.1403 39.6937 43.4037C39.4142 43.6622 39.0693 43.8271 38.6589 43.8983C38.2485 43.9695 37.8033 43.9407 37.3232 43.8121L34.8485 43.149ZM36.1886 42.3667C36.1796 42.4005 36.1919 42.422 36.2257 42.431L37.6457 42.8115C38.004 42.9075 38.3179 42.872 38.5873 42.7051C38.8652 42.5332 39.0583 42.2588 39.1666 41.8819L39.8541 39.316C39.9574 38.9306 39.9307 38.5973 39.7741 38.3162C39.6194 38.0283 39.3594 37.8355 38.9943 37.7377L37.5845 37.3599C37.5507 37.3508 37.5293 37.3632 37.5202 37.397L36.1886 42.3667Z" fill="#FFD74B"/>
<path d="M43.3845 46.4798C43.3169 46.4617 43.2759 46.4253 43.2616 46.3708C43.0256 45.764 42.8896 45.0681 42.8535 44.283C42.8261 43.493 42.9292 42.6619 43.1629 41.7896C43.3984 40.9106 43.7256 40.1359 44.1444 39.4655C44.5718 38.7901 45.0436 38.2461 45.5599 37.8337C45.5997 37.7937 45.6533 37.7827 45.721 37.8008L46.6135 38.0399C46.6608 38.0526 46.6876 38.0743 46.6939 38.105C46.7069 38.1374 46.6979 38.1713 46.6667 38.2064C46.2107 38.664 45.7878 39.2282 45.3978 39.8992C45.0097 40.5633 44.7042 41.3113 44.4814 42.1429C44.2604 42.9678 44.1528 43.7615 44.1586 44.524C44.1645 45.2865 44.2504 45.9799 44.4165 46.6041C44.4228 46.6348 44.4241 46.6569 44.4205 46.6704C44.406 46.7245 44.3616 46.7416 44.2872 46.7217L43.3845 46.4798Z" fill="#FFD74B"/>
<path d="M46.3575 46.2329C46.3237 46.2238 46.296 46.2055 46.2744 46.178C46.2614 46.1455 46.2594 46.1123 46.2684 46.0785L48.1055 39.2224C48.1146 39.1886 48.132 39.1643 48.1577 39.1494C48.192 39.1296 48.226 39.1242 48.2598 39.1333L49.1929 39.3833C49.2267 39.3924 49.2502 39.4132 49.2632 39.4456C49.2848 39.4732 49.2911 39.5038 49.282 39.5376L47.6977 45.4506C47.6886 45.4844 47.701 45.5058 47.7348 45.5149L51.1324 46.4253C51.1662 46.4343 51.1897 46.4551 51.2027 46.4876C51.2243 46.5151 51.2306 46.5458 51.2215 46.5796L51.015 47.3504C51.0059 47.3842 50.9843 47.411 50.95 47.4308C50.9242 47.4456 50.8945 47.4485 50.8607 47.4395L46.3575 46.2329Z" fill="#FFD74B"/>
<path d="M56.6991 49.0039C56.6315 48.9858 56.5966 48.9402 56.5944 48.8671L56.5505 47.6922C56.5442 47.6616 56.531 47.6435 56.5107 47.6381L53.8331 46.9206C53.8128 46.9152 53.7923 46.9242 53.7716 46.9476L53.1461 47.9431C53.1077 48.0053 53.0547 48.0274 52.9871 48.0092L51.9728 47.7375C51.9323 47.7266 51.9046 47.7083 51.8897 47.6826C51.8767 47.6501 51.8832 47.612 51.9095 47.5683L55.9474 41.3019C55.9858 41.2397 56.0388 41.2177 56.1064 41.2358L57.3742 41.5755C57.4418 41.5936 57.4767 41.6392 57.4789 41.7122L57.8528 49.1608C57.8559 49.1762 57.8548 49.194 57.8493 49.2143C57.833 49.2751 57.7877 49.2956 57.7133 49.2756L56.6991 49.0039ZM54.3604 46.0075C54.3428 46.0462 54.3509 46.0702 54.3847 46.0792L56.4436 46.6309C56.4841 46.6418 56.5031 46.6251 56.5004 46.5809L56.3662 42.9033C56.3667 42.8745 56.3602 42.8582 56.3466 42.8546C56.3331 42.851 56.3194 42.8618 56.3053 42.887L54.3604 46.0075Z" fill="#FFD74B"/>
<path d="M58.7593 49.5559C58.7255 49.5469 58.6978 49.5286 58.6762 49.501C58.6632 49.4685 58.6612 49.4354 58.6702 49.4016L58.9012 48.5395C58.9139 48.4922 58.9444 48.446 58.9927 48.401L63.7205 44.4282C63.7377 44.4183 63.7447 44.4057 63.7415 44.3904C63.7384 44.3751 63.7267 44.3647 63.7064 44.3592L60.3899 43.4706C60.3561 43.4615 60.3284 43.4432 60.3068 43.4157C60.2937 43.3832 60.2917 43.3501 60.3008 43.3163L60.5073 42.5455C60.5164 42.5116 60.5338 42.4873 60.5595 42.4725C60.5938 42.4527 60.6278 42.4473 60.6616 42.4564L65.2256 43.6793C65.2594 43.6883 65.2829 43.7091 65.2959 43.7416C65.3175 43.7691 65.3238 43.7998 65.3147 43.8336L65.0837 44.6957C65.0711 44.743 65.0406 44.7892 64.9923 44.8342L60.2645 48.8069C60.2473 48.8168 60.2403 48.8295 60.2434 48.8448C60.2466 48.8601 60.2583 48.8705 60.2786 48.876L63.5951 49.7646C63.6289 49.7737 63.6523 49.7944 63.6653 49.8269C63.687 49.8544 63.6932 49.8851 63.6842 49.9189L63.4776 50.6897C63.4686 50.7235 63.4469 50.7503 63.4126 50.7701C63.3869 50.785 63.3571 50.7879 63.3233 50.7788L58.7593 49.5559Z" fill="#FFD74B"/>
<path d="M66.4469 51.6049C66.4131 51.5959 66.3854 51.5776 66.3638 51.55C66.3507 51.5176 66.3488 51.4844 66.3578 51.4506L67.0861 48.7325C67.0934 48.7054 67.0954 48.6843 67.0923 48.6689L66.0873 44.0623C66.081 44.0317 66.0797 44.0096 66.0833 43.9961C66.0978 43.942 66.1423 43.9249 66.2166 43.9448L67.2207 44.2139C67.2883 44.232 67.3275 44.2751 67.3383 44.3432L68 47.5533C68.013 47.5858 68.0333 47.5912 68.0608 47.5696L70.2491 45.1231C70.2992 45.0713 70.3547 45.0536 70.4155 45.0699L71.4297 45.3417C71.4771 45.3543 71.5039 45.376 71.5102 45.4067C71.5232 45.4392 71.5141 45.473 71.483 45.5081L68.2992 48.9923C68.2784 49.0157 68.2663 49.0342 68.2626 49.0477L67.5343 51.7658C67.5253 51.7997 67.5036 51.8265 67.4693 51.8463C67.4436 51.8611 67.4138 51.864 67.38 51.8549L66.4469 51.6049Z" fill="#FFD74B"/>
<path d="M73.8711 45.3436C73.9387 45.3617 73.9797 45.3981 73.994 45.4526C74.23 46.0594 74.3618 46.7578 74.3892 47.5478C74.4253 48.3329 74.3273 49.1582 74.0954 50.0236C73.8617 50.8959 73.5303 51.6731 73.1011 52.3552C72.6737 53.0306 72.2019 53.5745 71.6855 53.9869C71.6458 54.027 71.5921 54.038 71.5245 54.0199L70.632 53.7807C70.5847 53.7681 70.5545 53.7455 70.5415 53.713C70.5352 53.6823 70.5476 53.6494 70.5788 53.6143C71.0348 53.1567 71.4568 52.5958 71.8449 51.9317C72.2349 51.2607 72.5413 50.5094 72.7641 49.6778C72.9869 48.8461 73.0954 48.049 73.0896 47.2865C73.0837 46.524 72.9969 45.834 72.829 45.2165C72.8227 45.1859 72.8214 45.1638 72.825 45.1503C72.8395 45.0962 72.8839 45.0791 72.9583 45.099L73.8711 45.3436Z" fill="#FFD74B"/>
</g>
<rect x="5.883" y="20.5056" width="76" height="20" rx="3.5" transform="rotate(15 5.883 20.5056)" stroke="#FFD74B"/>
</g>
<g id="Linked Path Group">
<path id="[Copy] Capsid Powered" d="M35.6333 15.9655C35.22 16.0404 34.8381 16.0266 34.4875 15.9242C34.1416 15.815 33.8527 15.6272 33.6207 15.361C33.3933 15.088 33.2443 14.7564 33.1735 14.3661L32.7693 12.1362C32.6985 11.7459 32.7227 11.3887 32.8419 11.0648C32.9657 10.7341 33.1709 10.4597 33.4574 10.2418C33.7487 10.0171 34.101 9.86726 34.5142 9.79234C34.9275 9.71743 35.3065 9.73171 35.6513 9.8352C35.9951 9.93295 36.2791 10.1097 36.5033 10.3655C36.7333 10.6202 36.8826 10.937 36.9513 11.3158L36.9528 11.3244C36.9581 11.3531 36.9536 11.3777 36.9395 11.398C36.9254 11.4183 36.9069 11.4306 36.8839 11.4347L36.2358 11.5878C36.1784 11.5982 36.145 11.5776 36.1357 11.5259L36.131 11.5001C36.0644 11.1327 35.896 10.858 35.6259 10.6757C35.3557 10.4935 35.0283 10.4372 34.6438 10.5069C34.2592 10.5767 33.9695 10.7448 33.7748 11.0113C33.5858 11.2768 33.5246 11.5932 33.5911 11.9605L34.0063 14.2507C34.0729 14.618 34.2413 14.8928 34.5114 15.0751C34.7873 15.2562 35.1176 15.312 35.5022 15.2423C35.8867 15.1726 36.1735 15.005 36.3625 14.7395C36.5515 14.474 36.6127 14.1576 36.5462 13.7903L36.543 13.773C36.5337 13.7214 36.5577 13.6904 36.6151 13.68L37.2757 13.5958C37.3331 13.5854 37.367 13.6089 37.3774 13.6663C37.446 14.0451 37.4179 14.397 37.2931 14.722C37.1729 15.0402 36.9695 15.3083 36.683 15.5262C36.3964 15.7441 36.0465 15.8906 35.6333 15.9655Z" fill="#FFD74B"/>
<path id="[Copy] Capsid Powered_2" d="M42.6886 15.5866C42.6362 15.5844 42.6022 15.5596 42.5867 15.5122L42.3158 14.4759C42.3107 14.4582 42.2994 14.4489 42.2819 14.4482L39.8254 14.343C39.808 14.3422 39.7959 14.3505 39.7893 14.3677L39.4308 15.3771C39.4114 15.4229 39.3754 15.4447 39.3229 15.4425L38.6148 15.4122C38.5507 15.4094 38.5288 15.3764 38.549 15.313L40.7184 9.4417C40.7379 9.39583 40.7739 9.37401 40.8263 9.37626L41.7005 9.41369C41.753 9.41593 41.7869 9.44074 41.8024 9.48811L43.4795 15.5241L43.4868 15.5595C43.485 15.6003 43.4579 15.6195 43.4055 15.6173L42.6886 15.5866ZM40.0393 13.6427C40.033 13.6542 40.0325 13.6658 40.0378 13.6777C40.0492 13.684 40.0608 13.6875 40.0724 13.688L42.0831 13.774C42.0947 13.7745 42.1036 13.772 42.1097 13.7664C42.1218 13.7553 42.1253 13.7437 42.1199 13.7318L41.2447 10.4451C41.2394 10.4332 41.2309 10.427 41.2193 10.4265C41.2076 10.426 41.1986 10.4315 41.1923 10.4429L40.0393 13.6427Z" fill="#FFD74B"/>
<path id="[Copy] Capsid Powered_3" d="M47.7626 10.3628C48.108 10.4482 48.3927 10.5968 48.6168 10.8085C48.8479 11.0159 49.002 11.2673 49.0792 11.5628C49.162 11.8597 49.1613 12.178 49.0773 12.5178C48.9933 12.8576 48.8461 13.1366 48.6358 13.355C48.4256 13.5734 48.167 13.7198 47.8602 13.7941C47.559 13.8699 47.2329 13.8643 46.8818 13.7775L45.3869 13.4077C45.3642 13.4021 45.3501 13.4106 45.3445 13.4332L44.7478 15.8455C44.7338 15.9022 44.6985 15.9235 44.6418 15.9095L43.9963 15.7498C43.9397 15.7358 43.9184 15.7004 43.9324 15.6438L45.3632 9.85941C45.3772 9.80279 45.4126 9.78148 45.4692 9.79549L47.7626 10.3628ZM46.9693 13.096C47.2807 13.1731 47.553 13.1413 47.7861 13.0006C48.0248 12.8614 48.182 12.6389 48.2577 12.3331C48.3347 12.0216 48.3001 11.7487 48.1538 11.5142C48.0145 11.2754 47.7892 11.1175 47.4777 11.0405L46.0593 10.6896C46.0366 10.684 46.0225 10.6925 46.0169 10.7152L45.5252 12.7028C45.5196 12.7254 45.5281 12.7395 45.5508 12.7451L46.9693 13.096Z" fill="#FFD74B"/>
<path id="[Copy] Capsid Powered_4" d="M50.341 17.8614C49.9337 17.6721 49.6088 17.4439 49.3662 17.1768C49.129 16.9122 48.9824 16.6254 48.9266 16.3165C48.876 16.01 48.9233 15.7006 49.0683 15.3885L49.1752 15.1584C49.1998 15.1055 49.2385 15.0913 49.2914 15.1159L49.8707 15.3851C49.9236 15.4097 49.9378 15.4484 49.9132 15.5013L49.8247 15.6917C49.6993 15.9615 49.7125 16.2378 49.8641 16.5205C50.0158 16.8033 50.2953 17.0393 50.7026 17.2285C51.0676 17.3981 51.3784 17.4493 51.6348 17.3819C51.8913 17.3145 52.0772 17.1565 52.1928 16.9079C52.269 16.7439 52.2865 16.5815 52.2454 16.4209C52.2042 16.2603 52.1132 16.0893 51.9723 15.9081C51.8391 15.724 51.6299 15.4821 51.3447 15.1823C51.0273 14.8547 50.7832 14.5773 50.6122 14.3499C50.4466 14.125 50.3352 13.8802 50.278 13.6157C50.2233 13.3458 50.266 13.0601 50.4061 12.7586C50.6175 12.3036 50.9447 12.0215 51.3879 11.9123C51.8363 11.8054 52.3383 11.8811 52.8937 12.1392C53.2852 12.3211 53.5983 12.547 53.8331 12.8169C54.0679 13.0868 54.2094 13.3776 54.2575 13.6894C54.3109 14.0037 54.265 14.3169 54.12 14.629L54.0463 14.7877C54.0217 14.8406 53.9829 14.8548 53.93 14.8302L53.3349 14.5537C53.282 14.5291 53.2678 14.4903 53.2924 14.4374L53.3477 14.3184C53.4755 14.0433 53.4701 13.7642 53.3315 13.4811C53.2007 13.1952 52.9421 12.9625 52.556 12.7831C52.228 12.6307 51.9421 12.5814 51.6983 12.6354C51.457 12.6841 51.2774 12.8354 51.1594 13.0893C51.0782 13.2639 51.0568 13.4276 51.0952 13.5805C51.1335 13.7334 51.219 13.8953 51.3518 14.0664C51.4923 14.2346 51.7132 14.4723 52.0143 14.7794C52.3211 15.1021 52.5613 15.381 52.7351 15.6161C52.9113 15.8459 53.0282 16.0996 53.0858 16.3772C53.1458 16.6495 53.1057 16.9365 52.9656 17.238C52.7493 17.7035 52.4053 17.994 51.9336 18.1093C51.4697 18.2218 50.9388 18.1391 50.341 17.8614Z" fill="#FFD74B"/>
<path id="[Copy] Capsid Powered_5" d="M53.0314 19.2408C52.9824 19.2091 52.9738 19.1687 53.0056 19.1198L56.2445 14.1286C56.2762 14.0796 56.3166 14.0711 56.3655 14.1028L56.9234 14.4648C56.9723 14.4966 56.9809 14.5369 56.9491 14.5858L53.7102 19.577C53.6785 19.626 53.6381 19.6346 53.5892 19.6028L53.0314 19.2408Z" fill="#FFD74B"/>
<path id="[Copy] Capsid Powered_6" d="M54.927 20.4652C54.8836 20.4262 54.8814 20.385 54.9204 20.3417L58.8999 15.9183C58.9389 15.8749 58.9801 15.8727 59.0235 15.9117L60.5977 17.3279C61.0487 17.7337 61.3013 18.1768 61.3556 18.6572C61.4138 19.1332 61.2654 19.5686 60.9104 19.9632L59.1547 21.9147C58.7997 22.3094 58.3805 22.505 57.897 22.5016C57.4175 22.4939 56.9522 22.2872 56.5012 21.8815L54.927 20.4652ZM55.9955 20.4026C55.9799 20.4199 55.9808 20.4364 55.9981 20.452L57.0129 21.3649C57.2645 21.5912 57.5322 21.6948 57.8162 21.6757C58.1084 21.6561 58.3738 21.5182 58.6122 21.2619L60.204 19.4925C60.4381 19.2323 60.5475 18.958 60.5323 18.6697C60.5253 18.3809 60.3938 18.1215 60.138 17.8913L59.1232 16.9783C59.1058 16.9627 59.0894 16.9636 59.0738 16.981L55.9955 20.4026Z" fill="#FFD74B"/>
<g id="Linked Path Group_2">
<path id="[Copy] Capsid Powered_7" d="M53.2952 67.6043C52.9775 67.7646 52.6647 67.8374 52.3568 67.8229C52.0463 67.8162 51.7656 67.7259 51.5145 67.552C51.2582 67.3807 51.0513 67.1389 50.8936 66.8264C50.736 66.5139 50.6657 66.2063 50.6829 65.9036C50.7001 65.6009 50.8008 65.3214 50.9851 65.0651C51.1642 64.8114 51.4152 64.6031 51.7381 64.4402L53.1131 63.7466C53.1339 63.7361 53.1391 63.7204 53.1286 63.6996L52.0093 61.4809C51.983 61.4288 51.9959 61.3897 52.048 61.3634L52.6417 61.0639C52.6938 61.0376 52.733 61.0505 52.7593 61.1026L55.4432 66.4227C55.4694 66.4748 55.4565 66.5139 55.4045 66.5402L53.2952 67.6043ZM52.1159 65.0141C51.8294 65.1586 51.6436 65.3602 51.5584 65.6187C51.4681 65.8799 51.4938 66.1512 51.6357 66.4324C51.7802 66.7188 51.9844 66.9033 52.2481 66.9859C52.5093 67.0762 52.7832 67.0492 53.0696 66.9047L54.3742 66.2465C54.3951 66.236 54.4002 66.2203 54.3897 66.1995L53.4675 64.3714C53.457 64.3506 53.4413 64.3454 53.4205 64.3559L52.1159 65.0141Z" fill="#FFD74B"/>
<path id="[Copy] Capsid Powered_8" d="M46.2914 63.6018C46.7027 63.4917 47.0888 63.4789 47.4496 63.5635C47.8104 63.6481 48.1189 63.8191 48.375 64.0767C48.6327 64.3398 48.815 64.6714 48.9221 65.0715L49.4606 67.0832C49.5677 67.4833 49.5746 67.8589 49.4814 68.2099C49.3882 68.5609 49.2064 68.8632 48.9361 69.1167C48.6658 69.3703 48.325 69.5521 47.9136 69.6622C47.4966 69.7738 47.1077 69.7873 46.7469 69.7027C46.3861 69.6182 46.0777 69.4471 45.8215 69.1896C45.5654 68.9321 45.3838 68.6032 45.2767 68.2032L44.7382 66.1915C44.6311 65.7914 44.6234 65.413 44.7151 65.0563C44.8084 64.7053 44.9901 64.403 45.2604 64.1495C45.5307 63.896 45.8744 63.7134 46.2914 63.6018ZM46.4792 64.3034C46.096 64.4059 45.8177 64.6072 45.6444 64.9072C45.4711 65.2073 45.4365 65.5517 45.5406 65.9405L46.0904 67.9944C46.196 68.3889 46.3988 68.6727 46.6988 68.8461C47.0003 69.025 47.3427 69.0632 47.7258 68.9606C48.109 68.8581 48.3865 68.654 48.5583 68.3483C48.726 68.0498 48.757 67.7033 48.6515 67.3089L48.1017 65.2549C47.9976 64.8661 47.7983 64.5843 47.504 64.4095C47.2039 64.2362 46.8623 64.2008 46.4792 64.3034Z" fill="#FFD74B"/>
<path id="[Copy] Capsid Powered_9" d="M42.1239 64.4851C42.1764 64.4845 42.2088 64.5075 42.221 64.554L43.932 70.4941L43.941 70.5203C43.9415 70.5669 43.9126 70.5906 43.8543 70.5912L43.1456 70.5991C43.0931 70.5997 43.0607 70.5738 43.0485 70.5214L41.8539 66.1769C41.848 66.1653 41.8421 66.1595 41.8363 66.1596C41.8246 66.1597 41.8159 66.1657 41.8102 66.1774L40.7736 70.5467C40.7625 70.5993 40.7307 70.6259 40.6782 70.6265L39.987 70.6341C39.9345 70.6347 39.9021 70.6088 39.8899 70.5565L38.6953 66.2032C38.6893 66.1916 38.6834 66.1858 38.6776 66.1859C38.6718 66.186 38.666 66.1918 38.6603 66.2036L37.5538 70.5824C37.5427 70.635 37.5109 70.6616 37.4584 70.6622L36.7935 70.6696C36.7643 70.6699 36.7438 70.6614 36.7319 70.644C36.7142 70.6267 36.7081 70.6034 36.7136 70.5742L38.2313 64.607C38.2424 64.5544 38.2742 64.5278 38.3267 64.5272L39.0004 64.5197C39.0529 64.5191 39.0853 64.545 39.0975 64.5974L40.2938 69.0994C40.2998 69.1168 40.3057 69.1255 40.3116 69.1254C40.3174 69.1254 40.3231 69.1166 40.3288 69.099L41.3899 64.572C41.3951 64.5194 41.4269 64.4928 41.4852 64.4921L42.1239 64.4851Z" fill="#FFD74B"/>
<path id="[Copy] Capsid Powered_10" d="M31.2206 68.7535C31.2336 68.6967 31.2685 68.6747 31.3254 68.6877L34.3537 69.3795C34.3764 69.3847 34.3904 69.3759 34.3956 69.3531L34.8145 67.5191C34.8197 67.4964 34.811 67.4824 34.7882 67.4772L32.7068 67.0018C32.65 66.9888 32.628 66.9538 32.641 66.897L32.7638 66.3596C32.7768 66.3027 32.8117 66.2808 32.8686 66.2938L34.9499 66.7692C34.9727 66.7744 34.9867 66.7656 34.9919 66.7429L35.4206 64.8662C35.4257 64.8435 35.417 64.8295 35.3942 64.8243L32.366 64.1326C32.3091 64.1196 32.2872 64.0846 32.3002 64.0278L32.4229 63.4904C32.4359 63.4335 32.4708 63.4116 32.5277 63.4245L36.3237 64.2917C36.3806 64.3047 36.4025 64.3396 36.3895 64.3965L35.0644 70.197C35.0514 70.2539 35.0165 70.2759 34.9596 70.2629L31.1637 69.3957C31.1068 69.3827 31.0849 69.3478 31.0979 69.2909L31.2206 68.7535Z" fill="#FFD74B"/>
<path id="[Copy] Capsid Powered_11" d="M28.4111 61.6501C28.4536 61.6694 28.4744 61.7012 28.4735 61.7456L28.5073 64.6343C28.5054 64.6526 28.5124 64.6654 28.5283 64.6726L29.6756 65.1935C29.6969 65.2032 29.7123 65.1974 29.7219 65.1761L30.789 62.8258C30.8132 62.7727 30.8518 62.7582 30.9049 62.7823L31.5104 63.0572C31.5635 63.0813 31.578 63.1199 31.5539 63.173L29.0942 68.5908C29.07 68.6439 29.0314 68.6584 28.9783 68.6343L26.8351 67.6612C26.5164 67.5166 26.2677 67.3236 26.089 67.0823C25.9049 66.8385 25.8008 66.567 25.7765 66.2677C25.7522 65.9684 25.8112 65.6621 25.9535 65.3487C26.1223 64.9769 26.3641 64.7055 26.6788 64.5344C26.9857 64.3663 27.3323 64.3154 27.7186 64.3819C27.7447 64.3809 27.756 64.37 27.7526 64.3493L27.6825 61.4346C27.682 61.4216 27.6854 61.4071 27.6927 61.3911C27.7095 61.354 27.7392 61.345 27.7817 61.3643L28.4111 61.6501ZM28.5615 67.6475C28.5827 67.6571 28.5982 67.6513 28.6078 67.6301L29.4181 65.8454C29.4277 65.8241 29.4219 65.8087 29.4007 65.799L28.0702 65.195C27.7886 65.0671 27.5255 65.047 27.2808 65.1345C27.0337 65.2273 26.8474 65.4118 26.722 65.688C26.5942 65.9695 26.5767 66.2338 26.6695 66.4809C26.7623 66.7281 26.9494 66.9156 27.231 67.0434L28.5615 67.6475Z" fill="#FFD74B"/>
<path id="[Copy] Capsid Powered_12" d="M20.5296 62.9192C20.564 62.8721 20.6048 62.8658 20.6519 62.9002L23.1589 64.7343C23.1777 64.7481 23.194 64.7456 23.2078 64.7267L24.3186 63.2084C24.3323 63.1896 24.3298 63.1733 24.311 63.1595L22.5879 61.8989C22.5408 61.8645 22.5345 61.8237 22.5689 61.7766L22.8944 61.3317C22.9288 61.2846 22.9696 61.2783 23.0167 61.3128L24.7398 62.5734C24.7586 62.5871 24.7749 62.5846 24.7887 62.5658L25.9253 61.0122C25.9391 60.9933 25.9366 60.977 25.9177 60.9633L23.4107 59.1292C23.3637 59.0947 23.3573 59.054 23.3918 59.0069L23.7173 58.562C23.7517 58.5149 23.7925 58.5086 23.8396 58.543L26.9821 60.8421C27.0292 60.8765 27.0355 60.9173 27.0011 60.9644L23.4879 65.7665C23.4535 65.8136 23.4127 65.8199 23.3656 65.7854L20.2231 63.4864C20.176 63.4519 20.1697 63.4112 20.2041 63.3641L20.5296 62.9192Z" fill="#FFD74B"/>
<path id="[Copy] Capsid Powered_13" d="M23.1103 57.856C23.1494 57.8993 23.1473 57.9405 23.1041 57.9796L18.6902 61.9696C18.6469 62.0088 18.6057 62.0067 18.5666 61.9634L17.1466 60.3926C16.7398 59.9426 16.5341 59.4758 16.5296 58.9924C16.5207 58.5128 16.7132 58.0951 17.107 57.7391L19.0543 55.9788C19.4481 55.6228 19.8852 55.4714 20.3658 55.5246C20.842 55.5816 21.2835 55.8352 21.6903 56.2852L23.1103 57.856ZM22.041 57.8083C22.0583 57.7926 22.0591 57.7762 22.0435 57.7588L21.1281 56.7463C20.9012 56.4953 20.6455 56.3647 20.3611 56.3545C20.0684 56.3438 19.7903 56.4537 19.5267 56.6841L17.7612 58.2801C17.5015 58.5148 17.3644 58.7764 17.3499 59.0647C17.3271 59.3527 17.4311 59.6243 17.6619 59.8796L18.5773 60.8922C18.5929 60.9095 18.6094 60.9103 18.6267 60.8947L22.041 57.8083Z" fill="#FFD74B"/>
</g>
</g>
</g>
</g>
<defs>
<clipPath id="clip0_295_2284">
<rect width="80" height="80" fill="white"/>
</clipPath>
</defs>
</svg>
