<svg width="24" height="24" viewBox="0 0 24 24" fill="none" xmlns="http://www.w3.org/2000/svg">
<g id="icon/discord">
<path id="Vector" d="M18.2612 6.1824C18.2562 6.1725 18.2479 6.16475 18.2378 6.16052C17.0708 5.61392 15.8392 5.22414 14.5739 5.00096C14.5624 4.99877 14.5506 5.00035 14.54 5.00545C14.5294 5.01056 14.5207 5.01894 14.5151 5.02939C14.3474 5.34011 14.1951 5.65927 14.059 5.98565C12.6951 5.7743 11.3077 5.7743 9.94386 5.98565C9.80677 5.65844 9.65209 5.3392 9.48054 5.02939C9.47466 5.01916 9.46589 5.01098 9.45538 5.00591C9.44488 5.00083 9.43312 4.99911 9.42164 5.00096C8.15624 5.22367 6.9246 5.61348 5.75771 6.16055C5.74772 6.16488 5.73929 6.17226 5.73359 6.18168C3.40004 9.73913 2.76079 13.2091 3.07438 16.6361C3.07527 16.6445 3.07779 16.6526 3.08182 16.66C3.08584 16.6674 3.09128 16.6739 3.0978 16.6791C4.45661 17.7061 5.97645 18.4901 7.59246 18.9975C7.60384 19.001 7.61599 19.0008 7.62728 18.997C7.63857 18.9933 7.64846 18.9861 7.65561 18.9764C8.0027 18.4943 8.31024 17.9838 8.57512 17.4501C8.57876 17.4427 8.58084 17.4347 8.58121 17.4265C8.58159 17.4183 8.58027 17.4101 8.57732 17.4025C8.57437 17.3948 8.56987 17.3879 8.56412 17.3822C8.55836 17.3764 8.55148 17.372 8.54392 17.3692C8.05895 17.1798 7.58944 16.9514 7.1398 16.6863C7.13163 16.6814 7.12477 16.6745 7.11982 16.6662C7.11488 16.658 7.112 16.6486 7.11144 16.639C7.11088 16.6293 7.11265 16.6197 7.11661 16.6109C7.12057 16.6021 7.12659 16.5944 7.13413 16.5886C7.22875 16.5164 7.32172 16.4421 7.41298 16.3656C7.42098 16.3588 7.43067 16.3545 7.44095 16.3531C7.45122 16.3517 7.46168 16.3532 7.47114 16.3576C10.4169 17.73 13.6062 17.73 16.5171 16.3576C16.5266 16.3529 16.5372 16.3512 16.5476 16.3525C16.558 16.3538 16.5679 16.3581 16.576 16.3648C16.6674 16.4418 16.7606 16.5164 16.8555 16.5886C16.8631 16.5944 16.8692 16.602 16.8732 16.6107C16.8772 16.6195 16.8791 16.6291 16.8786 16.6388C16.8781 16.6484 16.8753 16.6578 16.8704 16.6661C16.8655 16.6744 16.8587 16.6813 16.8506 16.6863C16.402 16.9536 15.932 17.1818 15.4458 17.3685C15.4382 17.3714 15.4314 17.3759 15.4257 17.3817C15.4199 17.3876 15.4155 17.3946 15.4126 17.4023C15.4097 17.41 15.4084 17.4182 15.4089 17.4264C15.4093 17.4347 15.4115 17.4427 15.4152 17.4501C15.6845 17.9808 15.9916 18.4907 16.334 18.9755C16.3409 18.9855 16.3508 18.9929 16.3621 18.9969C16.3734 19.0008 16.3857 19.001 16.3971 18.9974C18.016 18.4917 19.5385 17.7077 20.899 16.6791C20.9057 16.6741 20.9112 16.6678 20.9152 16.6605C20.9193 16.6533 20.9217 16.6452 20.9225 16.6368C21.2979 12.6749 20.2939 9.23331 18.2612 6.1824V6.1824ZM9.01505 14.5494C8.12815 14.5494 7.39737 13.7186 7.39737 12.6982C7.39737 11.6778 8.11397 10.8469 9.01505 10.8469C9.92316 10.8469 10.6469 11.685 10.6327 12.6981C10.6327 13.7186 9.91606 14.5494 9.01505 14.5494V14.5494ZM14.9961 14.5494C14.1092 14.5494 13.3784 13.7186 13.3784 12.6982C13.3784 11.6778 14.095 10.8469 14.9961 10.8469C15.9043 10.8469 16.6279 11.685 16.6138 12.6981C16.6138 13.7186 15.9043 14.5494 14.9961 14.5494Z" fill="#5C68FF"/>
</g>
</svg>
