<svg width="24" height="24" viewBox="0 0 24 24" fill="none" xmlns="http://www.w3.org/2000/svg">
<g id="icon&#232;&#174;&#164;&#232;&#175;&#129;">
<path id="Vector" d="M21.5304 9.96602L18.6744 4.98962C17.9496 3.72722 16.596 2.94122 15.1416 2.93762L9.4044 2.92322H9.3936C7.9428 2.92322 6.5892 3.70202 5.8596 4.95722L2.9784 9.91922C2.2476 11.178 2.244 12.7428 2.9676 14.0052L5.8236 18.9804C6.5484 20.2428 7.902 21.0288 9.3564 21.0324L15.0936 21.0468H15.1044C16.5552 21.0468 17.9088 20.268 18.6384 19.0128L21.5196 14.052C22.2504 12.7944 22.2552 11.2284 21.5304 9.96602V9.96602Z" fill="#2590FF"/>
<path id="Vector_2" d="M8.1204 20.8344C8.5152 20.9616 8.9316 21.0312 9.3576 21.0324L15.0948 21.0468H15.1056C16.5564 21.0468 17.91 20.268 18.6396 19.0128L21.5208 14.052C22.0056 13.218 22.1676 12.2496 22.014 11.3244C21.1359 11.1113 20.2356 11.0038 19.332 11.004C13.5864 11.0028 8.8428 15.2868 8.1204 20.8344V20.8344Z" fill="#007DFF"/>
<path id="Vector_3" d="M14.8824 2.93762L9.4044 2.92322H9.3936C7.9428 2.92322 6.5892 3.70202 5.8596 4.95722L2.9784 9.91922C2.4732 10.788 2.316 11.8032 2.5056 12.7644C2.8872 12.8028 3.2736 12.8232 3.6648 12.8232C9.4284 12.8232 14.184 8.51162 14.8824 2.93762V2.93762Z" fill="#53A7FF"/>
<path id="Vector_4" d="M11.6976 15.4176C11.5188 15.4176 11.3448 15.3504 11.2104 15.228L8.2116 12.4776C7.9188 12.2088 7.8984 11.7528 8.1672 11.46C8.29631 11.3192 8.476 11.2355 8.66681 11.2272C8.85762 11.2188 9.04393 11.2866 9.1848 11.4156L11.5776 13.6104L14.6652 9.19557C14.7194 9.118 14.7883 9.05186 14.8681 9.00095C14.9478 8.95003 15.0368 8.91534 15.13 8.89884C15.2232 8.88235 15.3187 8.88438 15.4111 8.90482C15.5034 8.92526 15.5909 8.96371 15.6684 9.01797C15.746 9.07215 15.8121 9.14108 15.863 9.22084C15.9139 9.30059 15.9486 9.38959 15.9651 9.48276C15.9816 9.57593 15.9796 9.67144 15.9592 9.76383C15.9387 9.85621 15.9003 9.94366 15.846 10.0212L12.288 15.1092C12.2294 15.1933 12.1534 15.2639 12.0653 15.3163C11.9771 15.3687 11.8787 15.4016 11.7768 15.4128C11.7504 15.4152 11.724 15.4176 11.6976 15.4176V15.4176Z" fill="white"/>
</g>
</svg>
