<svg width="24" height="24" viewBox="0 0 24 24" fill="none" xmlns="http://www.w3.org/2000/svg">
<g id="&#229;&#176;&#143;&#231;&#187;&#132;">
<g id="Group 18">
<path id="Vector" d="M10.6245 14.7705C11.8463 14.0786 12.673 12.764 12.673 11.2599C12.673 9.03307 10.8667 7.22681 8.63984 7.22681C6.41296 7.22681 4.6067 9.03307 4.6067 11.2599C4.6067 12.7694 5.437 14.0822 6.66242 14.776C4.39548 15.5134 2.72214 17.4726 2.5 19.8342H14.7979C14.5776 17.469 12.8969 15.5043 10.6245 14.7705Z" fill="#FF8E25"/>
<path id="Vector_2" d="M13.7123 11.3074C13.736 12.8132 13.1169 14.1114 11.8951 14.8034C13.3154 15.3168 14.2822 16.3055 15.0197 17.6092H21.5C21.2779 15.2422 19.5991 13.232 17.3285 12.4982C18.5503 11.8063 19.3733 10.5371 19.3733 9.03314C19.3733 6.80626 17.567 5 15.3401 5C13.5976 5 12.0663 6.05062 11.5 7.5965C12.8274 8.31755 13.6905 9.7378 13.7123 11.3074Z" fill="#FF8E25"/>
</g>
</g>
</svg>
