<svg width="24" height="24" viewBox="0 0 24 24" fill="none" xmlns="http://www.w3.org/2000/svg">
<g id="icon/&#231;&#153;&#189;&#229;&#144;&#141;&#229;&#141;&#149;">
<path id="Vector" d="M14.6126 12.0954C14.131 11.6704 13.5916 11.322 13.0119 11.0615C13.7871 10.5641 14.3852 9.81693 14.7153 8.93357C15.0455 8.05021 15.0897 7.07885 14.8413 6.16694C14.5929 5.25503 14.0655 4.45237 13.339 3.88081C12.6125 3.30925 11.7266 3 10.816 3C9.90526 3 9.01943 3.30925 8.29293 3.88081C7.56644 4.45237 7.03896 5.25503 6.79055 6.16694C6.54215 7.07885 6.58639 8.05021 6.91657 8.93357C7.24674 9.81693 7.84481 10.5641 8.62 11.0615C5.93681 12.2514 4 15.5553 4 19.4381C4 19.5871 4.05688 19.73 4.15813 19.8354C4.25937 19.9408 4.39669 20 4.53988 20H11.2883C10.8646 19.2771 10.6146 18.4585 10.5596 17.6135C10.5046 16.7686 10.6463 15.9224 10.9725 15.1466C11.2988 14.3708 11.8 13.6884 12.4337 13.1573C13.0674 12.6261 13.8149 12.2618 14.6126 12.0954V12.0954Z" fill="#2AE78C"/>
<path id="Subtract" fill-rule="evenodd" clip-rule="evenodd" d="M16 21C18.2091 21 20 19.2091 20 17C20 14.7909 18.2091 13 16 13C13.7909 13 12 14.7909 12 17C12 19.2091 13.7909 21 16 21ZM17.5377 15.5C17.6591 15.5 17.7755 15.5525 17.8615 15.646C17.9046 15.6918 17.9391 15.7465 17.9628 15.8069C17.9866 15.8672 17.9992 15.9321 18 15.9978C18.0007 16.0635 17.9896 16.1287 17.9672 16.1897C17.9448 16.2507 17.9116 16.3063 17.8695 16.3533L16.1607 18.2278C16.0821 18.3141 15.9886 18.3825 15.8857 18.4292C15.7827 18.476 15.6723 18.5 15.5607 18.5C15.4492 18.5 15.3388 18.476 15.2358 18.4292C15.1329 18.3825 15.0394 18.3141 14.9608 18.2278L14.1253 17.3093C14.0432 17.2146 13.9982 17.0886 14.0001 16.9582C14.0019 16.8279 14.0504 16.7035 14.1351 16.6115C14.2199 16.5196 14.3343 16.4674 14.4538 16.4661C14.5734 16.4648 14.6887 16.5144 14.7751 16.6045L15.5613 17.468L17.214 15.646C17.2999 15.5525 17.4163 15.5 17.5377 15.5Z" fill="#2AE78C"/>
</g>
</svg>
