<svg width="200" height="100" viewBox="0 0 200 100" fill="none" xmlns="http://www.w3.org/2000/svg">
<path d="M115.469 32C119.552 32.095 120.844 33.8457 121.232 35.9916C121.468 37.288 121.491 38.5776 121.043 39.8302C120.817 40.5125 120.381 41.1051 119.796 41.5219C119.708 41.5828 119.629 41.655 119.539 41.7282C119.9 42.095 120.271 42.4191 120.583 42.7935C121.228 43.5786 121.463 44.5328 121.553 45.5174C121.666 46.6576 121.498 47.8079 121.064 48.8684C120.67 49.8255 119.936 50.4917 118.989 50.9051C117.837 51.4069 116.615 51.5076 115.381 51.5038C111.725 51.4934 108.069 51.5038 104.415 51.5038C103.561 51.5038 103.492 51.4354 103.492 50.5877C103.492 44.6953 103.49 38.8045 103.485 32.9152C103.485 32.4904 103.567 32.172 103.986 32.0076L115.469 32ZM111.632 43.3258C110.366 43.3258 109.1 43.3372 107.834 43.3191C107.438 43.3134 107.309 43.4569 107.315 43.8456C107.334 44.9861 107.315 46.1266 107.323 47.267C107.323 47.8372 107.34 47.8486 107.914 47.8496C110.193 47.8496 112.472 47.8648 114.751 47.8391C115.281 47.8325 115.814 47.7042 116.338 47.5977C116.822 47.5027 117.153 47.171 117.338 46.7291C117.487 46.3782 117.564 46.0008 117.564 45.6195C117.564 45.2382 117.487 44.8609 117.338 44.5099C116.968 43.6052 116.149 43.3695 115.284 43.3381C114.066 43.2944 112.847 43.3258 111.628 43.3258H111.632ZM111.561 40.1524C112.589 40.1524 113.616 40.1629 114.643 40.1524C115.116 40.1473 115.588 40.1111 116.056 40.0441C116.81 39.9319 117.244 39.3988 117.253 38.6327C117.253 38.3011 117.253 37.9675 117.253 37.6367C117.253 36.8175 116.803 36.1722 116.005 35.9717C115.472 35.8315 114.924 35.754 114.372 35.7407C112.188 35.7151 110.011 35.7407 107.83 35.7227C107.431 35.7227 107.309 35.8671 107.316 36.2511C107.333 37.3744 107.337 38.4978 107.316 39.6202C107.308 40.0374 107.453 40.1714 107.865 40.1638C109.093 40.1391 110.325 40.1524 111.558 40.1524H111.561Z" fill="url(#paint0_linear_726_2810)"/>
<path d="M65.8084 32C66.5538 32.1207 67.3096 32.1986 68.0427 32.3697C70.294 32.8953 71.7268 34.5451 71.8018 36.9192C71.8237 37.5968 71.8474 38.2897 71.7382 38.953C71.5483 40.0935 70.9957 41.061 69.9664 41.7396C70.2247 41.981 70.4545 42.19 70.6776 42.4048C71.0689 42.7756 71.3792 43.2235 71.5891 43.7203C71.7989 44.217 71.9037 44.7519 71.8968 45.2912C71.9116 46.0445 71.884 46.7981 71.8142 47.5483C71.6328 49.2913 70.5561 50.3501 69.0226 51.0077C68.1803 51.3698 67.283 51.4829 66.3819 51.4829C63.8828 51.5029 61.3826 51.5086 58.8806 51.4829C57.2284 51.4668 55.7472 50.9868 54.5868 49.7238C53.8756 48.9482 53.5509 48.0055 53.3591 47.0009C53.2945 46.6607 53.2499 46.3166 53.1901 45.9754C53.0676 45.2836 53.3638 44.9101 54.0703 44.8996C54.7767 44.8891 55.4623 44.891 56.1593 44.8996C56.8562 44.9081 56.9911 45.084 57.1088 45.7549C57.1838 46.1826 57.2987 46.635 57.5342 46.9904C57.7517 47.2922 58.0592 47.5171 58.4125 47.6329C58.8817 47.7712 59.3686 47.8397 59.8577 47.8363C61.6134 47.8581 63.371 47.8534 65.1257 47.8363C65.6149 47.831 66.103 47.7894 66.5861 47.7118C67.603 47.5493 67.9828 47.1226 68.0512 46.0011C68.0896 45.4962 68.0522 44.9885 67.9401 44.4947C67.7654 43.7848 67.133 43.5596 66.4997 43.4322C66.0807 43.3544 65.6553 43.3169 65.2292 43.3201C63.6786 43.3067 62.128 43.3201 60.5765 43.3124C59.9878 43.3124 59.8169 43.1338 59.8102 42.5417C59.8045 42.0038 59.8102 41.4649 59.8102 40.926C59.8102 40.3872 59.9669 40.217 60.4929 40.1534C60.6508 40.1402 60.8093 40.136 60.9677 40.141C62.5496 40.141 64.1315 40.1477 65.7154 40.141C66.0762 40.141 66.4674 40.141 66.7893 40.0146C67.1112 39.8882 67.472 39.6345 67.6438 39.3436C68.074 38.6109 68.0626 37.8021 67.7844 37.0038C67.491 36.1627 66.7969 35.8538 66.0031 35.8282C63.9141 35.7616 61.8327 35.7464 59.7466 35.7331C59.3834 35.7352 59.0215 35.776 58.667 35.8548C57.707 36.0524 57.2674 36.6151 57.104 37.7974C57.0005 38.5463 56.8648 38.6651 56.0985 38.667C55.4655 38.667 54.8325 38.667 54.1994 38.667C53.3515 38.667 53.0154 38.2868 53.1825 37.4362C53.3184 36.7287 53.4985 36.0303 53.7218 35.3454C54.0428 34.3741 54.6315 33.571 55.5136 33.0397C56.4736 32.4628 57.5361 32.1701 58.6527 32.077C58.8237 32.0627 58.9927 32.0276 59.1626 32.0019L65.8084 32Z" fill="url(#paint1_linear_726_2810)"/>
<path d="M86.0334 32C86.7636 32.1178 87.4986 32.2119 88.224 32.3573C89.8676 32.6871 91.4657 34.0101 91.7848 35.8557C91.9917 37.0561 92.0345 38.2203 91.8094 39.4206C91.5929 40.582 90.9283 41.4307 90.0281 42.0665C88.6893 43.0112 87.283 43.8618 85.8891 44.7276C84.6547 45.4926 83.4013 46.2225 82.1546 46.9657C81.7465 47.1924 81.3558 47.4491 80.9857 47.7337C81.1491 47.7403 81.3124 47.7546 81.4757 47.7546H90.6358C90.8097 47.7487 90.9837 47.7528 91.1571 47.7669C91.6898 47.8296 91.9234 48.072 91.9329 48.6033C91.9462 49.3154 91.9462 50.0279 91.9329 50.7407C91.9224 51.3109 91.724 51.4953 91.141 51.4962C85.7293 51.4962 80.3185 51.4962 74.9087 51.4962C74.1871 51.4962 74.0542 51.3527 74.0542 50.6266C74.0542 49.8825 74.0627 49.1383 74.0542 48.3942C74.0475 47.9494 74.2441 47.6538 74.6239 47.4305C76.4299 46.3597 78.2321 45.2826 80.0305 44.1992C81.9245 43.0638 83.8163 41.9233 85.7058 40.7778C86.2053 40.4736 86.6858 40.1391 87.1653 39.8046C88.3465 38.9815 88.2971 37.5008 87.735 36.4782C87.4425 35.947 86.7855 35.85 86.2157 35.8301C84.3841 35.7645 82.5515 35.7445 80.718 35.7274C80.3549 35.7337 79.9932 35.7757 79.6383 35.8529C78.5939 36.0524 78.0403 36.7253 77.9909 37.8487C77.9757 38.1956 77.9966 38.5453 77.9814 38.8941C77.9605 39.3769 77.7564 39.5964 77.2778 39.605C76.408 39.6202 75.5383 39.6126 74.6675 39.605C74.2773 39.605 74.076 39.4301 74.0504 38.9996C73.9658 37.6187 74.1301 36.2663 74.6732 35.0023C75.2714 33.6157 76.3862 32.7727 77.8675 32.3688C78.4752 32.2024 79.2918 32 79.9564 32H86.0334Z" fill="url(#paint2_linear_726_2810)"/>
<path d="M146.424 35.8966H140.347C140.347 35.8966 140.358 45.715 140.357 50.3671C140.366 50.5574 140.359 50.7481 140.337 50.9374C140.282 51.2719 140.106 51.5076 139.719 51.4943C138.852 51.4724 137.983 51.423 137.118 51.4943C136.692 51.5276 136.504 51.2881 136.447 50.9383C136.425 50.7491 136.419 50.5584 136.428 50.3681C136.428 45.7483 136.454 35.8044 136.454 35.8044H130.377C130.225 35.8044 130.081 35.7443 129.974 35.6374C129.867 35.5304 129.807 35.3854 129.807 35.2341V32.5731C129.807 32.4218 129.867 32.2768 129.974 32.1698C130.081 32.0629 130.225 32.0028 130.377 32.0028H146.424C146.575 32.0028 146.72 32.0629 146.827 32.1698C146.933 32.2768 146.993 32.4218 146.993 32.5731L147 35.3292C147 35.4044 146.984 35.4788 146.955 35.5481C146.926 35.6174 146.883 35.6802 146.83 35.7329C146.776 35.7857 146.713 35.8273 146.643 35.8553C146.573 35.8834 146.499 35.8974 146.424 35.8966Z" fill="url(#paint3_linear_726_2810)"/>
<path d="M127.427 32C127.853 32.1901 128.022 32.5037 128.022 32.9751C128.012 38.8498 128.01 44.7238 128.014 50.5972C128.014 51.3318 127.847 51.4943 127.122 51.4962C126.363 51.4962 125.603 51.501 124.844 51.4962C124.302 51.4915 124.114 51.3005 124.084 50.7511C124.084 50.6875 124.084 50.6247 124.084 50.5611C124.084 44.7193 124.082 38.877 124.077 33.034C124.077 32.5493 124.242 32.2119 124.672 32.0019L127.427 32Z" fill="url(#paint4_linear_726_2810)"/>
<path d="M136.541 68.8655C136.392 68.816 136.244 68.76 136.092 68.7172C134.6 68.2962 134.154 67.1567 134.152 65.7796C134.152 65.4944 134.28 65.3329 134.578 65.3348C134.768 65.3348 134.958 65.3348 135.148 65.3348C135.42 65.3443 135.593 65.4659 135.623 65.7577C135.638 65.8984 135.681 66.0362 135.708 66.1759C135.854 66.9115 136.358 67.3895 137.114 67.4057C138.379 67.4332 139.646 67.4465 140.912 67.4057C142.012 67.3686 142.527 66.7166 142.402 65.656C142.341 65.1399 142.028 64.7626 141.515 64.6942C140.438 64.5507 139.353 64.4623 138.277 64.3141C137.345 64.1877 136.402 64.0803 135.498 63.8389C134.834 63.6583 134.44 63.1166 134.277 62.3971C134.105 61.6542 134.145 60.878 134.39 60.1561C134.632 59.4452 135.225 58.9691 135.985 58.8009C136.459 58.686 136.943 58.6169 137.431 58.5946C138.552 58.5642 139.674 58.5642 140.799 58.5946C141.567 58.6146 142.299 58.818 142.887 59.3473C143.677 59.9081 143.765 61.327 143.769 61.8431C143.769 61.8935 143.749 61.9418 143.713 61.9775C143.677 62.0131 143.629 62.0331 143.579 62.0331H142.45C142.399 62.0331 142.351 62.0131 142.315 61.9775C142.28 61.9418 142.26 61.8935 142.26 61.8431C142.266 61.3432 142.116 60.043 140.372 60.0544C139.407 60.0383 138.443 60.0478 137.478 60.0544C137.273 60.0554 137.069 60.078 136.869 60.1219C135.825 60.3567 135.371 61.2833 135.876 62.2394C135.993 62.4599 136.271 62.6937 136.508 62.7345C137.376 62.8837 138.257 62.9655 139.135 63.051C139.966 63.1318 140.807 63.1346 141.63 63.2639C142.421 63.3874 143.138 63.7049 143.592 64.4462C144.197 65.4336 143.99 67.4598 143.098 68.1394C142.641 68.4891 142.024 68.6326 141.484 68.8693L136.541 68.8655Z" fill="url(#paint5_linear_726_2810)"/>
<path d="M111.671 68.875C111.671 68.875 111.647 62.2821 111.651 59.3711C111.651 58.7058 111.767 58.5861 112.416 58.5861C114.233 58.5861 116.054 58.5395 117.868 58.6079C120.216 58.703 120.972 59.8225 121.144 60.4973C121.442 61.6729 121.476 62.821 121.128 63.9985C120.881 64.8311 120.318 65.2987 119.568 65.579C119.212 65.7121 119.213 65.8233 119.413 66.1008C119.913 66.792 120.395 67.4947 120.86 68.2087C120.98 68.3988 121.261 68.874 121.261 68.874C121.261 68.874 120.053 68.8645 119.552 68.8645C118.943 67.9807 118.346 67.0892 117.717 66.2186C117.597 66.0504 117.361 65.866 117.173 65.8603C115.989 65.828 114.799 65.8489 113.618 65.8404C113.304 65.8404 113.204 65.9829 113.208 66.2757C113.216 66.9409 113.195 68.874 113.195 68.874L111.671 68.875ZM115.564 64.4081H115.754C115.754 64.4081 117.576 64.3796 118.465 64.2694C119.279 64.1686 119.672 63.7628 119.77 62.9911C119.825 62.473 119.825 61.9506 119.77 61.4325C119.717 60.8242 119.454 60.1314 117.847 60.0582C116.456 60.0383 115.066 60.0582 113.675 60.044C113.332 60.044 113.194 60.158 113.2 60.5106C113.215 61.6511 113.215 62.7915 113.2 63.932C113.2 64.2951 113.355 64.3958 113.687 64.3891C114.382 64.3701 114.869 64.4081 115.564 64.4081Z" fill="url(#paint6_linear_726_2810)"/>
<path d="M76.2533 68.8655C76.2163 68.6669 76.1451 68.4682 76.1451 68.2696C76.1381 65.2917 76.1381 62.3138 76.1451 59.336C76.1451 58.6346 76.2021 58.6146 76.9047 58.5757C77.4668 58.5424 77.821 58.7439 78.1818 59.1877C80.1597 61.6264 82.1794 64.0347 84.2769 66.5608C84.2911 66.2757 84.3054 66.1217 84.3054 65.964C84.3054 63.7312 84.3054 61.4987 84.3054 59.2666C84.3054 58.6213 84.3471 58.5861 85.0242 58.5852C85.7572 58.5852 85.8588 58.6612 85.8597 59.2846C85.8597 62.2625 85.8597 65.2404 85.8597 68.2183C85.8597 68.435 85.7895 68.6517 85.7515 68.8683H84.2294L77.7346 60.9497C77.7175 61.2643 77.6995 61.4449 77.6995 61.6245C77.6995 63.7743 77.6995 65.924 77.6938 68.0738C77.6938 68.338 77.6226 68.6013 77.5846 68.8655H76.2533Z" fill="url(#paint7_linear_726_2810)"/>
<path d="M65.1437 68.7799L65.1294 58.7058C65.1294 58.6806 65.1394 58.6565 65.1572 58.6386C65.175 58.6208 65.1992 58.6108 65.2244 58.6108L73.6961 58.587C73.7465 58.587 73.7948 58.6071 73.8304 58.6427C73.866 58.6784 73.886 58.7267 73.886 58.7771V59.852C73.886 59.9024 73.866 59.9508 73.8304 59.9864C73.7948 60.022 73.7465 60.0421 73.6961 60.0421L66.6857 60.0364V62.8875H71.5131C71.5635 62.8875 71.6118 62.9076 71.6474 62.9432C71.683 62.9789 71.703 63.0272 71.703 63.0776V64.123C71.703 64.1735 71.683 64.2218 71.6474 64.2574C71.6118 64.2931 71.5635 64.3131 71.5131 64.3131H66.6857V67.4494H73.6971C73.7474 67.4494 73.7957 67.4694 73.8313 67.5051C73.867 67.5407 73.887 67.5891 73.887 67.6395V68.6849C73.887 68.7353 73.867 68.7837 73.8313 68.8193C73.7957 68.8549 73.7474 68.875 73.6971 68.875H65.2386C65.2134 68.875 65.1893 68.865 65.1715 68.8471C65.1537 68.8293 65.1437 68.8051 65.1437 68.7799Z" fill="url(#paint8_linear_726_2810)"/>
<path d="M123.73 68.7799L123.716 58.7058C123.716 58.6806 123.726 58.6565 123.744 58.6386C123.761 58.6208 123.785 58.6108 123.811 58.6108L132.377 58.587C132.403 58.587 132.427 58.597 132.444 58.6149C132.462 58.6327 132.472 58.6569 132.472 58.6821V59.947C132.472 59.9722 132.462 59.9964 132.444 60.0142C132.427 60.0321 132.403 60.0421 132.377 60.0421L125.272 60.0364V62.8875H130.194C130.22 62.8875 130.244 62.8975 130.261 62.9154C130.279 62.9332 130.289 62.9574 130.289 62.9826V64.2181C130.289 64.2433 130.279 64.2675 130.261 64.2853C130.244 64.3031 130.22 64.3131 130.194 64.3131H125.272V67.4494H132.378C132.403 67.4494 132.428 67.4594 132.445 67.4772C132.463 67.4951 132.473 67.5192 132.473 67.5444V68.7799C132.473 68.8051 132.463 68.8293 132.445 68.8471C132.428 68.865 132.403 68.875 132.378 68.875H123.825C123.8 68.875 123.776 68.865 123.758 68.8471C123.74 68.8293 123.73 68.8051 123.73 68.7799Z" fill="url(#paint9_linear_726_2810)"/>
<path d="M101.416 68.8656C100.996 68.6859 100.544 68.5586 100.163 68.3181C99.2603 67.7479 98.965 66.807 98.9451 65.8224C98.8986 63.5909 98.9337 61.3556 98.9261 59.125C98.9261 58.7449 99.0676 58.5548 99.4569 58.5852C99.567 58.5928 99.6781 58.5852 99.7892 58.5852C100.376 58.5947 100.482 58.6945 100.483 59.2838C100.483 61.3575 100.483 63.4312 100.483 65.5059C100.483 66.8897 101.019 67.42 102.412 67.421C103.519 67.421 104.627 67.44 105.735 67.4096C106.079 67.3854 106.417 67.3025 106.733 67.1644C106.892 67.1097 107.03 67.0092 107.132 66.8755C107.233 66.7419 107.293 66.5811 107.303 66.4136C107.348 65.8804 107.459 65.3491 107.464 64.816C107.485 62.9646 107.471 61.1095 107.473 59.259C107.473 58.628 107.519 58.5871 108.148 58.5824C108.908 58.5767 109.024 58.6537 109.026 59.2391C109.026 61.2967 109.059 63.3562 109.015 65.4166C108.992 66.52 108.819 67.6281 107.787 68.3029C107.388 68.5643 106.896 68.6831 106.446 68.8665L101.416 68.8656Z" fill="url(#paint10_linear_726_2810)"/>
<path d="M52.0952 58.6109H53.4995C53.5174 58.6109 53.535 58.616 53.5501 58.6256C53.5652 58.6352 53.5773 58.6489 53.585 58.665C53.7749 59.0728 55.0197 61.6968 55.6208 62.937C56.2855 64.2999 57.6623 67.0845 57.6623 67.0845C57.6623 67.0845 59.3715 63.6555 60.0959 62.115C60.5014 61.2596 61.5259 59.0414 61.6997 58.666C61.7073 58.6495 61.7195 58.6355 61.7348 58.6258C61.7502 58.616 61.7679 58.6108 61.7861 58.6109H63.1895C63.2056 58.6108 63.2215 58.6147 63.2356 58.6224C63.2497 58.6301 63.2617 58.6413 63.2703 58.6549C63.2789 58.6685 63.284 58.684 63.285 58.7001C63.286 58.7162 63.2828 58.7322 63.2759 58.7468L58.5017 68.8656H56.7925L52.0088 58.7458C52.0021 58.7313 51.9991 58.7154 52.0002 58.6994C52.0013 58.6835 52.0064 58.6681 52.015 58.6546C52.0236 58.6412 52.0355 58.6301 52.0495 58.6225C52.0635 58.6148 52.0792 58.6108 52.0952 58.6109Z" fill="url(#paint11_linear_726_2810)"/>
<path d="M91.7305 68.8656C91.6925 68.6347 91.6222 68.4047 91.6213 68.1747C91.6137 65.6903 91.6213 63.207 91.6156 60.7227C91.6156 60.0698 91.5956 60.0498 90.9509 60.0488C90.1125 60.0488 89.275 60.0488 88.4366 60.0488C87.8735 60.0488 87.8232 59.9899 87.8165 59.414C87.8165 59.3028 87.8222 59.1926 87.8165 59.0814C87.8023 58.7468 87.9513 58.5872 88.2913 58.5881C90.9949 58.5919 93.6985 58.5919 96.4022 58.5881C96.7146 58.5881 96.8769 58.7259 96.8665 59.0452C96.8665 59.1241 96.8665 59.204 96.8665 59.2828C96.8665 60.026 96.8485 60.0479 96.0917 60.0498C95.2855 60.0498 94.4775 60.066 93.6732 60.0431C93.2725 60.0317 93.1567 60.1886 93.1586 60.5725C93.1712 62.9928 93.1712 65.4135 93.1586 67.8344C93.1586 68.1794 93.0874 68.5235 93.0503 68.8675L91.7305 68.8656Z" fill="url(#paint12_linear_726_2810)"/>
<path d="M97.3641 45.1305C96.4146 45.1305 95.465 45.1305 94.5155 45.1305C93.9458 45.1305 93.6609 44.8948 93.621 44.3227C93.5888 43.8652 93.5888 43.4059 93.621 42.9484C93.6581 42.3782 93.9458 42.075 94.5288 42.0683C96.4551 42.0474 98.3823 42.0474 100.31 42.0683C100.933 42.0759 101.232 42.4485 101.237 43.0786C101.237 43.4103 101.237 43.7439 101.237 44.0746C101.237 44.89 101.002 45.1276 100.201 45.1305C99.2594 45.1333 98.3117 45.1305 97.3641 45.1305Z" fill="url(#paint13_linear_726_2810)"/>
<defs>
<linearGradient id="paint0_linear_726_2810" x1="52" y1="32" x2="147" y2="69" gradientUnits="userSpaceOnUse">
<stop stop-color="#B556FF"/>
<stop offset="1" stop-color="#FFB059"/>
</linearGradient>
<linearGradient id="paint1_linear_726_2810" x1="52" y1="32" x2="147" y2="69" gradientUnits="userSpaceOnUse">
<stop stop-color="#B556FF"/>
<stop offset="1" stop-color="#FFB059"/>
</linearGradient>
<linearGradient id="paint2_linear_726_2810" x1="52" y1="32" x2="147" y2="69" gradientUnits="userSpaceOnUse">
<stop stop-color="#B556FF"/>
<stop offset="1" stop-color="#FFB059"/>
</linearGradient>
<linearGradient id="paint3_linear_726_2810" x1="52" y1="32" x2="147" y2="69" gradientUnits="userSpaceOnUse">
<stop stop-color="#B556FF"/>
<stop offset="1" stop-color="#FFB059"/>
</linearGradient>
<linearGradient id="paint4_linear_726_2810" x1="52" y1="32" x2="147" y2="69" gradientUnits="userSpaceOnUse">
<stop stop-color="#B556FF"/>
<stop offset="1" stop-color="#FFB059"/>
</linearGradient>
<linearGradient id="paint5_linear_726_2810" x1="52" y1="32" x2="147" y2="69" gradientUnits="userSpaceOnUse">
<stop stop-color="#B556FF"/>
<stop offset="1" stop-color="#FFB059"/>
</linearGradient>
<linearGradient id="paint6_linear_726_2810" x1="52" y1="32" x2="147" y2="69" gradientUnits="userSpaceOnUse">
<stop stop-color="#B556FF"/>
<stop offset="1" stop-color="#FFB059"/>
</linearGradient>
<linearGradient id="paint7_linear_726_2810" x1="52" y1="32" x2="147" y2="69" gradientUnits="userSpaceOnUse">
<stop stop-color="#B556FF"/>
<stop offset="1" stop-color="#FFB059"/>
</linearGradient>
<linearGradient id="paint8_linear_726_2810" x1="52" y1="32" x2="147" y2="69" gradientUnits="userSpaceOnUse">
<stop stop-color="#B556FF"/>
<stop offset="1" stop-color="#FFB059"/>
</linearGradient>
<linearGradient id="paint9_linear_726_2810" x1="52" y1="32" x2="147" y2="69" gradientUnits="userSpaceOnUse">
<stop stop-color="#B556FF"/>
<stop offset="1" stop-color="#FFB059"/>
</linearGradient>
<linearGradient id="paint10_linear_726_2810" x1="52" y1="32" x2="147" y2="69" gradientUnits="userSpaceOnUse">
<stop stop-color="#B556FF"/>
<stop offset="1" stop-color="#FFB059"/>
</linearGradient>
<linearGradient id="paint11_linear_726_2810" x1="52" y1="32" x2="147" y2="69" gradientUnits="userSpaceOnUse">
<stop stop-color="#B556FF"/>
<stop offset="1" stop-color="#FFB059"/>
</linearGradient>
<linearGradient id="paint12_linear_726_2810" x1="52" y1="32" x2="147" y2="69" gradientUnits="userSpaceOnUse">
<stop stop-color="#B556FF"/>
<stop offset="1" stop-color="#FFB059"/>
</linearGradient>
<linearGradient id="paint13_linear_726_2810" x1="52" y1="32" x2="147" y2="69" gradientUnits="userSpaceOnUse">
<stop stop-color="#B556FF"/>
<stop offset="1" stop-color="#FFB059"/>
</linearGradient>
</defs>
</svg>
