<svg width="200" height="100" viewBox="0 0 200 100" fill="none" xmlns="http://www.w3.org/2000/svg">
<path d="M100.1 67C116.668 67 130.1 53.5685 130.1 37C130.1 20.4315 116.668 7 100.1 7C83.5311 7 70.0996 20.4315 70.0996 37C70.0996 53.5685 83.5311 67 100.1 67Z" fill="#1C68F3"/>
<path fill-rule="evenodd" clip-rule="evenodd" d="M118.098 29.9984V39.9984H86.8099C87.491 43.0083 89.1751 45.6972 91.5859 47.6238C93.9967 49.5503 96.9908 50.5999 100.077 50.6004C102.619 50.6011 105.11 49.8894 107.268 48.5461C109.426 47.2029 111.164 45.2817 112.285 43.0007H118.098V51.4171C118.098 52.371 117.719 53.2858 117.045 53.9603C116.37 54.6348 115.456 55.0137 114.502 55.0137H85.6903C85.2177 55.0142 84.7496 54.9216 84.3128 54.7411C83.876 54.5605 83.479 54.2957 83.1446 53.9617C82.8103 53.6276 82.545 53.231 82.364 52.7944C82.183 52.3578 82.0898 51.8898 82.0898 51.4171V29.9984H118.098ZM108.834 43.0007C107.862 44.4268 106.556 45.5936 105.029 46.3996C103.503 47.2055 101.803 47.6262 100.077 47.6249C98.3514 47.6256 96.6519 47.2046 95.1263 46.3987C93.6006 45.5928 92.295 44.4263 91.323 43.0007H108.834ZM92.4004 32.3987C91.0509 32.395 89.7454 32.8786 88.7239 33.7606C87.7024 34.6426 87.0337 35.8637 86.8406 37.1993H89.9081C90.0774 36.6767 90.408 36.2212 90.8523 35.8981C91.2966 35.575 91.8319 35.401 92.3813 35.401C92.9306 35.401 93.4659 35.575 93.9102 35.8981C94.3545 36.2212 94.6851 36.6767 94.8544 37.1993H97.9219C97.7298 35.8702 97.0666 34.6543 96.0531 33.7731C95.0397 32.892 93.7434 32.4042 92.4004 32.3987ZM107.799 32.3987C106.453 32.3988 105.151 32.8842 104.134 33.7659C103.116 34.6476 102.45 35.8666 102.259 37.1993H105.326C105.496 36.677 105.827 36.2218 106.271 35.8988C106.715 35.5758 107.25 35.4016 107.799 35.401C108.349 35.4008 108.885 35.5746 109.33 35.8977C109.775 36.2208 110.106 36.6764 110.276 37.1993H113.344C113.151 35.8663 112.484 34.6472 111.466 33.7656C110.448 32.8839 109.146 32.3987 107.799 32.3987ZM114.502 19.0015C114.974 19.0015 115.442 19.0946 115.879 19.2756C116.316 19.4566 116.712 19.7219 117.046 20.0563C117.38 20.3906 117.645 20.7876 117.826 21.2244C118.006 21.6612 118.099 22.1293 118.098 22.6019V26.9999H82.1014V22.6019C82.1009 22.129 82.1936 21.6605 82.3744 21.2235C82.5552 20.7864 82.8203 20.3893 83.1548 20.0549C83.4892 19.7205 83.8863 19.4553 84.3234 19.2745C84.7604 19.0937 85.2289 19.001 85.7018 19.0015H114.502Z" fill="white"/>
<path d="M109.785 79.7915C112.235 79.7915 115.015 80.7424 115.18 83.7869H111.764C111.691 82.9088 110.882 82.5024 109.812 82.5024C108.815 82.5024 108.363 82.8858 108.363 83.3344C108.363 83.7179 108.65 84.0745 109.551 84.2393L111.714 84.596C113.876 84.9986 115.303 86.0453 115.303 88.0929C115.303 90.7539 112.903 91.9924 109.908 91.9924C106.913 91.9924 104.44 90.7309 104.202 87.6634L107.626 87.6864C107.791 88.6872 108.623 89.1397 109.835 89.1397C110.859 89.1397 111.476 88.8291 111.476 88.3306C111.476 87.9472 111.12 87.6404 110.36 87.5215L108.029 87.1151C106.035 86.7854 104.655 85.6657 104.655 83.6642C104.655 81.237 106.722 79.8107 109.789 79.8107L109.785 79.7915ZM95.4102 79.8912C96.5237 79.8726 97.6186 80.1776 98.562 80.7693V80.1749H102.396V91.678H98.562V91.0377C97.6186 91.6293 96.5237 91.9343 95.4102 91.9157C92.3082 91.9157 89.7009 89.3314 89.7009 85.915C89.7009 82.4985 92.3082 79.9142 95.4102 79.9142V79.8912ZM72.9639 75.4932L78.7154 84.086L84.4286 75.4932H87.4156V91.5975H83.3895V83.5262L79.812 89.0438V89.0668H77.5804V89.0438L73.98 83.4801L74.003 91.6013H69.9961V75.497L72.9639 75.4932ZM121.238 74.7915V84.4311L125.245 80.1251H129.82L125.46 84.8068L130.199 91.6013H125.598L122.849 87.6251L121.235 89.3505V91.6013H117.4V74.8068L121.238 74.7915ZM96.1694 83.0239C94.605 83.0239 93.4662 84.3045 93.4662 85.8919C93.4497 86.258 93.5072 86.6237 93.6354 86.967C93.7636 87.3103 93.9598 87.6242 94.2122 87.8899C94.4646 88.1556 94.7681 88.3675 95.1044 88.5131C95.4407 88.6587 95.803 88.7348 96.1694 88.7371C96.6233 88.7551 97.0753 88.6684 97.4902 88.4835C97.9052 88.2987 98.2719 88.0207 98.562 87.6711V84.1128C98.2721 83.762 97.9058 83.4822 97.4911 83.2948C97.0764 83.1074 96.6243 83.0173 96.1694 83.0315V83.0239Z" fill="#1C68F3"/>
</svg>
