<svg width="200" height="100" viewBox="0 0 200 100" fill="none" xmlns="http://www.w3.org/2000/svg">
<g clip-path="url(#clip0_726_2824)">
<path d="M100.031 30.4524L115.49 14.9933C111.002 11.7375 105.6 9.98425 100.056 9.98425C94.5123 9.98425 89.1103 11.7375 84.6229 14.9933L100.031 30.4524Z" fill="#4285F4"/>
<path d="M121.297 20.8472L105.838 36.3063L121.297 51.7654C124.553 47.2781 126.306 41.8761 126.306 36.332C126.306 30.788 124.553 25.3861 121.297 20.8987V20.8472Z" fill="#FBBC05"/>
<path d="M94.2024 36.2805L78.7432 20.8214C75.4875 25.3087 73.7343 30.7108 73.7343 36.2548C73.7343 41.7988 75.4875 47.2008 78.7432 51.6881L94.2024 36.2805Z" fill="#34A853"/>
<path d="M100.031 42.1086L84.5714 57.5678C89.0587 60.8235 94.4607 62.5768 100.005 62.5768C105.549 62.5768 110.951 60.8235 115.438 57.5678L100.031 42.1086Z" fill="#EA4335"/>
</g>
<path d="M52.8418 73.4894L55.8017 78.431H55.9067L58.8797 73.4894H61.6558L57.5146 80.2364L61.7214 86.9834H58.8994L55.9067 82.0747H55.8017L52.8089 86.9834H50L54.2462 80.2364L50.0525 73.4894H52.8418Z" fill="#1F263B"/>
<path d="M67.9829 87.181C66.9984 87.181 66.1453 86.9636 65.4233 86.5287C64.7014 86.0939 64.1414 85.4855 63.7432 84.7036C63.3494 83.9217 63.1526 83.0081 63.1526 81.9626C63.1526 80.9172 63.3494 80.0014 63.7432 79.2151C64.1414 78.4288 64.7014 77.8183 65.4233 77.3834C66.1453 76.9485 66.9984 76.7311 67.9829 76.7311C68.9673 76.7311 69.8205 76.9485 70.5424 77.3834C71.2644 77.8183 71.8222 78.4288 72.216 79.2151C72.6141 80.0014 72.8132 80.9172 72.8132 81.9626C72.8132 83.0081 72.6141 83.9217 72.216 84.7036C71.8222 85.4855 71.2644 86.0939 70.5424 86.5287C69.8205 86.9636 68.9673 87.181 67.9829 87.181ZM67.996 85.2703C68.5298 85.2703 68.9761 85.1231 69.3349 84.8288C69.6936 84.5301 69.9605 84.1304 70.1355 83.6296C70.3149 83.1289 70.4046 82.571 70.4046 81.9561C70.4046 81.3367 70.3149 80.7767 70.1355 80.2759C69.9605 79.7708 69.6936 79.3688 69.3349 79.0701C68.9761 78.7714 68.5298 78.6221 67.996 78.6221C67.4491 78.6221 66.9941 78.7714 66.6309 79.0701C66.2721 79.3688 66.0031 79.7708 65.8237 80.2759C65.6487 80.7767 65.5612 81.3367 65.5612 81.9561C65.5612 82.571 65.6487 83.1289 65.8237 83.6296C66.0031 84.1304 66.2721 84.5301 66.6309 84.8288C66.9941 85.1231 67.4491 85.2703 67.996 85.2703Z" fill="#1F263B"/>
<path d="M79.8737 87.181C78.8893 87.181 78.0361 86.9636 77.3142 86.5287C76.5922 86.0939 76.0322 85.4855 75.634 84.7036C75.2403 83.9217 75.0434 83.0081 75.0434 81.9626C75.0434 80.9172 75.2403 80.0014 75.634 79.2151C76.0322 78.4288 76.5922 77.8183 77.3142 77.3834C78.0361 76.9485 78.8893 76.7311 79.8737 76.7311C80.8582 76.7311 81.7113 76.9485 82.4333 77.3834C83.1552 77.8183 83.713 78.4288 84.1068 79.2151C84.505 80.0014 84.7041 80.9172 84.7041 81.9626C84.7041 83.0081 84.505 83.9217 84.1068 84.7036C83.713 85.4855 83.1552 86.0939 82.4333 86.5287C81.7113 86.9636 80.8582 87.181 79.8737 87.181ZM79.8868 85.2703C80.4206 85.2703 80.8669 85.1231 81.2257 84.8288C81.5845 84.5301 81.8514 84.1304 82.0264 83.6296C82.2058 83.1289 82.2954 82.571 82.2954 81.9561C82.2954 81.3367 82.2058 80.7767 82.0264 80.2759C81.8514 79.7708 81.5845 79.3688 81.2257 79.0701C80.8669 78.7714 80.4206 78.6221 79.8868 78.6221C79.3399 78.6221 78.8849 78.7714 78.5217 79.0701C78.163 79.3688 77.8939 79.7708 77.7145 80.2759C77.5395 80.7767 77.452 81.3367 77.452 81.9561C77.452 82.571 77.5395 83.1289 77.7145 83.6296C77.8939 84.1304 78.163 84.5301 78.5217 84.8288C78.8849 85.1231 79.3399 85.2703 79.8868 85.2703Z" fill="#1F263B"/>
<path d="M91.7514 90.9894C90.8982 90.9894 90.1654 90.873 89.5528 90.6402C88.9403 90.4118 88.4481 90.1043 88.0762 89.7177C87.7043 89.3312 87.4461 88.9029 87.3017 88.4329L89.4413 87.9124C89.5375 88.1101 89.6775 88.3055 89.8613 88.4988C90.0451 88.6965 90.2923 88.859 90.6029 88.9864C90.9179 89.1181 91.3139 89.184 91.7908 89.184C92.4646 89.184 93.0224 89.0193 93.4644 88.6899C93.9063 88.3648 94.1272 87.8289 94.1272 87.0822V85.1648H94.0091C93.8866 85.4108 93.7072 85.6634 93.4709 85.9225C93.239 86.1817 92.9306 86.3991 92.5455 86.5748C92.1649 86.7505 91.6858 86.8384 91.1082 86.8384C90.3338 86.8384 89.6316 86.6561 89.0015 86.2915C88.3759 85.9226 87.8771 85.3735 87.5052 84.6443C87.1377 83.9108 86.9539 82.9927 86.9539 81.8902C86.9539 80.7789 87.1377 79.841 87.5052 79.0767C87.8771 78.308 88.3781 77.726 89.0081 77.3307C89.6381 76.931 90.3404 76.7311 91.1148 76.7311C91.7055 76.7311 92.1911 76.8321 92.5718 77.0342C92.9568 77.2318 93.2631 77.4712 93.4906 77.7524C93.7181 78.0291 93.8909 78.2905 94.0091 78.5364H94.1403V76.8629H96.4833V87.1481C96.4833 88.0134 96.2777 88.7294 95.8664 89.296C95.4551 89.8627 94.8929 90.2866 94.1797 90.5677C93.4665 90.8488 92.6571 90.9894 91.7514 90.9894ZM91.7711 84.9672C92.2743 84.9672 92.703 84.8442 93.0574 84.5982C93.4118 84.3522 93.6809 83.9986 93.8647 83.5374C94.0485 83.0762 94.1403 82.5227 94.1403 81.877C94.1403 81.2401 94.0485 80.6822 93.8647 80.2034C93.6853 79.7246 93.4184 79.3535 93.064 79.0899C92.714 78.822 92.283 78.688 91.7711 78.688C91.2417 78.688 90.7998 78.8264 90.4454 79.1031C90.091 79.3798 89.8241 79.7598 89.6447 80.243C89.4653 80.7217 89.3756 81.2664 89.3756 81.877C89.3756 82.4963 89.4653 83.0388 89.6447 83.5044C89.8285 83.9657 90.0976 84.3259 90.452 84.585C90.8107 84.8398 91.2504 84.9672 91.7711 84.9672Z" fill="#1F263B"/>
<path d="M101.941 73.4894V86.9834H99.565V73.4894H101.941Z" fill="#1F263B"/>
<path d="M109.494 87.181C108.483 87.181 107.61 86.9702 106.875 86.5485C106.144 86.1224 105.582 85.5206 105.188 84.7431C104.794 83.9613 104.598 83.041 104.598 81.9824C104.598 80.9414 104.794 80.0277 105.188 79.2415C105.586 78.4508 106.142 77.8358 106.855 77.3966C107.568 76.9529 108.406 76.7311 109.369 76.7311C109.99 76.7311 110.576 76.8321 111.128 77.0342C111.683 77.2318 112.173 77.5393 112.598 77.9566C113.027 78.3739 113.363 78.9054 113.608 79.5511C113.854 80.1924 113.976 80.9567 113.976 81.844V82.5754H105.713V80.9677H111.699C111.694 80.5109 111.596 80.1046 111.403 79.7488C111.211 79.3886 110.942 79.1053 110.596 78.8988C110.255 78.6924 109.857 78.5892 109.402 78.5892C108.916 78.5892 108.489 78.7078 108.122 78.945C107.754 79.1778 107.468 79.4852 107.262 79.8674C107.061 80.2452 106.958 80.6603 106.954 81.1127V82.5161C106.954 83.1047 107.061 83.6099 107.275 84.0315C107.49 84.4488 107.789 84.7695 108.174 84.9935C108.559 85.2132 109.01 85.323 109.526 85.323C109.872 85.323 110.185 85.2746 110.465 85.178C110.745 85.077 110.988 84.9298 111.193 84.7366C111.399 84.5433 111.554 84.3039 111.659 84.0184L113.878 84.2687C113.738 84.8574 113.471 85.3713 113.077 85.8105C112.687 86.2454 112.189 86.5836 111.581 86.8252C110.972 87.0624 110.277 87.181 109.494 87.181Z" fill="#1F263B"/>
<path d="M116.633 86.9834V76.8629H118.936V78.5496H119.041C119.225 77.9654 119.54 77.5152 119.986 77.1989C120.437 76.8782 120.951 76.7179 121.529 76.7179C121.66 76.7179 121.807 76.7245 121.968 76.7377C122.135 76.7465 122.273 76.7618 122.382 76.7838V78.9779C122.281 78.9428 122.122 78.912 121.903 78.8857C121.688 78.8549 121.481 78.8395 121.279 78.8395C120.846 78.8395 120.457 78.934 120.111 79.1229C119.77 79.3073 119.501 79.5643 119.304 79.8937C119.107 80.2232 119.009 80.6031 119.009 81.0336V86.9834H116.633Z" fill="#1F263B"/>
<path d="M124.916 87.1283C124.517 87.1283 124.176 86.9877 123.892 86.7066C123.607 86.4255 123.467 86.0829 123.472 85.6788C123.467 85.2834 123.607 84.9452 123.892 84.6641C124.176 84.383 124.517 84.2424 124.916 84.2424C125.301 84.2424 125.635 84.383 125.92 84.6641C126.209 84.9452 126.355 85.2834 126.359 85.6788C126.355 85.9467 126.285 86.1905 126.149 86.4101C126.018 86.6298 125.843 86.8055 125.624 86.9372C125.41 87.0646 125.174 87.1283 124.916 87.1283Z" fill="#1F263B"/>
<path d="M133.856 87.181C132.85 87.181 131.986 86.9592 131.264 86.5155C130.546 86.0719 129.993 85.4591 129.604 84.6773C129.219 83.891 129.026 82.9861 129.026 81.9626C129.026 80.9348 129.223 80.0277 129.617 79.2415C130.01 78.4508 130.566 77.8358 131.284 77.3966C132.006 76.9529 132.859 76.7311 133.843 76.7311C134.661 76.7311 135.386 76.8826 136.016 77.1857C136.65 77.4844 137.155 77.9083 137.532 78.4574C137.908 79.0021 138.122 79.639 138.175 80.3681H135.904C135.812 79.8806 135.593 79.4743 135.248 79.1492C134.906 78.8198 134.449 78.655 133.876 78.655C133.39 78.655 132.964 78.7868 132.596 79.0504C132.229 79.3095 131.942 79.6829 131.737 80.1705C131.535 80.6581 131.435 81.2423 131.435 81.9231C131.435 82.6127 131.535 83.2057 131.737 83.7021C131.938 84.1941 132.22 84.574 132.583 84.842C132.951 85.1055 133.382 85.2373 133.876 85.2373C134.226 85.2373 134.539 85.1714 134.815 85.0396C135.095 84.9035 135.329 84.708 135.517 84.4532C135.705 84.1985 135.834 83.8888 135.904 83.5242H138.175C138.118 84.2402 137.908 84.8749 137.545 85.4284C137.182 85.9775 136.687 86.4079 136.062 86.7198C135.436 87.0273 134.701 87.181 133.856 87.181Z" fill="#1F263B"/>
<path d="M145.17 87.181C144.185 87.181 143.332 86.9636 142.61 86.5287C141.888 86.0939 141.328 85.4855 140.93 84.7036C140.536 83.9217 140.339 83.0081 140.339 81.9626C140.339 80.9172 140.536 80.0014 140.93 79.2151C141.328 78.4288 141.888 77.8183 142.61 77.3834C143.332 76.9485 144.185 76.7311 145.17 76.7311C146.154 76.7311 147.007 76.9485 147.729 77.3834C148.451 77.8183 149.009 78.4288 149.403 79.2151C149.801 80.0014 150 80.9172 150 81.9626C150 83.0081 149.801 83.9217 149.403 84.7036C149.009 85.4855 148.451 86.0939 147.729 86.5287C147.007 86.9636 146.154 87.181 145.17 87.181ZM145.183 85.2703C145.717 85.2703 146.163 85.1231 146.522 84.8288C146.88 84.5301 147.147 84.1304 147.322 83.6296C147.502 83.1289 147.591 82.571 147.591 81.9561C147.591 81.3367 147.502 80.7767 147.322 80.2759C147.147 79.7708 146.88 79.3688 146.522 79.0701C146.163 78.7714 145.717 78.6221 145.183 78.6221C144.636 78.6221 144.181 78.7714 143.818 79.0701C143.459 79.3688 143.19 79.7708 143.01 80.2759C142.835 80.7767 142.748 81.3367 142.748 81.9561C142.748 82.571 142.835 83.1289 143.01 83.6296C143.19 84.1304 143.459 84.5301 143.818 84.8288C144.181 85.1231 144.636 85.2703 145.183 85.2703Z" fill="#1F263B"/>
<defs>
<clipPath id="clip0_726_2824">
<rect width="52.561" height="52.561" fill="white" transform="translate(73.75 10)"/>
</clipPath>
</defs>
</svg>
