<svg width="200" height="100" viewBox="0 0 200 100" fill="none" xmlns="http://www.w3.org/2000/svg">
<path fill-rule="evenodd" clip-rule="evenodd" d="M99.0341 9.76074C81.5981 9.76074 67.4635 23.8954 67.4635 41.3313C67.4635 58.7673 81.5981 72.9019 99.0341 72.9019C116.47 72.9019 130.605 58.7673 130.605 41.3313C130.605 23.8954 116.47 9.76074 99.0341 9.76074ZM66.7028 41.3313C66.7028 23.4752 81.178 9 99.0341 9C116.89 9 131.365 23.4752 131.365 41.3313C131.365 59.1874 116.89 73.6626 99.0341 73.6626C81.178 73.6626 66.7028 59.1874 66.7028 41.3313Z" fill="#5ECDFF"/>
<path fill-rule="evenodd" clip-rule="evenodd" d="M98.7805 9.76074C90.1676 9.76074 83.1854 16.7429 83.1854 25.3558C83.1854 33.9688 90.1676 40.951 98.7805 40.951C107.393 40.951 114.376 33.9688 114.376 25.3558C114.376 16.7429 107.393 9.76074 98.7805 9.76074ZM82.4247 25.3558C82.4247 16.3228 89.7474 9 98.7805 9C107.814 9 115.136 16.3228 115.136 25.3558C115.136 34.3889 107.814 41.7117 98.7805 41.7117C89.7474 41.7117 82.4247 34.3889 82.4247 25.3558Z" fill="#5ECDFF"/>
<path fill-rule="evenodd" clip-rule="evenodd" d="M98.7805 41.7117C90.1676 41.7117 83.1854 48.6938 83.1854 57.3068C83.1854 65.9197 90.1676 72.9019 98.7805 72.9019C107.393 72.9019 114.376 65.9197 114.376 57.3068C114.376 48.6938 107.393 41.7117 98.7805 41.7117ZM82.4247 57.3068C82.4247 48.2737 89.7474 40.9509 98.7805 40.9509C107.814 40.9509 115.136 48.2737 115.136 57.3068C115.136 66.3399 107.814 73.6626 98.7805 73.6626C89.7474 73.6626 82.4247 66.3399 82.4247 57.3068Z" fill="#5ECDFF"/>
<path fill-rule="evenodd" clip-rule="evenodd" d="M98.7805 25.9897C90.1676 25.9897 83.1854 32.9719 83.1854 41.5848C83.1854 50.1978 90.1676 57.18 98.7805 57.18C107.393 57.18 114.376 50.1978 114.376 41.5848C114.376 32.9719 107.393 25.9897 98.7805 25.9897ZM82.4247 41.5848C82.4247 32.5518 89.7474 25.229 98.7805 25.229C107.814 25.229 115.136 32.5518 115.136 41.5848C115.136 50.6179 107.814 57.9407 98.7805 57.9407C89.7474 57.9407 82.4247 50.6179 82.4247 41.5848Z" fill="#5ECDFF"/>
<mask id="path-5-outside-1_726_2817" maskUnits="userSpaceOnUse" x="49" y="83.9774" width="102" height="7" fill="black">
<rect fill="white" x="49" y="83.9774" width="102" height="7"/>
<path d="M50 90.0186H52.1727C53.7844 90.0186 54.8849 89.0245 54.8849 87.5335C54.8849 86.0424 53.7844 85.0484 52.1727 85.0484H50V90.0186ZM50.923 89.2375V85.8294H52.1301C53.2377 85.8294 53.9548 86.504 53.9548 87.5335C53.9548 88.563 53.2377 89.2375 52.1301 89.2375H50.923Z"/>
<path d="M56.931 90.0186H57.8541V85.0484H56.931V90.0186Z"/>
<path d="M61.8042 90.0896C63.1674 90.0896 63.8135 89.4079 63.8135 88.6127C63.8135 86.788 60.8669 87.4767 60.8669 86.4188C60.8669 86.0424 61.1793 85.7442 61.9462 85.7442C62.3793 85.7442 62.8692 85.872 63.3165 86.1348L63.6076 85.4176C63.1745 85.1336 62.5497 84.9774 61.9533 84.9774C60.59 84.9774 59.951 85.659 59.951 86.4614C59.951 88.3074 62.9047 87.6045 62.9047 88.6766C62.9047 89.0458 62.5781 89.3227 61.8042 89.3227C61.1935 89.3227 60.5616 89.0955 60.164 88.776L59.8445 89.4932C60.2563 89.8482 61.0302 90.0896 61.8042 90.0896Z"/>
<path d="M66.7327 90.0186H67.6557V85.8294H69.303V85.0484H65.0855V85.8294H66.7327V90.0186Z"/>
<path d="M75.3067 90.0186L74.1635 88.3855C74.838 88.1228 75.2215 87.569 75.2215 86.8164C75.2215 85.7158 74.412 85.0484 73.1056 85.0484H71.0607V90.0186H71.9838V88.5701H73.1056C73.1695 88.5701 73.2334 88.5701 73.2973 88.563L74.3126 90.0186H75.3067ZM74.2913 86.8164C74.2913 87.4412 73.8724 87.8104 73.063 87.8104H71.9838V85.8294H73.063C73.8724 85.8294 74.2913 86.1916 74.2913 86.8164Z"/>
<path d="M77.3192 90.0186H78.2422V85.0484H77.3192V90.0186Z"/>
<path d="M84.1733 87.4341C84.5567 87.2282 84.8123 86.8519 84.8123 86.3407C84.8123 85.5525 84.1733 85.0484 82.9804 85.0484H80.6516V90.0186H83.1224C84.4005 90.0186 85.0679 89.5216 85.0679 88.6695C85.0679 88.0234 84.7058 87.6045 84.1733 87.4341ZM82.881 85.7726C83.52 85.7726 83.8822 85.9998 83.8822 86.4614C83.8822 86.9158 83.52 87.143 82.881 87.143H81.5746V85.7726H82.881ZM83.0656 89.2943H81.5746V87.8601H83.0656C83.7615 87.8601 84.1378 88.0802 84.1378 88.5772C84.1378 89.0742 83.7615 89.2943 83.0656 89.2943Z"/>
<path d="M89.2552 90.0896C90.6113 90.0896 91.4279 89.3014 91.4279 87.853V85.0484H90.519V87.8175C90.519 88.8399 90.0646 89.2801 89.2623 89.2801C88.46 89.2801 87.9985 88.8399 87.9985 87.8175V85.0484H87.0754V87.853C87.0754 89.3014 87.8919 90.0896 89.2552 90.0896Z"/>
<path d="M94.7037 90.0186H95.6267V85.8294H97.2739V85.0484H93.0564V85.8294H94.7037V90.0186Z"/>
<path d="M99.9547 89.2446V87.8743H102.355V87.1146H99.9547V85.8223H102.66V85.0484H99.0317V90.0186H102.759V89.2446H99.9547Z"/>
<path d="M104.853 90.0186H107.026C108.638 90.0186 109.738 89.0245 109.738 87.5335C109.738 86.0424 108.638 85.0484 107.026 85.0484H104.853V90.0186ZM105.776 89.2375V85.8294H106.983C108.091 85.8294 108.808 86.504 108.808 87.5335C108.808 88.563 108.091 89.2375 106.983 89.2375H105.776Z"/>
<path d="M118.206 89.0245C117.886 89.2091 117.538 89.2801 117.183 89.2801C116.132 89.2801 115.387 88.5417 115.387 87.5335C115.387 86.504 116.132 85.7868 117.19 85.7868C117.723 85.7868 118.17 85.9643 118.561 86.3549L119.143 85.7868C118.674 85.2543 117.978 84.9774 117.148 84.9774C115.593 84.9774 114.457 86.0495 114.457 87.5335C114.457 89.0174 115.593 90.0896 117.133 90.0896C117.836 90.0896 118.561 89.8766 119.079 89.4577V87.4767H118.206V89.0245Z"/>
<path d="M121.361 90.0186H124.883V89.2375H122.284V85.0484H121.361V90.0186Z"/>
<path d="M128.908 90.0896C130.449 90.0896 131.585 89.0103 131.585 87.5335C131.585 86.0566 130.449 84.9774 128.908 84.9774C127.368 84.9774 126.232 86.0637 126.232 87.5335C126.232 89.0032 127.368 90.0896 128.908 90.0896ZM128.908 89.2801C127.907 89.2801 127.162 88.5488 127.162 87.5335C127.162 86.5182 127.907 85.7868 128.908 85.7868C129.91 85.7868 130.655 86.5182 130.655 87.5335C130.655 88.5488 129.91 89.2801 128.908 89.2801Z"/>
<path d="M137.15 87.4341C137.534 87.2282 137.789 86.8519 137.789 86.3407C137.789 85.5525 137.15 85.0484 135.957 85.0484H133.629V90.0186H136.099C137.377 90.0186 138.045 89.5216 138.045 88.6695C138.045 88.0234 137.683 87.6045 137.15 87.4341ZM135.858 85.7726C136.497 85.7726 136.859 85.9998 136.859 86.4614C136.859 86.9158 136.497 87.143 135.858 87.143H134.552V85.7726H135.858ZM136.043 89.2943H134.552V87.8601H136.043C136.738 87.8601 137.115 88.0802 137.115 88.5772C137.115 89.0742 136.738 89.2943 136.043 89.2943Z"/>
<path d="M143.816 90.0186H144.781L142.538 85.0484H141.629L139.392 90.0186H140.344L140.833 88.8683H143.319L143.816 90.0186ZM141.146 88.1441L142.076 85.9714L143.013 88.1441H141.146Z"/>
<path d="M146.478 90.0186H150V89.2375H147.401V85.0484H146.478V90.0186Z"/>
</mask>
<path d="M50 90.0186H52.1727C53.7844 90.0186 54.8849 89.0245 54.8849 87.5335C54.8849 86.0424 53.7844 85.0484 52.1727 85.0484H50V90.0186ZM50.923 89.2375V85.8294H52.1301C53.2377 85.8294 53.9548 86.504 53.9548 87.5335C53.9548 88.563 53.2377 89.2375 52.1301 89.2375H50.923Z" fill="#1F263B"/>
<path d="M56.931 90.0186H57.8541V85.0484H56.931V90.0186Z" fill="#1F263B"/>
<path d="M61.8042 90.0896C63.1674 90.0896 63.8135 89.4079 63.8135 88.6127C63.8135 86.788 60.8669 87.4767 60.8669 86.4188C60.8669 86.0424 61.1793 85.7442 61.9462 85.7442C62.3793 85.7442 62.8692 85.872 63.3165 86.1348L63.6076 85.4176C63.1745 85.1336 62.5497 84.9774 61.9533 84.9774C60.59 84.9774 59.951 85.659 59.951 86.4614C59.951 88.3074 62.9047 87.6045 62.9047 88.6766C62.9047 89.0458 62.5781 89.3227 61.8042 89.3227C61.1935 89.3227 60.5616 89.0955 60.164 88.776L59.8445 89.4932C60.2563 89.8482 61.0302 90.0896 61.8042 90.0896Z" fill="#1F263B"/>
<path d="M66.7327 90.0186H67.6557V85.8294H69.303V85.0484H65.0855V85.8294H66.7327V90.0186Z" fill="#1F263B"/>
<path d="M75.3067 90.0186L74.1635 88.3855C74.838 88.1228 75.2215 87.569 75.2215 86.8164C75.2215 85.7158 74.412 85.0484 73.1056 85.0484H71.0607V90.0186H71.9838V88.5701H73.1056C73.1695 88.5701 73.2334 88.5701 73.2973 88.563L74.3126 90.0186H75.3067ZM74.2913 86.8164C74.2913 87.4412 73.8724 87.8104 73.063 87.8104H71.9838V85.8294H73.063C73.8724 85.8294 74.2913 86.1916 74.2913 86.8164Z" fill="#1F263B"/>
<path d="M77.3192 90.0186H78.2422V85.0484H77.3192V90.0186Z" fill="#1F263B"/>
<path d="M84.1733 87.4341C84.5567 87.2282 84.8123 86.8519 84.8123 86.3407C84.8123 85.5525 84.1733 85.0484 82.9804 85.0484H80.6516V90.0186H83.1224C84.4005 90.0186 85.0679 89.5216 85.0679 88.6695C85.0679 88.0234 84.7058 87.6045 84.1733 87.4341ZM82.881 85.7726C83.52 85.7726 83.8822 85.9998 83.8822 86.4614C83.8822 86.9158 83.52 87.143 82.881 87.143H81.5746V85.7726H82.881ZM83.0656 89.2943H81.5746V87.8601H83.0656C83.7615 87.8601 84.1378 88.0802 84.1378 88.5772C84.1378 89.0742 83.7615 89.2943 83.0656 89.2943Z" fill="#1F263B"/>
<path d="M89.2552 90.0896C90.6113 90.0896 91.4279 89.3014 91.4279 87.853V85.0484H90.519V87.8175C90.519 88.8399 90.0646 89.2801 89.2623 89.2801C88.46 89.2801 87.9985 88.8399 87.9985 87.8175V85.0484H87.0754V87.853C87.0754 89.3014 87.8919 90.0896 89.2552 90.0896Z" fill="#1F263B"/>
<path d="M94.7037 90.0186H95.6267V85.8294H97.2739V85.0484H93.0564V85.8294H94.7037V90.0186Z" fill="#1F263B"/>
<path d="M99.9547 89.2446V87.8743H102.355V87.1146H99.9547V85.8223H102.66V85.0484H99.0317V90.0186H102.759V89.2446H99.9547Z" fill="#1F263B"/>
<path d="M104.853 90.0186H107.026C108.638 90.0186 109.738 89.0245 109.738 87.5335C109.738 86.0424 108.638 85.0484 107.026 85.0484H104.853V90.0186ZM105.776 89.2375V85.8294H106.983C108.091 85.8294 108.808 86.504 108.808 87.5335C108.808 88.563 108.091 89.2375 106.983 89.2375H105.776Z" fill="#1F263B"/>
<path d="M118.206 89.0245C117.886 89.2091 117.538 89.2801 117.183 89.2801C116.132 89.2801 115.387 88.5417 115.387 87.5335C115.387 86.504 116.132 85.7868 117.19 85.7868C117.723 85.7868 118.17 85.9643 118.561 86.3549L119.143 85.7868C118.674 85.2543 117.978 84.9774 117.148 84.9774C115.593 84.9774 114.457 86.0495 114.457 87.5335C114.457 89.0174 115.593 90.0896 117.133 90.0896C117.836 90.0896 118.561 89.8766 119.079 89.4577V87.4767H118.206V89.0245Z" fill="#1F263B"/>
<path d="M121.361 90.0186H124.883V89.2375H122.284V85.0484H121.361V90.0186Z" fill="#1F263B"/>
<path d="M128.908 90.0896C130.449 90.0896 131.585 89.0103 131.585 87.5335C131.585 86.0566 130.449 84.9774 128.908 84.9774C127.368 84.9774 126.232 86.0637 126.232 87.5335C126.232 89.0032 127.368 90.0896 128.908 90.0896ZM128.908 89.2801C127.907 89.2801 127.162 88.5488 127.162 87.5335C127.162 86.5182 127.907 85.7868 128.908 85.7868C129.91 85.7868 130.655 86.5182 130.655 87.5335C130.655 88.5488 129.91 89.2801 128.908 89.2801Z" fill="#1F263B"/>
<path d="M137.15 87.4341C137.534 87.2282 137.789 86.8519 137.789 86.3407C137.789 85.5525 137.15 85.0484 135.957 85.0484H133.629V90.0186H136.099C137.377 90.0186 138.045 89.5216 138.045 88.6695C138.045 88.0234 137.683 87.6045 137.15 87.4341ZM135.858 85.7726C136.497 85.7726 136.859 85.9998 136.859 86.4614C136.859 86.9158 136.497 87.143 135.858 87.143H134.552V85.7726H135.858ZM136.043 89.2943H134.552V87.8601H136.043C136.738 87.8601 137.115 88.0802 137.115 88.5772C137.115 89.0742 136.738 89.2943 136.043 89.2943Z" fill="#1F263B"/>
<path d="M143.816 90.0186H144.781L142.538 85.0484H141.629L139.392 90.0186H140.344L140.833 88.8683H143.319L143.816 90.0186ZM141.146 88.1441L142.076 85.9714L143.013 88.1441H141.146Z" fill="#1F263B"/>
<path d="M146.478 90.0186H150V89.2375H147.401V85.0484H146.478V90.0186Z" fill="#1F263B"/>
<path d="M50 90.0186H52.1727C53.7844 90.0186 54.8849 89.0245 54.8849 87.5335C54.8849 86.0424 53.7844 85.0484 52.1727 85.0484H50V90.0186ZM50.923 89.2375V85.8294H52.1301C53.2377 85.8294 53.9548 86.504 53.9548 87.5335C53.9548 88.563 53.2377 89.2375 52.1301 89.2375H50.923Z" stroke="#1F263B" stroke-width="0.4" mask="url(#path-5-outside-1_726_2817)"/>
<path d="M56.931 90.0186H57.8541V85.0484H56.931V90.0186Z" stroke="#1F263B" stroke-width="0.4" mask="url(#path-5-outside-1_726_2817)"/>
<path d="M61.8042 90.0896C63.1674 90.0896 63.8135 89.4079 63.8135 88.6127C63.8135 86.788 60.8669 87.4767 60.8669 86.4188C60.8669 86.0424 61.1793 85.7442 61.9462 85.7442C62.3793 85.7442 62.8692 85.872 63.3165 86.1348L63.6076 85.4176C63.1745 85.1336 62.5497 84.9774 61.9533 84.9774C60.59 84.9774 59.951 85.659 59.951 86.4614C59.951 88.3074 62.9047 87.6045 62.9047 88.6766C62.9047 89.0458 62.5781 89.3227 61.8042 89.3227C61.1935 89.3227 60.5616 89.0955 60.164 88.776L59.8445 89.4932C60.2563 89.8482 61.0302 90.0896 61.8042 90.0896Z" stroke="#1F263B" stroke-width="0.4" mask="url(#path-5-outside-1_726_2817)"/>
<path d="M66.7327 90.0186H67.6557V85.8294H69.303V85.0484H65.0855V85.8294H66.7327V90.0186Z" stroke="#1F263B" stroke-width="0.4" mask="url(#path-5-outside-1_726_2817)"/>
<path d="M75.3067 90.0186L74.1635 88.3855C74.838 88.1228 75.2215 87.569 75.2215 86.8164C75.2215 85.7158 74.412 85.0484 73.1056 85.0484H71.0607V90.0186H71.9838V88.5701H73.1056C73.1695 88.5701 73.2334 88.5701 73.2973 88.563L74.3126 90.0186H75.3067ZM74.2913 86.8164C74.2913 87.4412 73.8724 87.8104 73.063 87.8104H71.9838V85.8294H73.063C73.8724 85.8294 74.2913 86.1916 74.2913 86.8164Z" stroke="#1F263B" stroke-width="0.4" mask="url(#path-5-outside-1_726_2817)"/>
<path d="M77.3192 90.0186H78.2422V85.0484H77.3192V90.0186Z" stroke="#1F263B" stroke-width="0.4" mask="url(#path-5-outside-1_726_2817)"/>
<path d="M84.1733 87.4341C84.5567 87.2282 84.8123 86.8519 84.8123 86.3407C84.8123 85.5525 84.1733 85.0484 82.9804 85.0484H80.6516V90.0186H83.1224C84.4005 90.0186 85.0679 89.5216 85.0679 88.6695C85.0679 88.0234 84.7058 87.6045 84.1733 87.4341ZM82.881 85.7726C83.52 85.7726 83.8822 85.9998 83.8822 86.4614C83.8822 86.9158 83.52 87.143 82.881 87.143H81.5746V85.7726H82.881ZM83.0656 89.2943H81.5746V87.8601H83.0656C83.7615 87.8601 84.1378 88.0802 84.1378 88.5772C84.1378 89.0742 83.7615 89.2943 83.0656 89.2943Z" stroke="#1F263B" stroke-width="0.4" mask="url(#path-5-outside-1_726_2817)"/>
<path d="M89.2552 90.0896C90.6113 90.0896 91.4279 89.3014 91.4279 87.853V85.0484H90.519V87.8175C90.519 88.8399 90.0646 89.2801 89.2623 89.2801C88.46 89.2801 87.9985 88.8399 87.9985 87.8175V85.0484H87.0754V87.853C87.0754 89.3014 87.8919 90.0896 89.2552 90.0896Z" stroke="#1F263B" stroke-width="0.4" mask="url(#path-5-outside-1_726_2817)"/>
<path d="M94.7037 90.0186H95.6267V85.8294H97.2739V85.0484H93.0564V85.8294H94.7037V90.0186Z" stroke="#1F263B" stroke-width="0.4" mask="url(#path-5-outside-1_726_2817)"/>
<path d="M99.9547 89.2446V87.8743H102.355V87.1146H99.9547V85.8223H102.66V85.0484H99.0317V90.0186H102.759V89.2446H99.9547Z" stroke="#1F263B" stroke-width="0.4" mask="url(#path-5-outside-1_726_2817)"/>
<path d="M104.853 90.0186H107.026C108.638 90.0186 109.738 89.0245 109.738 87.5335C109.738 86.0424 108.638 85.0484 107.026 85.0484H104.853V90.0186ZM105.776 89.2375V85.8294H106.983C108.091 85.8294 108.808 86.504 108.808 87.5335C108.808 88.563 108.091 89.2375 106.983 89.2375H105.776Z" stroke="#1F263B" stroke-width="0.4" mask="url(#path-5-outside-1_726_2817)"/>
<path d="M118.206 89.0245C117.886 89.2091 117.538 89.2801 117.183 89.2801C116.132 89.2801 115.387 88.5417 115.387 87.5335C115.387 86.504 116.132 85.7868 117.19 85.7868C117.723 85.7868 118.17 85.9643 118.561 86.3549L119.143 85.7868C118.674 85.2543 117.978 84.9774 117.148 84.9774C115.593 84.9774 114.457 86.0495 114.457 87.5335C114.457 89.0174 115.593 90.0896 117.133 90.0896C117.836 90.0896 118.561 89.8766 119.079 89.4577V87.4767H118.206V89.0245Z" stroke="#1F263B" stroke-width="0.4" mask="url(#path-5-outside-1_726_2817)"/>
<path d="M121.361 90.0186H124.883V89.2375H122.284V85.0484H121.361V90.0186Z" stroke="#1F263B" stroke-width="0.4" mask="url(#path-5-outside-1_726_2817)"/>
<path d="M128.908 90.0896C130.449 90.0896 131.585 89.0103 131.585 87.5335C131.585 86.0566 130.449 84.9774 128.908 84.9774C127.368 84.9774 126.232 86.0637 126.232 87.5335C126.232 89.0032 127.368 90.0896 128.908 90.0896ZM128.908 89.2801C127.907 89.2801 127.162 88.5488 127.162 87.5335C127.162 86.5182 127.907 85.7868 128.908 85.7868C129.91 85.7868 130.655 86.5182 130.655 87.5335C130.655 88.5488 129.91 89.2801 128.908 89.2801Z" stroke="#1F263B" stroke-width="0.4" mask="url(#path-5-outside-1_726_2817)"/>
<path d="M137.15 87.4341C137.534 87.2282 137.789 86.8519 137.789 86.3407C137.789 85.5525 137.15 85.0484 135.957 85.0484H133.629V90.0186H136.099C137.377 90.0186 138.045 89.5216 138.045 88.6695C138.045 88.0234 137.683 87.6045 137.15 87.4341ZM135.858 85.7726C136.497 85.7726 136.859 85.9998 136.859 86.4614C136.859 86.9158 136.497 87.143 135.858 87.143H134.552V85.7726H135.858ZM136.043 89.2943H134.552V87.8601H136.043C136.738 87.8601 137.115 88.0802 137.115 88.5772C137.115 89.0742 136.738 89.2943 136.043 89.2943Z" stroke="#1F263B" stroke-width="0.4" mask="url(#path-5-outside-1_726_2817)"/>
<path d="M143.816 90.0186H144.781L142.538 85.0484H141.629L139.392 90.0186H140.344L140.833 88.8683H143.319L143.816 90.0186ZM141.146 88.1441L142.076 85.9714L143.013 88.1441H141.146Z" stroke="#1F263B" stroke-width="0.4" mask="url(#path-5-outside-1_726_2817)"/>
<path d="M146.478 90.0186H150V89.2375H147.401V85.0484H146.478V90.0186Z" stroke="#1F263B" stroke-width="0.4" mask="url(#path-5-outside-1_726_2817)"/>
</svg>
