<svg width="364" height="80" viewBox="0 0 364 80" fill="none" xmlns="http://www.w3.org/2000/svg">
<g id="logo">
<path id="Vector" d="M361.881 15.5654C361.043 13.3608 359.819 11.323 358.266 9.54748C356.766 7.83212 354.93 6.44271 352.87 5.4654C350.825 4.49219 348.587 3.99137 346.322 4.00011H315.743L312.407 17.083H343.077C344.056 17.068 345.026 17.2833 345.906 17.7116C346.759 18.1419 347.523 18.7275 348.159 19.4383C348.821 20.1714 349.337 21.0241 349.679 21.9505C350.029 22.9057 350.207 23.9159 350.202 24.9334V54.2411C350.213 55.2931 350.035 56.3386 349.679 57.3285C349.345 58.2431 348.828 59.0801 348.159 59.7884C347.512 60.4734 346.749 61.04 345.906 61.4628C345.026 61.8911 344.056 62.1065 343.077 62.0915H315.743L312.407 75.2778H346.325C348.591 75.287 350.829 74.7862 352.874 73.8125C354.933 72.8359 356.77 71.4464 358.269 69.7304C359.815 67.969 361.039 65.9496 361.884 63.7647C362.756 61.5321 363.192 59.0897 363.193 56.4372V22.8406C363.209 20.3555 362.764 17.8888 361.881 15.5654Z" fill="#222233"/>
<path id="Vector_2" d="M251.582 37.4409C249.727 35.4492 247.48 33.8624 244.982 32.7803C242.387 31.6553 239.585 31.0849 236.756 31.1058H223.87C221.843 31.1058 220.237 30.495 219.051 29.2734C217.866 28.0517 217.272 26.5691 217.269 24.8253C217.269 23.2922 217.514 22.0709 218.003 21.1615C218.469 20.2781 219.202 19.564 220.098 19.121C221.089 18.6421 222.151 18.3239 223.242 18.1787C224.526 17.9984 225.821 17.9111 227.118 17.9172H251.11V4H221.669C218.876 4 216.326 4.55814 214.022 5.67443C211.783 6.74155 209.786 8.25536 208.154 10.1226C206.517 12.0224 205.239 14.2037 204.383 16.56C203.479 18.9701 203.017 21.5229 203.018 24.0966C203.018 27.7956 203.576 30.9705 204.694 33.6214C205.811 36.2723 207.382 38.4352 209.408 40.11C211.433 41.7848 213.913 43.0061 216.847 43.7738C219.781 44.5414 223.029 44.9253 226.591 44.9253H235.077C237.732 44.9253 239.95 45.6926 241.73 47.2272C243.51 48.7618 244.401 50.8902 244.402 53.6123C244.402 55.0772 244.122 56.3334 243.563 57.3807C243.026 58.3998 242.276 59.2915 241.364 59.9952C240.453 60.6932 239.353 61.2165 238.064 61.5651C236.748 61.9177 235.391 62.0939 234.029 62.0891H205.326V75.2754H237.804C240.738 75.2754 243.393 74.7172 245.769 73.601C248.112 72.5084 250.214 70.9607 251.951 69.0482C253.696 67.1294 255.041 64.8442 255.985 62.1925C256.929 59.5409 257.401 56.6797 257.399 53.6089C257.399 50.3305 256.893 47.3128 255.88 44.5558C254.868 41.7988 253.435 39.4272 251.582 37.4409Z" fill="#222233"/>
<path id="Vector_3" d="M185.484 15.8284C184.521 13.532 183.135 11.4369 181.397 9.65244C179.648 7.88396 177.565 6.47885 175.269 5.51807C172.849 4.49803 170.247 3.98164 167.62 4.0005H134.597L131.146 16.4559H165.527C168.529 16.4559 170.729 17.241 172.126 18.8112C173.523 20.3814 174.222 22.4223 174.222 24.9338C174.222 27.5862 173.523 29.6448 172.126 31.1097C170.729 32.5746 168.529 33.3071 165.527 33.3071H137.027V75.2793H149.597V45.7681H167.62C170.241 45.7886 172.841 45.291 175.269 44.304C177.579 43.3695 179.667 41.9606 181.397 40.1685C183.12 38.3726 184.504 36.2808 185.484 33.9937C186.501 31.6306 187.018 29.0828 187.003 26.5104V23.3696C187.015 20.7788 186.498 18.2126 185.484 15.8284Z" fill="#222233"/>
<path id="Vector_4" d="M1.30855 63.7114C2.1461 65.916 3.37023 67.9538 4.92354 69.7293C6.42342 71.4447 8.25992 72.8341 10.3193 73.8114C12.3643 74.7846 14.6024 75.2854 16.8677 75.2766H46.1107L49.5607 62.1938H20.1163C19.1367 62.2088 18.1673 61.9935 17.2864 61.5652C16.434 61.1353 15.6699 60.5495 15.0334 59.8384C14.3716 59.1053 13.856 58.2527 13.5144 57.3262C13.1635 56.3711 12.9862 55.3609 12.991 54.3434V25.0357C12.9803 23.9837 13.1576 22.9382 13.5144 21.9483C13.8481 21.0337 14.365 20.1967 15.0334 19.4883C15.681 18.8033 16.4435 18.2367 17.2864 17.8139C18.1674 17.386 19.1368 17.171 20.1163 17.1864H46.1152L49.4515 4.00013H16.8677C14.6024 3.99084 12.3641 4.49168 10.3193 5.46541C8.25945 6.44195 6.4228 7.83147 4.92354 9.5475C3.37773 11.3089 2.1541 13.3282 1.30855 15.5132C0.436949 17.7457 0.000769477 20.1882 1.0903e-05 22.8406V56.4384C-0.0166687 58.9226 0.426982 61.3885 1.30855 63.7114Z" fill="#222233"/>
<path id="Vector_5" d="M97.5299 4H83.9097L65.5753 75.2788H67.9182L67.9034 75.3333H93.9775L97.2773 62.7154H81.271L83.3863 53.8226L90.3011 24.7241H91.0338L97.6346 53.8226L100.045 64.3932L102.559 75.2788H115.131L97.5299 4Z" fill="#222233"/>
<path id="Vector_6" d="M286.719 75.3197H273.414L275.181 71.6707C277.166 67.6345 278.685 64.2757 279.741 61.5945C280.796 58.9133 281.664 55.7619 282.346 52.1402C283.029 48.5208 283.37 44.2224 283.37 39.2449C283.37 34.6017 283.06 30.5935 282.44 27.2204C281.819 23.8473 281.044 20.9588 280.114 18.555C279.183 16.1496 277.85 13.1501 276.113 9.55642C275.555 8.56214 274.656 6.71001 273.415 4H286.72C293.168 15.1689 296.392 26.9154 296.392 39.2392C296.392 46.2052 295.555 52.4953 293.88 58.1093C292.205 63.7233 289.818 69.4601 286.719 75.3197Z" fill="#2590FF"/>
</g>
</svg>
