<svg width="32" height="32" viewBox="0 0 32 32" fill="none" xmlns="http://www.w3.org/2000/svg">
<g id="icon/&#229;&#183;&#165;&#228;&#189;&#156;&#229;&#174;&#164;">
<path id="Vector" d="M25.5305 5.5C26.8944 5.5 28 6.59207 28 7.9392V20.6688C28 22.0159 26.8944 23.108 25.5305 23.108L16.8489 23.108V24.8231H22.9943C23.4574 24.8231 23.8328 25.1985 23.8328 25.6615V25.6615C23.8328 26.1246 23.4574 26.5 22.9943 26.5H9.00567C8.54259 26.5 8.1672 26.1246 8.1672 25.6615V25.6615C8.1672 25.1985 8.54259 24.8231 9.00567 24.8231H15.1511V23.1079L6.46947 23.108C5.10561 23.108 4 22.0159 4 20.6688V7.9392C4 6.59207 5.10561 5.5 6.46947 5.5H25.5305ZM25.5305 7.17696H6.46947C6.04327 7.17696 5.69776 7.51824 5.69776 7.9392V20.6688C5.69776 21.0898 6.04327 21.431 6.46947 21.431H25.5305C25.9567 21.431 26.3022 21.0898 26.3022 20.6688V7.9392C26.3022 7.51824 25.9567 7.17696 25.5305 7.17696Z" fill="#222233"/>
<g id="NFT">
<path d="M11.9123 17.4025C12.0455 17.6521 12.3055 17.808 12.5884 17.808V17.808C13.0116 17.808 13.3548 17.4649 13.3548 17.0416V11.613C13.3548 11.2745 13.0803 11 12.7417 11V11C12.4032 11 12.1287 11.2745 12.1287 11.613V15.496L9.97054 11.4156C9.83531 11.1599 9.56979 11 9.28055 11V11C8.84947 11 8.5 11.3495 8.5 11.7806V17.1826C8.5 17.528 8.77998 17.808 9.12536 17.808V17.808C9.47073 17.808 9.75072 17.528 9.75072 17.1826V13.352L11.9123 17.4025Z" fill="#222233"/>
<path d="M15.4946 15.1247C15.4946 15.0382 15.5647 14.968 15.6513 14.968H18.5635C18.8772 14.968 19.1315 14.7137 19.1315 14.4V14.4C19.1315 14.0863 18.8772 13.832 18.5635 13.832H15.6642C15.5523 13.832 15.4617 13.7413 15.4617 13.6295V12.354C15.4617 12.2424 15.5521 12.152 15.6637 12.152H18.5473C18.8654 12.152 19.1233 11.8941 19.1233 11.576V11.576C19.1233 11.2579 18.8654 11 18.5473 11H14.9757C14.6079 11 14.3097 11.2982 14.3097 11.666V17.2156C14.3097 17.5428 14.5749 17.808 14.9021 17.808V17.808C15.2293 17.808 15.4946 17.5428 15.4946 17.2156V15.1247Z" fill="#222233"/>
<path d="M21.439 17.1826C21.439 17.528 21.719 17.808 22.0644 17.808V17.808C22.4098 17.808 22.6898 17.528 22.6898 17.1826V12.3559C22.6898 12.3007 22.7345 12.256 22.7896 12.256H23.872C24.2188 12.256 24.5 11.9748 24.5 11.628V11.628C24.5 11.2812 24.2188 11 23.872 11H20.2732C19.9264 11 19.6452 11.2812 19.6452 11.628V11.628C19.6452 11.9748 19.9264 12.256 20.2732 12.256H21.3401C21.3947 12.256 21.439 12.3003 21.439 12.355V17.1826Z" fill="#222233"/>
</g>
</g>
</svg>
