<svg width="302" height="160" viewBox="0 0 302 160" fill="none" xmlns="http://www.w3.org/2000/svg">
<rect width="302" height="160" rx="8" fill="#FAFAFA"/>
<path d="M114.472 64.2487C113.757 61.5199 111.658 59.3755 108.987 58.6451C104.151 57.3198 84.7487 57.3198 84.7487 57.3198C84.7487 57.3198 65.3471 57.3198 60.5107 58.6451C57.8397 59.3755 55.7407 61.5199 55.0257 64.2487C53.7285 69.1896 53.7285 79.5047 53.7285 79.5047C53.7285 79.5047 53.7285 89.8197 55.0257 94.7607C55.7407 97.4895 57.8397 99.6338 60.5107 100.364C65.3471 101.689 84.7487 101.689 84.7487 101.689C84.7487 101.689 104.151 101.689 108.987 100.364C111.658 99.6338 113.757 97.4895 114.472 94.7607C115.769 89.8197 115.769 79.5047 115.769 79.5047C115.769 79.5047 115.764 69.1896 114.472 64.2487Z" fill="#FF0000"/>
<path d="M78.5397 89.0118L94.6576 79.5056L78.5397 69.9993V89.0118Z" fill="white"/>
<path d="M128.868 86.168L121.902 60.4666H127.98L130.421 72.1172C131.044 74.9869 131.499 77.4339 131.795 79.4583H131.974C132.178 78.0078 132.638 75.5764 133.347 72.159L135.875 60.4666H141.953L134.9 86.168V98.497H128.864V86.168H128.868Z" fill="black"/>
<path d="M143.781 97.6823C142.555 96.8371 141.682 95.5222 141.161 93.7378C140.645 91.9535 140.385 89.5848 140.385 86.6212V82.588C140.385 79.5983 140.681 77.1932 141.274 75.3827C141.866 73.5722 142.79 72.247 144.047 71.4174C145.303 70.5878 146.953 70.1704 148.996 70.1704C151.008 70.1704 152.616 70.593 153.832 71.4383C155.042 72.2835 155.931 73.6087 156.493 75.4036C157.054 77.2036 157.335 79.5983 157.335 82.588V86.6212C157.335 89.5848 157.059 91.9639 156.513 93.7587C155.967 95.5588 155.078 96.8737 153.852 97.7032C152.627 98.5329 150.962 98.9502 148.863 98.9502C146.697 98.9553 145.007 98.5275 143.781 97.6823ZM150.655 93.331C150.992 92.4232 151.166 90.9465 151.166 88.8909V80.235C151.166 78.2419 150.997 76.781 150.655 75.8627C150.313 74.9392 149.716 74.4801 148.857 74.4801C148.03 74.4801 147.443 74.9392 147.106 75.8627C146.764 76.7862 146.595 78.2419 146.595 80.235V88.8909C146.595 90.9465 146.758 92.4283 147.085 93.331C147.412 94.2388 147.999 94.6927 148.857 94.6927C149.716 94.6927 150.313 94.2388 150.655 93.331Z" fill="black"/>
<path d="M177.105 98.5024H172.314L171.783 95.1006H171.65C170.348 97.6676 168.397 98.951 165.792 98.951C163.99 98.951 162.657 98.3458 161.799 97.1407C160.941 95.9301 160.512 94.0415 160.512 91.4745V70.714H166.635V91.1091C166.635 92.351 166.768 93.2326 167.033 93.7598C167.299 94.2866 167.743 94.5526 168.366 94.5526C168.897 94.5526 169.408 94.3858 169.899 94.0519C170.389 93.7178 170.746 93.2952 170.986 92.7841V70.7087H177.105V98.5024Z" fill="black"/>
<path d="M193.739 65.5006H187.661V98.5013H181.671V65.5006H175.593V60.4709H193.739V65.5006Z" fill="black"/>
<path d="M208.508 98.5024H203.717L203.186 95.1006H203.054C201.751 97.6676 199.8 98.951 197.196 98.951C195.393 98.951 194.06 98.3458 193.202 97.1407C192.344 95.9301 191.915 94.0415 191.915 91.4745V70.714H198.039V91.1091C198.039 92.351 198.171 93.2326 198.437 93.7598C198.702 94.2866 199.147 94.5526 199.77 94.5526C200.301 94.5526 200.812 94.3858 201.302 94.0519C201.792 93.7178 202.15 93.2952 202.39 92.7841V70.7087H208.508V98.5024Z" fill="black"/>
<path d="M228.773 75.1535C228.4 73.4005 227.802 72.1326 226.975 71.3447C226.148 70.5569 225.009 70.1656 223.559 70.1656C222.435 70.1656 221.383 70.4891 220.407 71.1413C219.432 71.7935 218.676 72.6439 218.145 73.7031H218.099V59.0627H212.2V98.4966H217.256L217.879 95.8671H218.012C218.487 96.8061 219.197 97.5418 220.142 98.0898C221.087 98.6324 222.139 98.9037 223.293 98.9037C225.361 98.9037 226.888 97.928 227.864 95.9818C228.839 94.0304 229.329 90.9886 229.329 86.846V82.4477C229.329 79.3432 229.14 76.9066 228.773 75.1535ZM223.16 86.4911C223.16 88.5154 223.078 90.1017 222.915 91.2495C222.752 92.3973 222.481 93.2166 222.093 93.6965C221.71 94.1817 221.189 94.4217 220.54 94.4217C220.035 94.4217 219.57 94.3017 219.141 94.0566C218.712 93.8165 218.365 93.4514 218.099 92.9713V77.1988C218.303 76.4422 218.661 75.8266 219.166 75.3414C219.667 74.8561 220.219 74.6161 220.806 74.6161C221.429 74.6161 221.909 74.8666 222.246 75.3622C222.588 75.8631 222.823 76.6979 222.956 77.8771C223.089 79.0562 223.155 80.731 223.155 82.9067V86.4911H223.16Z" fill="black"/>
<path d="M238.016 88.0928C238.016 89.8772 238.067 91.2129 238.17 92.1052C238.272 92.9972 238.486 93.6444 238.813 94.0566C239.14 94.4634 239.64 94.6669 240.32 94.6669C241.234 94.6669 241.867 94.3017 242.204 93.5765C242.546 92.8513 242.73 91.6409 242.761 89.9504L248.042 90.2685C248.072 90.5085 248.087 90.8424 248.087 91.265C248.087 93.832 247.398 95.7521 246.024 97.02C244.651 98.2879 242.705 98.9243 240.192 98.9243C237.174 98.9243 235.059 97.9591 233.849 96.0235C232.634 94.0878 232.031 91.0982 232.031 87.0493V82.197C232.031 78.0283 232.659 74.9813 233.915 73.0612C235.172 71.1412 237.322 70.1812 240.371 70.1812C242.47 70.1812 244.084 70.5725 245.207 71.3603C246.331 72.1481 247.122 73.369 247.582 75.0334C248.042 76.6978 248.271 78.9935 248.271 81.9257V86.6841H238.016V88.0928ZM238.793 74.9969C238.481 75.3882 238.277 76.03 238.17 76.9222C238.067 77.8144 238.016 79.1657 238.016 80.9815V82.9746H242.495V80.9815C242.495 79.197 242.434 77.8457 242.317 76.9222C242.199 75.9987 241.985 75.3517 241.673 74.9708C241.362 74.5952 240.881 74.4021 240.233 74.4021C239.579 74.4073 239.099 74.6056 238.793 74.9969Z" fill="black"/>
</svg>
