<svg width="267" height="60" viewBox="0 0 267 60" fill="none" xmlns="http://www.w3.org/2000/svg">
<g id="logo">
<path id="Vector" d="M265.18 11.6741C264.566 10.0206 263.669 8.49223 262.531 7.16061C261.432 5.87409 260.086 4.83203 258.577 4.09905C257.079 3.36914 255.438 2.99353 253.779 3.00008L231.371 3.00008L228.926 12.8123L251.401 12.8123C252.118 12.801 252.829 12.9625 253.474 13.2837C254.099 13.6064 254.659 14.0457 255.125 14.5787C255.61 15.1286 255.988 15.7681 256.238 16.4629C256.495 17.1793 256.625 17.9369 256.622 18.7001V40.6808C256.63 41.4698 256.5 42.254 256.238 42.9964C255.994 43.6823 255.615 44.3101 255.125 44.8413C254.651 45.355 254.092 45.78 253.474 46.0971C252.829 46.4183 252.118 46.5798 251.401 46.5686H231.371L228.926 56.4583H253.781C255.441 56.4653 257.081 56.0896 258.58 55.3594C260.089 54.627 261.435 53.5848 262.534 52.2978C263.666 50.9767 264.563 49.4622 265.182 47.8235C265.821 46.1491 266.141 44.3172 266.141 42.3279V17.1305C266.153 15.2666 265.827 13.4166 265.18 11.6741Z" fill="white"/>
<path id="Vector_2" d="M184.355 28.0807C182.996 26.5869 181.349 25.3968 179.518 24.5852C177.617 23.7415 175.564 23.3137 173.491 23.3294H164.048C162.563 23.3294 161.386 22.8712 160.517 21.955C159.648 21.0388 159.213 19.9268 159.211 18.619C159.211 17.4691 159.39 16.5532 159.749 15.8712C160.09 15.2086 160.628 14.673 161.284 14.3408C162.01 13.9815 162.788 13.743 163.588 13.634C164.529 13.4988 165.478 13.4333 166.428 13.4379H184.009V3L162.435 3C160.388 3 158.52 3.41861 156.831 4.25582C155.191 5.05616 153.727 6.19152 152.532 7.59193C151.332 9.01683 150.396 10.6527 149.768 12.42C149.106 14.2275 148.767 16.1422 148.768 18.0725C148.768 20.8467 149.177 23.2279 149.996 25.2161C150.815 27.2043 151.966 28.8264 153.45 30.0825C154.935 31.3386 156.752 32.2546 158.902 32.8303C161.052 33.4061 163.432 33.694 166.042 33.694H172.26C174.206 33.694 175.831 34.2694 177.135 35.4204C178.44 36.5714 179.093 38.1676 179.093 40.2092C179.093 41.3079 178.888 42.25 178.479 43.0355C178.085 43.7998 177.536 44.4686 176.867 44.9964C176.2 45.5199 175.394 45.9123 174.449 46.1738C173.485 46.4383 172.49 46.5704 171.492 46.5668H150.46V56.4565H174.259C176.408 56.4565 178.354 56.0379 180.095 55.2007C181.812 54.3813 183.352 53.2205 184.625 51.7862C185.904 50.3471 186.889 48.6332 187.581 46.6444C188.273 44.6557 188.619 42.5097 188.618 40.2067C188.618 37.7479 188.247 35.4846 187.505 33.4169C186.763 31.3491 185.712 29.5704 184.355 28.0807Z" fill="white"/>
<path id="Vector_3" d="M135.919 11.8713C135.214 10.149 134.198 8.57769 132.925 7.23933C131.643 5.91297 130.116 4.85914 128.434 4.13855C126.661 3.37352 124.754 2.98623 122.829 3.00037L98.6305 3.00037L96.1016 12.3419L121.295 12.3419C123.495 12.3419 125.107 12.9307 126.131 14.1084C127.155 15.2861 127.667 16.8167 127.667 18.7003C127.667 20.6897 127.155 22.2336 126.131 23.3323C125.107 24.4309 123.495 24.9803 121.295 24.9803H100.411V56.4594H109.622V34.3261H122.829C124.75 34.3415 126.655 33.9683 128.434 33.228C130.127 32.5271 131.657 31.4704 132.925 30.1264C134.187 28.7795 135.202 27.2106 135.919 25.4952C136.665 23.7229 137.044 21.8121 137.032 19.8828V17.5272C137.042 15.5841 136.663 13.6595 135.919 11.8713Z" fill="white"/>
<path id="Vector_4" d="M0.958841 47.7835C1.57258 49.437 2.4696 50.9654 3.60784 52.297C4.70693 53.5835 6.05268 54.6256 7.56173 55.3585C9.06031 56.0884 10.7004 56.464 12.3603 56.4575H33.789L36.3172 46.6453H14.7408C14.023 46.6566 13.3126 46.4951 12.6671 46.1739C12.0425 45.8514 11.4826 45.4121 11.0162 44.8788C10.5312 44.329 10.1534 43.6895 9.90306 42.9947C9.64592 42.2783 9.51602 41.5207 9.5195 40.7575L9.5195 18.7768C9.51172 17.9878 9.64161 17.2036 9.90306 16.4612C10.1476 15.7753 10.5264 15.1475 11.0162 14.6163C11.4907 14.1025 12.0495 13.6775 12.6671 13.3604C13.3127 13.0395 14.023 12.8783 14.7408 12.8898L33.7924 12.8898L36.2371 3.0001L12.3603 3.0001C10.7003 2.99313 9.06018 3.36876 7.56173 4.09906C6.05234 4.83146 4.70647 5.8736 3.60784 7.16062C2.4751 8.48169 1.57844 9.99618 0.958841 11.6349C0.320147 13.3093 0.000521908 15.1412 -3.39616e-05 17.1305L-3.39616e-05 42.3288C-0.0122565 44.192 0.312843 46.0413 0.958841 47.7835Z" fill="white"/>
<path id="Vector_5" d="M71.4682 3L61.4876 3L48.0525 56.4591H49.7693L49.7585 56.5H68.8651L71.2831 47.0366H59.554L61.104 40.367L66.1711 18.5431H66.708L71.5449 40.367L73.3109 48.2949L75.1536 56.4591H84.3663L71.4682 3Z" fill="white"/>
<path id="Vector_6" d="M210.103 56.4898H200.353L201.648 53.753C203.102 50.7259 204.216 48.2068 204.989 46.1959C205.762 44.185 206.399 41.8214 206.898 39.1051C207.399 36.3906 207.649 33.1668 207.649 29.4337C207.649 25.9513 207.422 22.9451 206.967 20.4153C206.512 17.8855 205.944 15.7191 205.263 13.9162C204.58 12.1122 203.603 9.86255 202.331 7.16732C201.922 6.42161 201.263 5.03251 200.354 3L210.104 3C214.828 11.3767 217.191 20.1865 217.191 29.4294C217.191 34.6539 216.577 39.3715 215.35 43.582C214.123 47.7925 212.373 52.0951 210.103 56.4898Z" fill="#2590FF"/>
</g>
</svg>
