<svg width="12" height="12" viewBox="0 0 12 12" fill="none" xmlns="http://www.w3.org/2000/svg">
<g clip-path="url(#clip0_721_2792)">
<path fill-rule="evenodd" clip-rule="evenodd" d="M7.89767 1.67898L11.8195 5.5679C12.0602 5.80654 12.0602 6.19346 11.8195 6.4321L7.89767 10.321C7.65701 10.5597 7.26681 10.5597 7.02615 10.321C6.78549 10.0824 6.78549 9.69546 7.02615 9.45681L9.89597 6.61108L0.616252 6.61108C0.275903 6.61108 -4.21395e-06 6.33749 -4.21395e-06 6C-4.21395e-06 5.66251 0.275903 5.38892 0.616252 5.38892H9.89597L7.02615 2.54319C6.78549 2.30454 6.78549 1.91763 7.02615 1.67898C7.26681 1.44034 7.65701 1.44034 7.89767 1.67898Z" fill="#222233"/>
<path fill-rule="evenodd" clip-rule="evenodd" d="M7.89767 1.67898L11.8195 5.5679C12.0602 5.80654 12.0602 6.19346 11.8195 6.4321L7.89767 10.321C7.65701 10.5597 7.26681 10.5597 7.02615 10.321C6.78549 10.0824 6.78549 9.69546 7.02615 9.45681L9.89597 6.61108L0.616252 6.61108C0.275903 6.61108 -4.21395e-06 6.33749 -4.21395e-06 6C-4.21395e-06 5.66251 0.275903 5.38892 0.616252 5.38892H9.89597L7.02615 2.54319C6.78549 2.30454 6.78549 1.91763 7.02615 1.67898C7.26681 1.44034 7.65701 1.44034 7.89767 1.67898Z" fill="white" fill-opacity="0.3"/>
</g>
<defs>
<clipPath id="clip0_721_2792">
<rect width="12" height="12" fill="white"/>
</clipPath>
</defs>
</svg>
