<?xml version="1.0" standalone="no"?><!DOCTYPE svg PUBLIC "-//W3C//DTD SVG 1.1//EN" "http://www.w3.org/Graphics/SVG/1.1/DTD/svg11.dtd"><svg t="1658392242630" class="icon" viewBox="0 0 1024 1024" version="1.1" xmlns="http://www.w3.org/2000/svg" p-id="4602" xmlns:xlink="http://www.w3.org/1999/xlink" width="64" height="64"><defs><style type="text/css">@font-face { font-family: feedback-iconfont; src: url("//at.alicdn.com/t/font_1031158_u69w8yhxdu.woff2?t=1630033759944") format("woff2"), url("//at.alicdn.com/t/font_1031158_u69w8yhxdu.woff?t=1630033759944") format("woff"), url("//at.alicdn.com/t/font_1031158_u69w8yhxdu.ttf?t=1630033759944") format("truetype"); }
</style></defs><path d="M877.714286 665.6V36.571429c0-21.942857-14.628571-36.571429-36.571429-36.571429s-36.571429 14.628571-36.571428 36.571429v629.028571c-43.885714 14.628571-73.142857 58.514286-73.142858 102.4 0 43.885714 29.257143 87.771429 73.142858 102.4v117.028571c0 21.942857 14.628571 36.571429 36.571428 36.571429s36.571429-14.628571 36.571429-36.571429v-117.028571c43.885714-14.628571 73.142857-58.514286 73.142857-102.4 0-51.2-29.257143-87.771429-73.142857-102.4z m-36.571429 138.971429c-21.942857 0-36.571429-14.628571-36.571428-36.571429s14.628571-36.571429 36.571428-36.571429 36.571429 14.628571 36.571429 36.571429-14.628571 36.571429-36.571429 36.571429zM146.285714 665.6V36.571429c0-21.942857-14.628571-36.571429-36.571428-36.571429S73.142857 14.628571 73.142857 36.571429v629.028571c-43.885714 14.628571-73.142857 51.2-73.142857 102.4 0 43.885714 29.257143 87.771429 73.142857 102.4v117.028571c0 21.942857 14.628571 36.571429 36.571429 36.571429s36.571429-14.628571 36.571428-36.571429v-117.028571c43.885714-14.628571 73.142857-58.514286 73.142857-102.4 0-51.2-29.257143-87.771429-73.142857-102.4zM109.714286 804.571429c-21.942857 0-36.571429-14.628571-36.571429-36.571429s14.628571-36.571429 36.571429-36.571429 36.571429 14.628571 36.571428 36.571429-14.628571 36.571429-36.571428 36.571429zM512 153.6V36.571429c0-21.942857-14.628571-36.571429-36.571429-36.571429S438.857143 14.628571 438.857143 36.571429v117.028571c-43.885714 14.628571-73.142857 58.514286-73.142857 102.4s29.257143 87.771429 73.142857 102.4v629.028571c0 21.942857 14.628571 36.571429 36.571428 36.571429s36.571429-14.628571 36.571429-36.571429V358.4c43.885714-14.628571 73.142857-58.514286 73.142857-102.4s-29.257143-87.771429-73.142857-102.4zM475.428571 292.571429c-21.942857 0-36.571429-14.628571-36.571428-36.571429s14.628571-36.571429 36.571428-36.571429 36.571429 14.628571 36.571429 36.571429-14.628571 36.571429-36.571429 36.571429z" p-id="4603"></path></svg>