<svg width="24" height="24" viewBox="0 0 24 24" fill="none" xmlns="http://www.w3.org/2000/svg">
<g id="icon/&#230;&#144;&#156;&#231;&#180;&#162;">
<g id="Icon">
<path fill-rule="evenodd" clip-rule="evenodd" d="M14.2118 15.2481C11.6224 17.322 7.83202 17.1588 5.43164 14.7584C2.85612 12.1829 2.85612 8.00716 5.43164 5.43164C8.00716 2.85612 12.1829 2.85612 14.7584 5.43164C17.1588 7.83202 17.322 11.6224 15.2481 14.2118L20.2854 19.2491C20.5715 19.5352 20.5715 19.9992 20.2854 20.2854C19.9992 20.5715 19.5352 20.5715 19.2491 20.2854L14.2118 15.2481ZM6.46795 13.7221C4.46477 11.7189 4.46477 8.47113 6.46795 6.46795C8.47113 4.46477 11.7189 4.46477 13.7221 6.46795C15.7238 8.46966 15.7253 11.7142 13.7265 13.7177C13.725 13.7192 13.7236 13.7206 13.7221 13.7221C13.7206 13.7236 13.7192 13.725 13.7177 13.7265C11.7142 15.7253 8.46966 15.7238 6.46795 13.7221Z" fill="#222233"/>
<path fill-rule="evenodd" clip-rule="evenodd" d="M14.2118 15.2481C11.6224 17.322 7.83202 17.1588 5.43164 14.7584C2.85612 12.1829 2.85612 8.00716 5.43164 5.43164C8.00716 2.85612 12.1829 2.85612 14.7584 5.43164C17.1588 7.83202 17.322 11.6224 15.2481 14.2118L20.2854 19.2491C20.5715 19.5352 20.5715 19.9992 20.2854 20.2854C19.9992 20.5715 19.5352 20.5715 19.2491 20.2854L14.2118 15.2481ZM6.46795 13.7221C4.46477 11.7189 4.46477 8.47113 6.46795 6.46795C8.47113 4.46477 11.7189 4.46477 13.7221 6.46795C15.7238 8.46966 15.7253 11.7142 13.7265 13.7177C13.725 13.7192 13.7236 13.7206 13.7221 13.7221C13.7206 13.7236 13.7192 13.725 13.7177 13.7265C11.7142 15.7253 8.46966 15.7238 6.46795 13.7221Z" fill="white" fill-opacity="0.3"/>
</g>
</g>
</svg>
