<svg width="24" height="24" viewBox="0 0 24 24" fill="none" xmlns="http://www.w3.org/2000/svg">
<g id="icon/&#233;&#128;&#128;&#229;&#135;&#186;">
<g id="Vector">
<path d="M19.7759 11.5334L16.2081 8.20007C15.9226 7.93331 15.4945 7.93331 15.2091 8.20007C14.9237 8.46665 14.9237 8.8667 15.2091 9.13346L17.5638 11.3334H10.7136C10.2854 11.3334 10 11.6 10 12C10 12.4001 10.2854 12.6667 10.7136 12.6667H17.5638L15.2092 14.8666C14.9238 15.1333 14.9238 15.5334 15.2092 15.8C15.352 15.9334 15.4947 16 15.7086 16C15.9228 16 16.0655 15.9333 16.2082 15.8L19.776 12.4001C19.776 12.4001 19.776 12.3333 19.8475 12.3333C20.0615 12.1333 20.0615 11.7334 19.776 11.5334L19.7759 11.5334Z" fill="#222233"/>
<path d="M19.7759 11.5334L16.2081 8.20007C15.9226 7.93331 15.4945 7.93331 15.2091 8.20007C14.9237 8.46665 14.9237 8.8667 15.2091 9.13346L17.5638 11.3334H10.7136C10.2854 11.3334 10 11.6 10 12C10 12.4001 10.2854 12.6667 10.7136 12.6667H17.5638L15.2092 14.8666C14.9238 15.1333 14.9238 15.5334 15.2092 15.8C15.352 15.9334 15.4947 16 15.7086 16C15.9228 16 16.0655 15.9333 16.2082 15.8L19.776 12.4001C19.776 12.4001 19.776 12.3333 19.8475 12.3333C20.0615 12.1333 20.0615 11.7334 19.776 11.5334L19.7759 11.5334Z" fill="white" fill-opacity="0.7"/>
</g>
<g id="Vector_2">
<path d="M17.4348 16.8461C17.0957 16.8461 16.8696 17.1232 16.8696 17.5384V18.9232C16.8696 19.3384 16.6435 19.6154 16.3043 19.6154H6.69565C6.35652 19.6154 6.13043 19.3384 6.13043 18.9232V5.07684C6.13043 4.66158 6.35652 4.38456 6.69565 4.38456H16.3043C16.6435 4.38456 16.8696 4.66158 16.8696 5.07684V6.46158C16.8696 6.87686 17.0957 7.15386 17.4348 7.15386C17.7739 7.15386 18 6.87684 18 6.46158V5.07684C18 3.9 17.2653 3 16.3043 3H6.69565C5.73485 3 5 3.9 5 5.07684V18.9232C5 20.1 5.73487 21 6.69565 21H16.3043C17.2653 21 18 20.1 18 18.9232V17.5384C18 17.1231 17.7739 16.8461 17.4348 16.8461Z" fill="#222233"/>
<path d="M17.4348 16.8461C17.0957 16.8461 16.8696 17.1232 16.8696 17.5384V18.9232C16.8696 19.3384 16.6435 19.6154 16.3043 19.6154H6.69565C6.35652 19.6154 6.13043 19.3384 6.13043 18.9232V5.07684C6.13043 4.66158 6.35652 4.38456 6.69565 4.38456H16.3043C16.6435 4.38456 16.8696 4.66158 16.8696 5.07684V6.46158C16.8696 6.87686 17.0957 7.15386 17.4348 7.15386C17.7739 7.15386 18 6.87684 18 6.46158V5.07684C18 3.9 17.2653 3 16.3043 3H6.69565C5.73485 3 5 3.9 5 5.07684V18.9232C5 20.1 5.73487 21 6.69565 21H16.3043C17.2653 21 18 20.1 18 18.9232V17.5384C18 17.1231 17.7739 16.8461 17.4348 16.8461Z" fill="white" fill-opacity="0.7"/>
</g>
</g>
</svg>
