<svg width="24" height="24" viewBox="0 0 24 24" fill="none" xmlns="http://www.w3.org/2000/svg">
<g id="icon/&#228;&#184;&#170;&#228;&#186;&#186;&#232;&#181;&#132;&#230;&#150;&#153;">
<g id="Vector">
<path d="M14.4214 13.3656C16.2554 12.4772 17.5214 10.6184 17.5214 8.4624C17.5214 5.4456 15.0493 3 11.9998 3C8.95029 3 6.47817 5.4456 6.47817 8.4624C6.47817 10.6184 7.74415 12.4776 9.57822 13.3656C6.53478 14.33 4.24259 17.0516 4.0016 20.3492C3.97734 20.6836 4.23127 20.974 4.56929 20.9984C4.90974 21.022 5.20087 20.7708 5.22553 20.4368C5.48067 16.9396 8.45659 14.2 11.9998 14.2C15.543 14.2 18.5189 16.9396 18.7745 20.4368C18.7979 20.7564 19.0672 21 19.3858 21C19.4008 21 19.4157 20.9996 19.4307 20.9984C19.7687 20.9744 20.0227 20.6836 19.9984 20.3492C19.7574 17.0516 17.4652 14.33 14.4214 13.3656ZM7.70533 8.4624C7.70533 6.116 9.62796 4.214 11.9998 4.214C14.3716 4.214 16.2943 6.116 16.2943 8.4624C16.2943 10.8088 14.3716 12.7108 11.9998 12.7108C9.62796 12.7108 7.70533 10.8088 7.70533 8.4624Z" fill="#222233"/>
<path d="M14.4214 13.3656C16.2554 12.4772 17.5214 10.6184 17.5214 8.4624C17.5214 5.4456 15.0493 3 11.9998 3C8.95029 3 6.47817 5.4456 6.47817 8.4624C6.47817 10.6184 7.74415 12.4776 9.57822 13.3656C6.53478 14.33 4.24259 17.0516 4.0016 20.3492C3.97734 20.6836 4.23127 20.974 4.56929 20.9984C4.90974 21.022 5.20087 20.7708 5.22553 20.4368C5.48067 16.9396 8.45659 14.2 11.9998 14.2C15.543 14.2 18.5189 16.9396 18.7745 20.4368C18.7979 20.7564 19.0672 21 19.3858 21C19.4008 21 19.4157 20.9996 19.4307 20.9984C19.7687 20.9744 20.0227 20.6836 19.9984 20.3492C19.7574 17.0516 17.4652 14.33 14.4214 13.3656ZM7.70533 8.4624C7.70533 6.116 9.62796 4.214 11.9998 4.214C14.3716 4.214 16.2943 6.116 16.2943 8.4624C16.2943 10.8088 14.3716 12.7108 11.9998 12.7108C9.62796 12.7108 7.70533 10.8088 7.70533 8.4624Z" fill="white" fill-opacity="0.3"/>
</g>
</g>
</svg>
