<svg width="201" height="100" viewBox="0 0 201 100" fill="none" xmlns="http://www.w3.org/2000/svg">
<g clip-path="url(#clip0_861_3113)">
<path d="M50.5897 28.5039H51.7635C55.8387 28.5923 59.8474 30.228 62.7266 33.1237C61.6635 34.2068 60.5783 35.2456 59.5373 36.3287C57.9205 34.8699 55.9715 33.7426 53.8454 33.3447C50.7004 32.6816 47.3118 33.2784 44.6762 35.0688C41.797 36.9477 39.8481 40.1306 39.4272 43.5347C38.9621 46.8945 39.9145 50.4311 42.1071 53.0394C44.2111 55.5814 47.4225 57.1729 50.7447 57.2834C53.8454 57.4602 57.0789 56.5098 59.338 54.3436C61.1098 52.8184 61.9293 50.4974 62.195 48.2428C58.5185 48.2428 54.842 48.2649 51.1655 48.2428V43.6894H66.6467C67.444 48.5744 66.2923 54.0783 62.5715 57.5707C60.091 60.0464 56.6581 61.5053 53.1588 61.7926C49.7702 62.1242 46.2709 61.4832 43.2588 59.8475C39.6487 57.9244 36.7695 54.6751 35.3521 50.8511C34.0232 47.3366 34.0011 43.3578 35.2413 39.8212C36.3709 36.594 38.5413 33.7426 41.3319 31.7532C44.0118 29.7859 47.2675 28.7028 50.5897 28.5039Z" fill="#4285F4"/>
<path d="M139.402 29.6532H144.141V61.2178C142.569 61.2178 140.974 61.2399 139.402 61.1957C139.424 50.6963 139.402 40.1747 139.402 29.6532Z" fill="#34A853"/>
<path d="M77.189 40.5948C80.1125 40.0422 83.2796 40.6611 85.6937 42.4073C87.8863 43.9546 89.4145 46.386 89.8796 49.0385C90.4776 52.111 89.7246 55.4708 87.7313 57.9022C85.5829 60.621 82.0615 62.0799 78.6286 61.8589C75.4836 61.682 72.4272 60.1126 70.5668 57.5486C68.4628 54.7193 67.9534 50.8289 69.1051 47.5133C70.2568 43.9546 73.5125 41.2358 77.189 40.5948ZM77.8534 44.7945C76.6574 45.104 75.5501 45.7892 74.7527 46.7618C72.6044 49.3259 72.7373 53.5035 75.1071 55.8908C76.4581 57.2612 78.4957 57.9022 80.3782 57.5265C82.1279 57.217 83.6561 56.0455 84.4977 54.4982C85.9594 51.8678 85.5386 48.2428 83.3017 46.1871C81.8621 44.8608 79.7581 44.3082 77.8534 44.7945Z" fill="#EA4335"/>
<path d="M100.665 40.5947C104.01 39.9537 107.664 40.882 110.167 43.2251C114.242 46.8722 114.685 53.7024 111.208 57.9022C109.104 60.5546 105.693 62.0135 102.326 61.8588C99.1151 61.7704 95.948 60.1789 94.0433 57.5485C91.895 54.6529 91.4298 50.6741 92.648 47.2922C93.8661 43.844 97.0554 41.2136 100.665 40.5947ZM101.33 44.7944C100.134 45.1039 99.0265 45.7891 98.2292 46.7396C96.103 49.2595 96.1916 53.3708 98.4728 55.7802C99.8238 57.2169 101.928 57.9243 103.877 57.5264C105.604 57.1948 107.155 56.0454 107.996 54.4981C109.436 51.8456 109.015 48.2206 106.756 46.1649C105.316 44.8387 103.212 44.3082 101.33 44.7944Z" fill="#FBBC05"/>
<path d="M120.576 41.8768C123.123 40.2853 126.512 39.8432 129.258 41.2137C130.122 41.5894 130.831 42.2305 131.517 42.8715C131.539 42.2747 131.517 41.6558 131.539 41.0368C133.023 41.0589 134.507 41.0368 136.013 41.0589V60.5547C135.991 63.4946 135.238 66.6112 133.112 68.7553C130.786 71.1205 127.22 71.8499 124.009 71.3636C120.576 70.8552 117.586 68.3575 116.257 65.1966C117.586 64.5556 118.982 64.0472 120.355 63.4504C121.13 65.2629 122.702 66.8102 124.673 67.1638C126.645 67.5175 128.926 67.0312 130.21 65.3955C131.584 63.7156 131.584 61.4168 131.517 59.3611C130.498 60.3558 129.324 61.24 127.907 61.5715C124.828 62.4336 121.44 61.3726 119.07 59.2948C116.678 57.217 115.261 54.0119 115.394 50.8289C115.46 47.226 117.498 43.7556 120.576 41.8768ZM125.161 44.7061C123.81 44.9272 122.547 45.6787 121.684 46.7176C119.602 49.1932 119.602 53.1499 121.706 55.5813C122.902 57.0181 124.828 57.8138 126.689 57.6149C128.439 57.4381 130.055 56.3328 130.919 54.8077C132.381 52.2215 132.137 48.7069 130.166 46.4523C128.948 45.0598 126.999 44.3746 125.161 44.7061Z" fill="#4285F4"/>
<path d="M149.833 43.0041C152.491 40.5284 156.588 39.6885 159.999 40.9926C163.233 42.2084 165.292 45.2808 166.333 48.4417C161.527 50.4311 156.743 52.3983 151.937 54.3877C152.602 55.6476 153.621 56.797 154.994 57.2612C156.921 57.9464 159.224 57.7033 160.841 56.4213C161.483 55.935 161.992 55.294 162.48 54.675C163.698 55.4929 164.916 56.2886 166.134 57.1065C164.406 59.6927 161.505 61.5052 158.382 61.7926C154.927 62.2125 151.251 60.8863 149.014 58.1896C145.337 53.9456 145.692 46.8281 149.833 43.0041ZM152.203 47.0934C151.45 48.1765 151.14 49.5027 151.162 50.8068C154.374 49.4806 157.585 48.1543 160.796 46.806C160.265 45.5682 158.98 44.8166 157.674 44.6177C155.57 44.2419 153.377 45.3692 152.203 47.0934Z" fill="#EA4335"/>
</g>
<defs>
<clipPath id="clip0_861_3113">
<rect width="132" height="43" fill="white" transform="translate(34.3333 28.5)"/>
</clipPath>
</defs>
</svg>
