<svg width="200" height="100" viewBox="0 0 200 100" fill="none" xmlns="http://www.w3.org/2000/svg">
<path fill-rule="evenodd" clip-rule="evenodd" d="M47.0769 68.6287H49.0982L52.3856 73.6984L55.6727 68.6287H57.6944V79.3497H55.8117V71.6611L52.4009 76.7153H52.3391L48.9596 71.6918V79.3497H47.0769V68.6287ZM67.0155 75.0918L65.1485 70.8036L63.2964 75.0918H67.0155ZM64.2994 68.5521H66.0587L70.8121 79.3497H68.8057L67.7102 76.7612H62.602L61.4906 79.3497H59.5464L64.2994 68.5521ZM76.7615 74.2037C77.4839 74.2037 78.0552 74.025 78.4719 73.6648C78.8909 73.3078 79.0992 72.8455 79.0992 72.2814V72.251C79.0992 71.6152 78.8883 71.1354 78.4641 70.8137C78.0422 70.4896 77.4738 70.3287 76.7615 70.3287H74.5468V74.2037H76.7615ZM72.6638 68.6287H76.9233C77.5509 68.6287 78.1193 68.713 78.6288 68.8813C79.138 69.05 79.57 69.2926 79.9252 69.6089C80.28 69.9255 80.5525 70.3032 80.7429 70.7423C80.9331 71.1813 81.0285 71.6714 81.0285 72.2126V72.2433C81.0285 72.8455 80.9155 73.374 80.6889 73.8286C80.46 74.2825 80.1514 74.6631 79.7604 74.9694C79.3668 75.2757 78.9091 75.508 78.3843 75.6663C77.857 75.8243 77.2964 75.9037 76.697 75.9037H74.5468V79.3497H72.6638V68.6287ZM82.973 68.6287H84.8556V77.6496H90.5351V79.3497H82.973V68.6287ZM92.5259 68.6287H100.52V70.3287H94.4085V73.0855H99.8254V74.7856H94.4085V77.6496H100.597V79.3497H92.5259V68.6287ZM103.082 68.6287H103.838L108.174 74.9694L112.511 68.6287H113.267V79.3497H112.465V70.0376L108.19 76.21H108.128L103.853 70.0376V79.3497H103.082V68.6287ZM116.477 68.6287H124.163V69.3485H117.28V73.5908H123.468V74.311H117.28V78.6299H124.24V79.3497H116.477V68.6287ZM130.413 78.6299C131.164 78.6299 131.843 78.5097 132.45 78.2699C133.057 78.0273 133.571 77.7007 133.993 77.2846C134.415 76.871 134.742 76.3835 134.973 75.8243C135.205 75.2679 135.32 74.6657 135.32 74.0199V73.9892C135.32 73.3537 135.205 72.7537 134.973 72.1922C134.742 71.6281 134.415 71.1354 133.993 70.7167C133.571 70.2958 133.057 69.9636 132.45 69.7162C131.843 69.4713 131.164 69.3485 130.413 69.3485H127.619V78.6299H130.413ZM126.817 68.6287H130.413C131.256 68.6287 132.031 68.7641 132.735 69.0348C133.44 69.3052 134.047 69.6806 134.557 70.1604C135.066 70.6402 135.459 71.2043 135.737 71.8527C136.015 72.5011 136.154 73.2028 136.154 73.9585V73.9892C136.154 74.7445 136.015 75.4492 135.737 76.1027C135.459 76.756 135.066 77.3227 134.557 77.8028C134.047 78.2825 133.44 78.6606 132.735 78.9361C132.031 79.2117 131.256 79.3497 130.413 79.3497H126.817V68.6287ZM138.993 79.3493H139.796V68.6287H138.993V79.3493ZM150.429 75.6278L147.589 69.4254L144.734 75.6278H150.429ZM147.219 68.5521H147.991L153.022 79.3497H152.142L150.769 76.3476H144.395L143.021 79.3497H142.188L147.219 68.5521Z" fill="#3B464B"/>
<path fill-rule="evenodd" clip-rule="evenodd" d="M71.1349 46.0214C70.8015 45.0004 70.3449 44.0438 69.7163 43.1697C69.5533 42.9432 69.3014 42.5643 69.2802 42.277C69.2695 42.1275 69.3454 42.0102 69.4442 41.9059C69.8952 41.5355 70.3351 41.1549 70.7591 40.7536C71.0153 40.5112 71.2652 40.2626 71.5116 40.0098L71.5468 40.0394C72.0806 40.4729 72.5799 41.0432 72.9595 41.6154C73.1339 41.8776 73.5145 42.5032 73.5018 42.8268L73.4985 42.9136L73.524 43.0117C73.8978 44.4652 75.345 50.123 76.5502 50.7872C76.9673 51.0173 77.533 51.0475 77.9971 50.9835C78.4651 50.9185 78.9914 50.7365 79.3372 50.4064C80.2001 49.5829 80.4048 47.7635 80.4683 46.6366C80.4977 46.1144 80.5045 45.5902 80.4963 45.0674C80.4732 43.5554 80.3458 41.8032 80.0502 40.3159C79.3401 36.7427 79.8178 33.1565 81.6262 29.9749C83.092 27.3954 85.3143 25.3073 87.9269 23.9074C90.5474 22.5036 93.5345 21.8069 96.5089 21.9798C99.8153 22.1725 102.85 23.4196 105.367 25.5354L105.043 25.6261C101.953 26.5369 99.173 28.6459 97.2288 31.1805L97.0652 31.3933L98.0262 32.1248L98.1895 31.9123C99.9789 29.5801 102.54 27.621 105.384 26.7823C108.117 25.9767 110.911 26.301 113.213 28.0519L113.228 28.0632C114.685 29.1713 115.23 30.981 115.404 32.726C115.574 34.4356 115.402 36.1523 115.192 37.8502L115.163 38.0698C114.657 41.5949 112.532 44.8802 109.779 47.0944C106.43 49.7893 102.225 50.8889 97.9679 50.3657L97.6169 50.3193L97.582 50.3147L97.5354 50.3144C96.9534 50.3115 96.4307 50.0973 95.9881 49.7262C95.482 49.3018 95.0945 48.6831 94.9052 48.053L94.8374 47.8282L93.6779 48.1726L93.7457 48.3985C94.0021 49.2505 94.5272 50.0743 95.2109 50.6478C95.8584 51.1911 96.6304 51.5031 97.4797 51.5183L97.8209 51.5638C102.388 52.125 106.945 50.9234 110.538 48.0336C113.527 45.6292 115.812 42.0655 116.361 38.2404L116.394 37.9967C116.603 36.3079 116.766 34.6331 116.635 32.9339C118.755 33.3193 120.728 34.4131 122.296 35.8702C124.039 37.4908 125.377 39.6507 125.838 41.9982L125.881 42.2159L126.057 42.355L126.723 42.883C127.185 43.2506 128.008 43.959 128.548 44.1738L128.692 44.2313L128.842 44.2137C129.129 44.1796 130.487 44.2569 130.649 44.4925C130.746 44.9806 130.966 45.5184 131.352 45.8694C130.777 45.9275 129.88 45.8879 129.589 45.8755L129.49 45.872C129.389 45.8109 129.292 45.7436 129.197 45.6728C128.895 45.445 128.626 45.1785 128.359 44.9114C128.175 44.7262 127.913 44.4461 127.684 44.3245C127.428 44.1894 127.05 43.983 126.768 43.9174L126.072 43.7546L126.027 44.4669C125.98 45.2052 125.934 45.9431 125.867 46.6801C125.8 47.4116 125.714 48.4014 125.486 49.0958C125.167 50.0678 124.72 50.9802 124.135 51.8206L124.052 51.9401L124.033 52.0851C123.748 54.2541 123.438 56.4177 123.111 58.5806L123.025 59.1564C122.975 59.3962 122.014 59.5515 121.819 59.5795C120.906 59.7107 119.919 59.7254 118.997 59.7233C117.682 59.7195 116.388 59.6451 115.078 59.5915C114.877 59.392 114.775 59.015 114.723 58.7596C114.563 57.9677 114.597 56.949 114.62 56.1428L114.644 55.3684L113.886 55.5377C112.006 55.9575 110.087 56.199 108.159 56.2094C106.336 56.2194 104.524 56.0212 102.751 55.6011L102.06 55.437L102.008 56.145C101.986 56.4427 101.972 56.7426 101.957 57.0409L101.885 58.5965C101.825 58.8382 101.731 59.1011 101.583 59.3029C101.53 59.3767 101.44 59.4791 101.348 59.5177L94.7211 59.5795H94.6878L94.678 59.5804C94.4401 59.5999 94.1765 59.5921 93.9575 59.4859C93.7128 59.3669 93.5482 59.1343 93.4309 58.8967C92.8527 57.7224 92.0889 56.4745 91.4051 55.356C91.0819 54.8267 90.7508 54.3003 90.406 53.7839C90.0618 53.2685 88.9268 51.5157 88.1463 51.7741C87.9041 51.8547 87.59 52.114 87.386 52.27C86.4933 52.9527 85.6213 53.5506 84.6078 54.0507C83.7728 54.4621 82.8626 54.7367 81.9472 54.8979C80.0939 55.2244 78.0564 55.1133 76.2738 54.5047C74.6476 53.9493 73.1485 52.9436 72.3697 51.3744C72.1458 50.9224 71.9916 50.4424 71.903 49.9462C71.7717 48.6256 71.5481 47.2858 71.1349 46.0214ZM69.9265 39.8798C69.5142 40.2698 69.0854 40.6389 68.6474 40.9996L68.6216 41.0207L68.6017 41.0406C68.2319 41.4094 68.035 41.837 68.0735 42.3634C68.1136 42.9097 68.4202 43.4374 68.7341 43.8728C69.2903 44.644 69.6902 45.4934 69.9848 46.3948C70.3729 47.5835 70.5753 48.8599 70.7037 50.1006L70.7067 50.1295L70.7093 50.1461C70.8175 50.7586 71.0091 51.3507 71.2854 51.9083C72.21 53.7712 73.9463 54.985 75.884 55.6462C77.8586 56.3205 80.1056 56.4482 82.1561 56.0869C83.1856 55.9055 84.2053 55.5942 85.1432 55.1315C86.2297 54.5957 87.1637 53.9594 88.1205 53.2276C88.2007 53.1665 88.3095 53.0759 88.4109 53.0011C88.5025 53.1226 88.6015 53.2763 88.667 53.3709C88.9147 53.728 89.1572 54.0891 89.3986 54.4507C89.7291 54.9456 90.0468 55.4503 90.3577 55.9582C91.0274 57.0517 91.7802 58.2777 92.3463 59.4267C92.5881 59.9174 92.9313 60.3288 93.4309 60.5712C93.8516 60.7753 94.3039 60.8208 94.7657 60.7837L101.509 60.721L101.564 60.7093C101.976 60.6213 102.316 60.3454 102.56 60.0117C102.816 59.661 102.978 59.2412 103.076 58.8207L103.087 58.7694L103.09 58.7099L103.165 57.0988L103.174 56.9304C104.815 57.2661 106.488 57.4231 108.164 57.414C109.922 57.4046 111.673 57.2122 113.397 56.8716C113.39 57.5706 113.404 58.3297 113.539 58.9968C113.692 59.7497 113.951 60.3187 114.618 60.7467L114.672 60.7815L114.736 60.7841C115.214 60.8036 115.691 60.7564 116.168 60.7766C117.847 60.8474 119.653 60.9628 121.328 60.8452C122.192 60.7847 123.561 60.633 124.052 59.8037C124.134 59.664 124.188 59.5138 124.217 59.3543L124.219 59.3474L124.308 58.7599C124.629 56.637 124.931 54.5128 125.212 52.3843C125.822 51.4803 126.296 50.5058 126.637 49.4698C126.857 48.7995 126.941 47.8672 127.011 47.1617C127.068 46.58 127.11 45.9977 127.161 45.4157C127.567 45.6526 128.06 46.2167 128.415 46.531C128.628 46.7191 128.854 46.8969 129.101 47.0385L129.154 47.0691L129.215 47.0701C129.994 47.0814 130.811 47.1159 131.587 47.0584C132.019 47.0262 132.746 46.9531 132.958 46.5053C133.219 45.9542 132.526 45.2325 132.18 44.8818C132.017 44.7177 131.895 44.4035 131.816 44.1864C131.591 43.2255 129.752 42.9344 128.879 42.9971C128.445 42.7553 127.852 42.238 127.476 41.9394L126.98 41.5472C126.432 39.0356 124.995 36.731 123.12 34.9877C121.292 33.2885 118.968 32.0498 116.481 31.6865C116.168 29.9038 115.435 28.2403 113.963 27.1059L113.948 27.0942C111.876 25.4971 109.419 24.9089 106.853 25.2413C104.014 22.5832 100.477 21.0033 96.5767 20.7765C93.3807 20.5903 90.1707 21.3364 87.3543 22.8451C84.541 24.3523 82.1532 26.6032 80.5749 29.3803C78.6228 32.8147 78.1007 36.6901 78.8627 40.5486L78.8698 40.585L78.8718 40.5885C79.155 41.991 79.2694 43.6779 79.2886 45.1005C79.2954 45.5902 79.2886 46.0812 79.2609 46.57C79.2185 47.3219 79.0768 48.986 78.5 49.5368C78.3468 49.683 78.0349 49.7607 77.8312 49.7889C77.6377 49.8156 77.3105 49.8279 77.1338 49.7305C76.4306 49.3431 74.9859 43.8475 74.7099 42.7748C74.69 42.1678 74.2947 41.4412 73.9681 40.9499C73.5233 40.2795 72.9351 39.6124 72.3094 39.1045C72.2478 39.0544 72.1921 38.9482 72.1543 38.8799L72.0897 38.7652L71.6788 38.0822L71.131 38.6619C70.7386 39.0769 70.3413 39.4873 69.9265 39.8798Z" fill="#CA0031"/>
<path fill-rule="evenodd" clip-rule="evenodd" d="M86.7938 44.6616C86.9879 44.6616 87.1715 44.7372 87.3087 44.8738C87.4458 45.0105 87.5215 45.1934 87.5215 45.3864C87.5215 45.5794 87.4455 45.7624 87.3087 45.8986C87.1715 46.0353 86.9879 46.1112 86.7938 46.1112C86.6 46.1112 86.4167 46.0353 86.2795 45.8986C86.1424 45.7624 86.0661 45.5798 86.0661 45.3864C86.0661 45.1934 86.1424 45.0105 86.2795 44.8738C86.4167 44.7372 86.6 44.6616 86.7938 44.6616ZM85.4003 43.9981C85.0294 44.3672 84.8229 44.8641 84.8229 45.3864C84.8229 45.9088 85.0298 46.4053 85.4003 46.7744C85.7712 47.1435 86.2697 47.3496 86.7938 47.3496C87.3182 47.3496 87.817 47.1435 88.1876 46.7744C88.5581 46.4053 88.765 45.9088 88.765 45.3864C88.765 44.8641 88.5585 44.3672 88.1876 43.9981C87.817 43.629 87.3182 43.4232 86.7938 43.4232C86.2697 43.4232 85.7712 43.629 85.4003 43.9981Z" fill="#CA0031"/>
<path fill-rule="evenodd" clip-rule="evenodd" d="M68.5949 30.1665C69.2142 29.5103 69.8596 28.6128 70.0701 27.7353C70.1363 27.4601 70.163 27.1674 70.1109 26.8876C70.0567 26.5952 69.921 26.3362 69.6938 26.1347C69.5003 25.9632 69.2627 25.8572 69.009 25.8002C68.7136 25.7336 68.4064 25.7336 68.1213 25.8416C67.8871 25.9303 67.6939 26.0803 67.5462 26.277C67.4021 26.4684 67.3105 26.6929 67.2554 26.9222C67.0261 27.877 67.3734 29.1225 67.732 30.0109L68.0344 30.7607L68.5949 30.1665ZM69.0628 27.5099C68.9579 27.9484 68.6942 28.408 68.4057 28.8042C68.255 28.2657 68.1467 27.6299 68.2624 27.1476C68.2854 27.0522 68.3225 26.9461 68.3824 26.8663C68.4121 26.8268 68.4495 26.7922 68.4973 26.7741C68.5805 26.7427 68.6915 26.7556 68.776 26.7747C68.8533 26.7922 68.9381 26.8223 68.9976 26.8743C69.0531 26.9232 69.0802 26.9943 69.0932 27.0645C69.1193 27.2065 69.0966 27.3705 69.0628 27.5099Z" fill="#CA0031"/>
<path fill-rule="evenodd" clip-rule="evenodd" d="M69.4499 34.4636C69.4652 35.128 69.5963 35.8183 69.7527 36.4632L69.9176 37.141L70.4993 36.7441C71.1107 36.3265 71.7961 35.4506 72.117 34.7843C72.2581 34.4909 72.3698 34.1683 72.3982 33.8436C72.4286 33.4937 72.3604 33.1537 72.1548 32.8629C71.9967 32.6398 71.7787 32.4759 71.53 32.3606C71.202 32.2081 70.8266 32.19 70.4869 32.3188C70.1482 32.447 69.8932 32.6999 69.7243 33.0121C69.491 33.4451 69.4388 33.981 69.4499 34.4636ZM71.2421 34.3782C71.0693 34.7373 70.8072 35.1112 70.5223 35.4299C70.4652 35.102 70.4244 34.7682 70.4167 34.441C70.4097 34.1361 70.4304 33.7326 70.5788 33.4573C70.635 33.3531 70.7193 33.249 70.8346 33.2053C70.9269 33.1704 71.0285 33.179 71.1168 33.2204C71.2084 33.2628 71.3013 33.3222 71.3601 33.405C71.433 33.5085 71.444 33.6419 71.4337 33.7635C71.4156 33.9718 71.3324 34.1906 71.2421 34.3782Z" fill="#CA0031"/>
<path fill-rule="evenodd" clip-rule="evenodd" d="M72.5951 31.6979C73.1068 31.4381 73.6083 31.1434 74.0732 30.8045C74.4562 30.5256 74.835 30.2022 75.1368 29.8343C75.5002 29.3911 75.7506 28.83 75.6242 28.2469C75.5656 27.9773 75.4324 27.736 75.2415 27.5394C75.0628 27.3552 74.8399 27.2176 74.5996 27.1321C74.0954 26.9529 73.5213 27.008 73.08 27.3215C72.5876 27.6717 72.3139 28.2875 72.1597 28.8558C71.9509 29.6264 71.9015 30.4874 71.9142 31.2827L71.926 32.0368L72.5951 31.6979ZM73.5235 30.0372C73.3121 30.1913 73.0918 30.3346 72.8669 30.4692C72.8907 30.0102 72.948 29.5402 73.0659 29.1059C73.1566 28.772 73.3281 28.305 73.6217 28.0961C73.8139 27.9595 74.0702 27.9489 74.2873 28.0261C74.392 28.0634 74.4919 28.1228 74.5698 28.2027C74.6359 28.2713 74.685 28.3538 74.7053 28.4476C74.7649 28.7241 74.5773 29.0284 74.4113 29.2303C74.1612 29.5356 73.8408 29.8059 73.5235 30.0372Z" fill="#CA0031"/>
<path fill-rule="evenodd" clip-rule="evenodd" d="M71.7041 27.0841C72.2551 26.8295 72.7747 26.4877 73.2201 26.0802C73.6196 25.7147 73.9991 25.2569 74.2166 24.7623C74.3415 24.4778 74.4032 24.1639 74.3648 23.8544C74.3373 23.6346 74.2589 23.4245 74.1267 23.2438C73.9906 23.058 73.8075 22.9161 73.5924 22.8261C73.3293 22.7159 73.0403 22.6919 72.7579 22.7258C72.7012 22.7325 72.6444 22.7422 72.5887 22.7556C71.895 22.9219 71.4531 23.5488 71.214 24.1661C70.9582 24.8276 70.8726 25.6131 70.9598 26.3153C70.9792 26.471 71.0071 26.626 71.0454 26.7782L71.1829 27.325L71.7041 27.0841ZM71.8717 25.944C71.8481 25.4561 71.9228 24.9353 72.0947 24.4903C72.2135 24.184 72.4555 23.7349 72.813 23.6491C72.8324 23.6446 72.8527 23.6404 72.8724 23.6382C72.9862 23.6247 73.1151 23.627 73.2221 23.6718C73.2778 23.6949 73.3257 23.7298 73.3611 23.7782C73.4011 23.8329 73.4221 23.9002 73.4307 23.9665C73.4487 24.1116 73.4087 24.2677 73.3503 24.4006C73.1853 24.7764 72.879 25.1326 72.5759 25.4097C72.3597 25.608 72.1226 25.7871 71.8717 25.944Z" fill="#CA0031"/>
<path fill-rule="evenodd" clip-rule="evenodd" d="M68.0515 35.9114C68.3056 35.0954 68.4769 34.0601 68.2769 33.2182C68.214 32.9543 68.1093 32.691 67.9414 32.4711C67.7659 32.2407 67.5338 32.0722 67.2468 31.9905C67.0027 31.9209 66.7485 31.9257 66.5017 31.979C66.2141 32.0412 65.9456 32.1653 65.7436 32.3737C65.5774 32.5448 65.4744 32.7522 65.4312 32.9817C65.3891 33.2048 65.4071 33.4355 65.4596 33.6557C65.677 34.5714 66.5261 35.5052 67.2288 36.1262L67.8214 36.6503L68.0515 35.9114ZM67.2973 33.4314C67.3977 33.8523 67.3682 34.3547 67.2896 34.8133C66.9221 34.4099 66.5489 33.9053 66.4388 33.4429C66.4171 33.3513 66.4031 33.2447 66.4205 33.1515C66.4295 33.1055 66.4469 33.0605 66.4806 33.0258C66.5398 32.9648 66.6425 32.9313 66.7248 32.9134C66.7997 32.8975 66.887 32.8888 66.9619 32.9099C67.0321 32.9297 67.0866 32.9798 67.1288 33.035C67.2141 33.147 67.2656 33.2977 67.2973 33.4314Z" fill="#CA0031"/>
</svg>
