<svg width="201" height="100" viewBox="0 0 201 100" fill="none" xmlns="http://www.w3.org/2000/svg">
<path d="M90.8655 34.2457L100.338 24.6606L109.814 34.2535L115.323 28.6732L100.338 13.5L85.353 28.6693L90.8655 34.2457Z" fill="#F3BA2F"/>
<path d="M75.948 38.187L81.4584 32.6088L86.9688 38.187L81.4584 43.7653L75.948 38.187Z" fill="#F3BA2F"/>
<path d="M90.8655 42.1267L100.338 51.7157L109.814 42.1228L115.327 47.6953L115.323 47.6992L100.338 62.8724L85.353 47.707L85.3453 47.6992L90.8655 42.1267Z" fill="#F3BA2F"/>
<path d="M113.698 38.1885L119.208 32.6102L124.719 38.1885L119.208 43.7667L113.698 38.1885Z" fill="#F3BA2F"/>
<path d="M105.927 38.1843L100.338 32.5221L96.2045 36.7063L95.7269 37.186L94.7484 38.1765L94.7407 38.1843L94.7484 38.196L100.338 43.8503L105.927 38.1882L105.931 38.1843H105.927Z" fill="#F3BA2F"/>
<path d="M57.3333 74.2141H62.8614C64.2327 74.2141 65.2701 74.5738 65.9736 75.2931C66.2386 75.5588 66.4475 75.8762 66.5877 76.2261C66.7279 76.5761 66.7963 76.9512 66.7889 77.3287V77.3628C66.7937 77.6721 66.7512 77.9803 66.6628 78.2764C66.5841 78.5312 66.4699 78.7735 66.3235 78.9957C66.1871 79.2052 66.022 79.3941 65.8332 79.5567C65.6488 79.7174 65.4467 79.8562 65.231 79.9703C65.8531 80.1896 66.4124 80.5601 66.86 81.0492C67.2555 81.5048 67.4533 82.1342 67.4533 82.9374V82.9716C67.4645 83.4732 67.3567 83.9703 67.1389 84.421C66.9278 84.8362 66.6184 85.1921 66.2383 85.4568C65.8085 85.7484 65.33 85.9586 64.826 86.0771C64.2273 86.2209 63.6135 86.2903 62.9981 86.2839H57.3333V74.2141ZM62.3071 79.0946C62.7854 79.118 63.2614 79.0138 63.6874 78.7924C63.8535 78.6942 63.9891 78.5509 64.0789 78.3786C64.1687 78.2063 64.2091 78.0121 64.1954 77.8178V77.7836C64.2042 77.6046 64.1683 77.4263 64.091 77.265C64.0137 77.1038 63.8975 76.9649 63.7531 76.8611C63.4582 76.6489 63.0325 76.5428 62.4759 76.5428H59.8895V79.0946H62.3071ZM63.0052 83.9588C63.4817 83.9858 63.956 83.8755 64.3731 83.6405C64.5355 83.5349 64.667 83.387 64.7539 83.2125C64.8407 83.0379 64.8797 82.8429 64.8669 82.6479V82.6137C64.8733 82.4283 64.8347 82.2442 64.7545 82.0774C64.6743 81.9106 64.5549 81.7663 64.4068 81.6571C64.1013 81.4173 63.6074 81.2974 62.9253 81.2974H59.8895V83.9588H63.0052Z" fill="#F3BA2F"/>
<path d="M70.7467 74.2141H73.3704V86.2875H70.7467V74.2141Z" fill="#F3BA2F"/>
<path d="M77.3407 74.2141H79.7601L85.3522 81.6445V74.2141H87.9421V86.2875H85.7092L79.9342 78.6126V86.2875H77.3407V74.2141Z" fill="#F3BA2F"/>
<path d="M95.8861 74.1278H98.302L103.413 86.2876H100.673L99.5828 83.5794H94.5396L93.4489 86.2876H90.7737L95.8861 74.1278ZM98.6466 81.2345L97.0585 77.3179L95.4775 81.2345H98.6466Z" fill="#F3BA2F"/>
<path d="M106.25 74.2141H108.669L114.257 81.6445V74.2141H116.847V86.2875H114.614L108.839 78.6126V86.2875H106.25V74.2141Z" fill="#F3BA2F"/>
<path d="M126.291 86.4997C125.455 86.507 124.626 86.3431 123.853 86.0178C123.127 85.714 122.467 85.266 121.914 84.7002C121.361 84.1344 120.925 83.4623 120.633 82.7234C120.324 81.9506 120.168 81.124 120.173 80.2904V80.2562C120.159 78.613 120.784 77.0302 121.912 75.8487C122.467 75.2716 123.132 74.8141 123.866 74.5036C124.665 74.1687 125.522 74.0017 126.387 74.0127C126.898 74.0089 127.408 74.0552 127.911 74.1512C128.341 74.2335 128.761 74.3606 129.165 74.5306C129.531 74.6868 129.88 74.8834 130.204 75.1168C130.52 75.3445 130.817 75.5983 131.092 75.8757L129.424 77.825C128.998 77.4269 128.52 77.0899 128.003 76.8234C127.496 76.5777 126.939 76.4546 126.376 76.4637C125.908 76.4587 125.444 76.5545 125.015 76.7449C124.586 76.9352 124.202 77.2158 123.889 77.5679C123.578 77.919 123.335 78.3258 123.171 78.7673C123 79.2338 122.914 79.728 122.917 80.2257V80.2598C122.916 80.7568 123.002 81.2501 123.171 81.7164C123.333 82.1595 123.574 82.5686 123.882 82.923C124.193 83.2795 124.576 83.5641 125.005 83.7577C125.434 83.9513 125.899 84.0493 126.369 84.0451C126.967 84.0642 127.561 83.9339 128.097 83.6657C128.608 83.3838 129.081 83.0356 129.502 82.6299L131.172 84.3383C130.877 84.6622 130.558 84.9628 130.218 85.2374C129.884 85.5049 129.521 85.7335 129.136 85.9189C128.726 86.1143 128.295 86.2586 127.85 86.3487C127.337 86.4529 126.814 86.5035 126.291 86.4997Z" fill="#F3BA2F"/>
<path d="M134.268 74.2141H143.244V76.577H136.849V79.0262H142.481V81.3891H136.858V83.9246H143.333V86.2875H134.274L134.268 74.2141Z" fill="#F3BA2F"/>
</svg>
