<svg width="201" height="100" viewBox="0 0 201 100" fill="none" xmlns="http://www.w3.org/2000/svg">
<path d="M105.688 28.0717C105.688 21.0522 102.302 15.0013 99.7197 13.0242C99.7197 13.0242 99.522 12.9048 99.5484 13.1967C99.3112 26.8243 92.4464 30.4469 88.6648 35.3964C82.9068 42.5353 83.9873 53.0048 91.0629 58.7903C92.6177 60.0642 94.3965 61.0461 96.307 61.6698C100.932 62.9702 95.2266 59.3874 94.5019 51.8106C93.6191 42.6016 105.688 35.6618 105.688 28.0717Z" fill="#1C2143"/>
<path d="M110.221 32.7427C110.182 32.6896 110.116 32.6763 110.063 32.7028C110.05 32.7161 110.037 32.7294 110.023 32.7427C109.154 35.9008 107.678 38.8731 105.675 41.4606C97.73 52.8325 102.276 58.3128 104.819 61.179C106.281 62.8907 104.819 61.179 108.521 59.4274C112.975 56.9195 115.94 52.3946 116.467 47.2859C116.875 41.6995 114.543 36.2723 110.221 32.7427Z" fill="#2AAAE0"/>
<path d="M93.9981 77.7329C94.6426 77.7329 95.1651 77.2067 95.1651 76.5576C95.1651 75.9085 94.6426 75.3823 93.9981 75.3823C93.3536 75.3823 92.8311 75.9085 92.8311 76.5576C92.8311 77.2067 93.3536 77.7329 93.9981 77.7329Z" fill="#2AAAE0"/>
<path d="M61.7491 75.395V79.9356H57.2741V75.9869C57.2741 75.6614 57.0096 75.395 56.6864 75.395H55.1667V86.2475C55.1625 86.573 55.4228 86.8394 55.746 86.8436H55.7922H57.3035V81.7746H61.7743V86.2517C61.7743 86.5773 62.0388 86.8436 62.362 86.8436H63.8733V75.9869C63.8733 75.6614 63.6088 75.395 63.2856 75.395H63.2814H61.7491ZM70.6237 78.2318V83.6728C70.6279 84.1675 70.3718 84.6283 69.952 84.8862C69.2258 85.3597 68.256 85.1483 67.7901 84.4169C67.6305 84.1675 67.5424 83.8758 67.5424 83.5798V78.8237C67.5424 78.4981 67.2779 78.2318 66.9546 78.2318H65.4434V83.7658C65.4518 85.5499 66.8833 86.9916 68.6548 87H69.5112C71.2828 86.9916 72.7143 85.5499 72.7227 83.7658V78.8237C72.7227 78.4981 72.4582 78.2318 72.135 78.2318H70.6237Z" fill="#1C2143"/>
<path d="M93.5321 86.8435H95.0434V79.1364C95.0434 78.8109 94.7789 78.5446 94.4557 78.5446H92.9528V86.2432C92.9486 86.5729 93.2089 86.8393 93.5321 86.8435Z" fill="#2AAAE0"/>
<path d="M78.1423 78.2275C76.0349 78.1303 74.2508 79.7706 74.1542 81.8887C74.1542 81.9225 74.15 81.9606 74.15 81.9944V83.1866C74.1836 85.3047 75.9216 86.9957 78.0248 86.9577C78.0626 86.9577 78.1045 86.9577 78.1423 86.9535C80.2455 87.0549 82.0297 85.4188 82.1304 83.305C82.1304 83.2669 82.1346 83.2246 82.1346 83.1866V81.9944C82.0968 79.8721 80.3547 78.1852 78.2473 78.2233C78.2095 78.2233 78.1759 78.2275 78.1423 78.2275ZM80.0104 83.3599C80.0104 84.4126 79.1624 85.2624 78.1213 85.2624C77.0802 85.2624 76.2322 84.4084 76.2322 83.3599V81.8718C76.2322 80.8191 77.0802 79.9693 78.1213 79.9693C79.1624 79.9693 80.0104 80.8233 80.0104 81.8718V83.3599Z" fill="#1C2143"/>
<path d="M87.5458 78.2276C86.8993 78.2276 86.257 78.3756 85.6735 78.663V75.9996C85.6735 75.6741 85.409 75.4077 85.0857 75.4077H83.5535V83.2205C83.5871 85.3386 85.325 87.0296 87.4282 86.9916C87.466 86.9916 87.508 86.9916 87.5458 86.9874C89.649 87.0888 91.4331 85.4527 91.5339 83.3389C91.5339 83.3008 91.5381 83.2585 91.5381 83.2205V82.0283C91.5171 79.906 89.7917 78.2022 87.6801 78.2234C87.6339 78.2234 87.5919 78.2234 87.5458 78.2276ZM89.4181 83.36C89.4181 84.4127 88.5701 85.2625 87.529 85.2625C86.4837 85.2625 85.6399 84.4085 85.6399 83.36V81.8719C85.6399 80.8192 86.4879 79.9694 87.529 79.9694C88.5743 79.9694 89.4181 80.8234 89.4181 81.8719V83.36Z" fill="#2AAAE0"/>
<path d="M128.271 78.1218C127.624 78.1218 126.982 78.2698 126.398 78.5573V75.8939C126.398 75.5683 126.134 75.302 125.811 75.302H124.299V83.1147C124.333 85.2328 126.071 86.9239 128.174 86.8858C128.212 86.8858 128.254 86.8858 128.292 86.8816C130.395 86.9831 132.179 85.347 132.28 83.2331C132.28 83.1951 132.284 83.1528 132.284 83.1147V81.9225C132.263 79.8002 130.537 78.0965 128.43 78.1176C128.38 78.1176 128.325 78.1176 128.271 78.1218ZM130.143 83.25C130.143 84.3027 129.295 85.1525 128.254 85.1525C127.208 85.1525 126.365 84.2985 126.365 83.25V81.7619C126.365 80.7092 127.213 79.8594 128.254 79.8594C129.299 79.8594 130.143 80.7134 130.143 81.7619V83.25ZM108.595 79.9778H104.497V81.1024C104.497 81.449 104.779 81.7323 105.123 81.7323H107.071V82.7258C107.1 83.3177 106.894 83.8969 106.496 84.3323C105.509 85.2666 103.981 85.3131 102.94 84.438C102.386 83.8926 102.268 83.2965 102.268 81.0897C102.268 78.8828 102.386 78.2994 102.94 77.754C103.465 77.3059 104.124 77.0565 104.812 77.0438C107.05 77.0438 107.801 77.8428 108.359 78.57H108.435V76.9761C108.435 76.7309 108.326 76.4984 108.137 76.3462C107.201 75.5937 106.265 75.3147 104.657 75.3147C103.427 75.2766 102.235 75.7163 101.319 76.5449C100.073 77.661 100.073 78.9336 100.073 81.022V81.1869C100.073 83.2796 100.073 84.5479 101.319 85.664C103.272 87.3467 106.164 87.3128 108.074 85.5837C108.872 84.8101 109.195 83.3304 109.195 81.8168V80.5612C109.17 80.2441 108.914 79.9905 108.595 79.9778ZM114.648 86.8436V85.5119C114.648 85.1948 114.392 84.9411 114.081 84.9411H113.028C112.167 84.9411 112.209 84.5057 112.209 83.3853V75.8473C112.209 75.5303 111.953 75.2766 111.642 75.2766H110.097V83.6474C110.097 85.6683 110.614 86.852 112.78 86.852H114.652L114.648 86.8436ZM146.146 86.8943V85.5584C146.158 85.2413 145.919 84.9749 145.604 84.9623C145.6 84.9623 145.6 84.9623 145.596 84.9623H144.542C143.681 84.9623 143.723 84.5268 143.723 83.4065V75.915C143.723 75.5979 143.467 75.3443 143.157 75.3443H141.612V83.7024C141.612 85.7232 142.128 86.907 144.294 86.907H146.167L146.146 86.8943ZM119.4 78.1092C117.293 78.0119 115.509 79.6523 115.412 81.7703C115.412 81.8042 115.408 81.8422 115.408 81.876V83.0767C115.441 85.1948 117.179 86.8858 119.283 86.8478C119.32 86.8478 119.362 86.8478 119.4 86.8436C121.503 86.945 123.288 85.3089 123.388 83.1951C123.388 83.157 123.392 83.1147 123.392 83.0767V81.8845C123.359 79.7622 121.621 78.0711 119.514 78.1049C119.476 78.1049 119.438 78.1049 119.4 78.1092ZM121.273 83.2374C121.273 84.29 120.425 85.1398 119.383 85.1398C118.338 85.1398 117.494 84.2858 117.494 83.2374V81.7407C117.494 80.6881 118.342 79.8383 119.383 79.8383C120.429 79.8383 121.273 80.6923 121.273 81.7407V83.2374ZM139.572 78.8786C138.778 78.329 137.825 78.0584 136.864 78.1176C136.406 78.1176 135.945 78.1514 135.491 78.2106C135.109 78.2614 134.576 78.3375 134.207 78.4178C134.055 78.4558 134.026 78.5742 134.026 78.7137V79.851C134.026 80.0539 134.026 80.2399 134.244 80.185C134.643 80.0835 135.416 79.9144 135.621 79.8763C135.978 79.8214 136.335 79.7918 136.696 79.796C137.162 79.7622 137.632 79.8721 138.035 80.1089C138.354 80.3837 138.514 80.8064 138.459 81.225V81.2884H137.2C136.713 81.2884 136.226 81.3433 135.751 81.4575C135.311 81.5632 134.887 81.745 134.505 81.9902C134.148 82.2227 133.85 82.5313 133.631 82.8991C133.413 83.2796 133.304 83.7151 133.308 84.1548C133.296 84.5902 133.392 85.0214 133.581 85.4104C133.766 85.7571 134.039 86.053 134.366 86.2728C134.748 86.5138 135.172 86.6787 135.613 86.7548C136.125 86.8563 136.646 86.9028 137.166 86.8985C137.578 86.8985 140.567 86.8563 140.567 85.4273V81.2926C140.634 80.3837 140.264 79.4874 139.572 78.8786ZM138.434 82.9372V85.1398C138.27 85.1694 138.09 85.1948 137.897 85.2159C137.426 85.2624 136.956 85.2624 136.486 85.2159C136.301 85.199 136.117 85.1483 135.949 85.0637C135.793 84.9834 135.659 84.8692 135.562 84.7255C135.449 84.5353 135.399 84.3154 135.411 84.0956C135.386 83.7278 135.558 83.3726 135.865 83.1739C136.318 82.9287 136.83 82.8188 137.342 82.8526H137.968L138.434 82.9372Z" fill="#1C2143"/>
</svg>
