<svg width="200" height="100" viewBox="0 0 200 100" fill="none" xmlns="http://www.w3.org/2000/svg">
<path d="M102.565 24.3226C102.464 24.405 102.357 24.4797 102.244 24.5461C101.988 24.5723 101.782 24.3314 101.521 24.4065C101.329 24.4414 101.199 24.6002 101.034 24.691C100.668 24.4885 100.252 24.7067 99.9869 24.9738C99.7669 25.0541 99.6587 24.8516 99.4911 24.7801C99.3619 25.1886 99.6569 25.6966 100.106 25.7123C100.295 25.7417 100.489 25.7112 100.66 25.6252C100.831 25.5391 100.971 25.4017 101.061 25.2322C101.082 25.1606 101.115 25.0699 101.193 25.0576C101.455 25.2462 101.762 25.4208 102.099 25.3073C102.504 25.2182 102.726 24.7556 102.663 24.368C102.66 24.3584 102.655 24.3495 102.648 24.3419C102.642 24.3343 102.633 24.3282 102.624 24.3239C102.615 24.3197 102.605 24.3174 102.595 24.3171C102.585 24.3169 102.575 24.3188 102.565 24.3226ZM98.3563 24.3645C98.4611 24.5391 98.4436 24.7818 98.5117 24.9773C98.7474 25.742 99.0965 26.5067 99.6919 27.0618C100.149 27.516 100.731 27.8241 101.364 27.947C102.004 28.0718 102.665 28.0174 103.276 27.7897C103.886 27.562 104.421 27.1699 104.823 26.6568C105.114 26.264 105.385 25.8118 105.429 25.3195L105.359 25.3282C105.194 25.5504 104.994 25.7443 104.767 25.9026C103.908 26.5102 102.576 26.3146 101.965 25.447C101.748 25.4498 101.535 25.3963 101.345 25.2916C101.296 25.2485 101.235 25.2196 101.171 25.2078C101.163 25.2667 101.144 25.3235 101.114 25.3748C101.084 25.4261 101.044 25.4709 100.996 25.5063C100.977 25.5141 100.961 25.5268 100.949 25.543C100.937 25.5592 100.93 25.5783 100.928 25.5984C100.926 25.6184 100.93 25.6386 100.938 25.6568C100.947 25.675 100.96 25.6906 100.977 25.7018C101.208 25.9719 101.497 26.1872 101.822 26.3321C102.894 26.8558 104.227 26.5643 105.125 25.8241C104.725 26.9292 103.618 27.6764 102.48 27.8405C101.794 27.8859 101.066 27.8178 100.465 27.4546C99.9145 27.1409 99.4618 26.6804 99.1576 26.1243C98.8414 25.5817 98.6383 24.9807 98.5606 24.3576C99.1035 24.3122 99.643 24.2511 100.186 24.1987C100.216 24.3279 100.245 24.4553 100.273 24.5845C100.525 24.5383 100.783 24.533 101.036 24.5688C101.167 24.4064 101.385 24.3785 101.544 24.2668C101.553 24.169 101.555 24.0713 101.555 23.9717C102.838 23.7238 104.137 23.4148 105.28 22.7636C105.942 22.3848 106.597 21.7493 106.556 20.9288L106.539 20.9515C106.354 21.2361 106.043 21.3844 105.746 21.5224C104.001 22.2207 102.12 22.5419 100.266 22.83C98.5414 23.095 96.7953 23.195 95.0515 23.1285C94.5836 23.0534 94.0267 23.0761 93.6671 22.7165C93.71 23.0014 93.842 23.2654 94.0442 23.4707C94.4317 23.8967 95.0009 24.08 95.5438 24.2179C96.4699 24.3972 97.4166 24.4466 98.3563 24.3645ZM94.2868 23.4288C94.512 23.3956 94.7111 23.235 94.9345 23.235C95.2226 23.448 95.467 23.7186 95.769 23.9141C96.1077 23.7814 96.3626 23.4882 96.696 23.3415C96.7468 23.3436 96.7953 23.3627 96.834 23.3956C97.0627 23.5702 97.2879 23.7448 97.5218 23.9194H97.6964C97.8989 23.7448 98.1171 23.5894 98.3231 23.4183C98.3586 23.3824 98.4032 23.3568 98.4521 23.3442C98.5009 23.3316 98.5523 23.3325 98.6007 23.3467C98.8818 23.5004 99.1245 23.7238 99.4178 23.853C99.7844 23.7256 99.9415 23.2839 100.312 23.1547C100.614 23.2612 100.888 23.4305 101.185 23.565C101.229 23.5833 101.279 23.5871 101.326 23.5758C101.373 23.5645 101.415 23.5387 101.446 23.5021C101.579 23.3153 101.775 23.1826 101.909 22.9958C101.972 22.8963 102.101 22.7567 102.234 22.8212C102.567 22.9173 102.873 23.1233 103.222 23.1442C103.475 22.9016 103.655 22.5925 103.898 22.3377C104.166 22.2905 104.397 22.4686 104.655 22.5122C104.795 22.5384 104.98 22.6711 105.104 22.5437C105.31 22.2678 105.453 21.9483 105.683 21.6865C105.858 21.6865 106.043 21.6742 106.223 21.6865C106.1 21.9485 105.907 22.1718 105.666 22.3324C104.947 22.8928 104.067 23.1914 103.204 23.4463C102.338 23.6918 101.455 23.8727 100.561 23.9875C100.132 24.0503 99.6884 24.0678 99.2659 24.162C98.8294 24.1079 98.393 24.286 97.9495 24.2109C97.5602 24.2336 97.1761 24.2109 96.7868 24.2388C95.9907 24.1358 95.1423 24.0887 94.4562 23.6243C94.3986 23.5562 94.2641 23.5266 94.2868 23.4288ZM103.33 29.3646C103.018 29.238 102.692 29.1484 102.359 29.0975C101.567 28.9888 100.767 28.9531 99.9677 28.991C99.4435 29.0188 98.9216 29.08 98.4052 29.1743C98.1014 29.2389 97.7645 29.3209 97.5532 29.5636C97.5532 29.6701 97.6388 29.7521 97.7139 29.8167C98.3127 30.11 98.9918 30.1397 99.6343 30.2148C100.507 30.2148 101.392 30.2602 102.262 30.117C102.705 30.0384 103.224 30.0105 103.552 29.6648C103.592 29.513 103.445 29.4204 103.327 29.3628L103.33 29.3646ZM93.8661 22.6763C94.0169 22.7719 94.1846 22.8377 94.3602 22.8701C94.3514 22.7619 94.3497 22.5995 94.4771 22.5699C94.6531 22.6462 94.823 22.7361 94.9852 22.8387C95.0655 22.8806 95.151 22.9452 95.247 22.9085C95.4914 22.6921 95.5159 22.3289 95.6852 22.0618C95.9157 22.0182 96.0344 22.2486 96.2264 22.3342C96.3521 22.3848 96.4569 22.5541 96.6053 22.521C96.8497 22.3115 96.9178 21.9763 97.0854 21.7127C97.4345 21.7004 97.6231 22.1037 97.9356 22.2172C98.2236 22.1282 98.2306 21.7668 98.4366 21.5887C98.4017 21.8715 98.3912 22.1578 98.3685 22.4424C98.3799 22.4606 98.3965 22.4748 98.4161 22.4832C98.4358 22.4917 98.4576 22.4939 98.4785 22.4895C98.9537 22.5085 99.4296 22.4881 99.9014 22.4284C100.512 22.3481 101.146 22.2713 101.698 21.9763C101.724 21.8785 101.663 21.8017 101.63 21.7092C101.535 21.4948 101.455 21.2743 101.391 21.0492C101.682 21.1523 101.766 21.5259 102.054 21.6358C102.387 21.5852 102.403 21.1121 102.66 20.9602C102.681 20.9473 102.706 20.9393 102.731 20.9367C102.756 20.934 102.781 20.9369 102.805 20.945C102.829 20.9532 102.851 20.9664 102.869 20.9838C102.888 21.0011 102.902 21.0223 102.911 21.0458C103.022 21.1919 103.146 21.328 103.281 21.4525C103.342 21.5712 103.503 21.5276 103.592 21.4682C103.727 21.2569 103.876 21.055 104.039 20.8642C104.07 20.8576 104.102 20.8584 104.132 20.8666C104.162 20.8748 104.19 20.8901 104.214 20.9113C104.352 21.1069 104.503 21.293 104.666 21.4682C104.687 21.4852 104.712 21.4977 104.738 21.5051C104.764 21.5124 104.792 21.5144 104.819 21.511C104.846 21.5076 104.872 21.4988 104.896 21.4852C104.92 21.4716 104.941 21.4533 104.957 21.4316C105.093 21.2832 105.21 21.1173 105.362 20.9812C105.684 20.8293 105.549 21.3303 105.778 21.3303C105.995 21.2373 106.192 21.1026 106.357 20.934C106.459 20.7699 106.314 20.7472 106.233 20.6861C105.842 20.5436 105.428 20.4704 105.011 20.4696C104.231 20.3841 103.44 20.4696 102.67 20.5011C102.183 20.5307 101.698 20.5744 101.214 20.625C101.022 20.1258 100.755 19.6589 100.422 19.2406C100.306 19.1088 100.156 19.011 99.9886 18.9578C99.8213 18.9046 99.6427 18.898 99.4719 18.9386C99.3941 18.954 99.3203 18.9855 99.2554 19.0311C98.7613 19.4204 98.6636 20.096 98.5292 20.6687C98.4873 20.7699 98.5484 21.0178 98.3738 21.0266C97.2976 21.216 96.2355 21.4779 95.1946 21.8104C94.7233 21.985 94.1926 22.1229 93.8347 22.5087C93.8172 22.5576 93.7997 22.6397 93.8661 22.6746V22.6763ZM98.7823 20.2322C98.8225 19.9721 98.9209 19.7244 99.0704 19.5077C99.1088 19.4955 99.1472 19.4867 99.1873 19.4763C99.2638 19.4916 99.3355 19.5252 99.3963 19.5741C99.4571 19.623 99.5052 19.6859 99.5365 19.7573C99.7739 20.3806 99.7669 21.0597 99.8857 21.7092C100.345 21.6634 100.797 21.5614 101.232 21.4054C101.336 21.36 101.378 21.463 101.382 21.5503C101.122 21.69 100.813 21.7109 100.533 21.7947C100.034 21.8955 99.5257 21.9469 99.0162 21.9483C98.8625 21.9777 98.7044 21.9748 98.5518 21.9396C98.583 21.3649 98.6618 20.7938 98.7875 20.2322H98.7823ZM98.5641 22.1526C98.8191 22.1936 99.079 22.1936 99.334 22.1526C100.04 22.1257 100.738 21.9952 101.406 21.765C101.527 21.683 101.546 21.8558 101.483 21.9152C100.94 22.1509 100.345 22.2172 99.7634 22.294C99.3505 22.3359 98.9351 22.3482 98.5204 22.3307C98.5204 22.2678 98.496 22.1823 98.5641 22.1456V22.1526ZM91.8654 24.389C91.937 28.0185 94.4352 31.3722 97.9356 32.4093C103.065 34.1271 108.994 29.8342 108.887 24.3942C131.476 24.3471 176.93 24.3715 176.93 24.3715V24.087C176.93 24.087 131.57 24.1044 108.887 24.073C108.875 19.1952 104.056 15.0122 99.2048 15.8973C95.151 16.3163 91.9858 20.0611 91.8724 24.0695C69.3357 24.1097 24.2413 24.087 24.2413 24.087V24.3611C24.2413 24.3611 69.0266 24.3384 91.8654 24.382V24.389ZM93.5763 19.8272C94.8193 17.7985 97.0504 16.5747 99.3479 16.1784C104.083 15.433 108.796 19.691 108.505 24.4658C108.494 24.6404 108.486 24.815 108.479 24.9896C108.276 30.4225 101.754 34.1935 96.93 31.6638C92.5916 29.7137 90.8284 23.778 93.5763 19.8202V19.8272ZM152.794 38.1582V37.8213H142.571V38.888H142.906V38.1582H152.794ZM136.825 56.4613L136.572 56.6027C136.686 56.8018 139.339 61.4666 141.429 63.0273L141.604 62.7952C139.561 61.2623 136.846 56.4997 136.825 56.4613ZM118.634 37.8091L116.555 51.4735H115.907V51.7965H116.857V51.7476L118.925 38.1478H122.192V37.8126L118.634 37.8091ZM146.52 51.4735V39.7382H146.183V51.4735H145.497V51.7965H146.52V51.4735ZM126.172 53.2927V52.432H125.416L123.238 38.9281H119.647L117.468 52.432H116.516V53.2927H117.328L115.523 64.4659H116.701L118.5 53.2927H121.707L123.334 63.9875L123.667 63.9369L122.049 53.2875H122.792L124.591 64.4607H127.361L125.556 53.2875L126.172 53.2927ZM118.637 52.432L120.148 43.0465L121.576 52.432H118.637ZM121.918 52.432L120.324 41.9571L120.645 39.9599L122.653 52.4372L121.918 52.432ZM153.246 63.7588C152.77 62.8109 152.787 62.8859 152.637 62.5839C150.867 63.5459 148.196 64.0993 146.471 62.8929C142.326 60.2952 141.422 54.9111 136.694 53.0867C141.824 52.2976 144.313 45.5238 140.904 41.5975C138.634 38.5109 134.444 38.7902 131.078 38.9788C131.054 41.2605 131.038 46.9152 131.036 52.4215H130.212V53.2822H131.04C131.04 58.3451 131.052 63.1234 131.078 64.8709C131.984 64.9442 132.894 64.8901 133.805 64.8709C133.863 61.1104 133.782 57.0427 133.835 53.2787C137.019 53.6279 137.85 57.7585 139.655 59.9128C142.36 64.3612 148.409 66.1419 153.246 63.7588ZM133.823 52.4268V51.8576V51.7808C133.966 51.7808 134.107 51.7913 134.245 51.7913C135.584 51.7913 136.637 51.4282 137.375 50.7106C138.821 49.3052 138.754 46.8402 138.72 45.5151L138.43 45.5238C138.465 46.8035 138.527 49.19 137.173 50.5029C136.417 51.2379 135.293 51.5696 133.83 51.491V51.6254C133.819 47.6956 133.8 43.7693 133.83 39.8377C135.675 39.7469 137.923 40.3946 138.676 42.2312C139.723 44.8045 139.784 47.8178 138.664 50.3737C137.822 52.1789 135.663 52.5612 133.823 52.4268ZM153.59 38.8758H143.629V39.7382H147.215L147.199 52.432H146.35V53.2927H147.199V59.3H149.992V53.2927H150.781V52.432H149.992V39.7382H153.58L153.59 38.8758ZM151.731 62.3517L151.586 62.1003C148.854 63.6803 146.899 62.1003 146.817 62.034L146.632 62.2574C147.064 62.5823 147.559 62.8162 148.084 62.9453C148.439 63.0372 148.805 63.0835 149.172 63.0832C150.075 63.0714 150.958 62.8188 151.731 62.3517ZM146.52 54.1359H146.183V58.6349H146.52V54.1359ZM155.654 54.1359H155.319V63.8182H155.654V54.1359ZM167.274 53.9317H166.939V63.6087H167.274V53.9317ZM130.376 54.1359H130.038V63.5825H130.375L130.376 54.1359ZM176.918 64.4519V63.579H170.869V62.947H176.263V62.6101H170.869V53.2927H171.614V52.432H170.872V38.8758H168.096L168.084 52.432H167.189V53.2927H168.075V64.4519H176.918ZM130.038 51.8018H130.375V38.146H135.472V37.8091H130.038V38.146V51.4735H129.388V51.7965H130.038V51.8018ZM130.375 77.8476V78.1863H177V77.8476H130.375ZM163.741 37.8091H155.654V38.146H163.741V37.8091ZM155.319 37.8091V51.4561H154.682V51.793H155.654V37.8091H155.319ZM165.181 64.4519V63.579H159.13V62.947H164.624V62.6101H159.132V53.2927H164.194V52.432H159.132V51.793H163.283V51.4561H159.135V39.7382H164.605V38.8758H156.351L156.338 52.432H155.486V53.2927H156.338L156.328 64.4519H165.181ZM167.276 51.793V38.146H169.999V37.8091H166.939V51.4561H166.319V51.793H167.276ZM77.225 37.8091L75.1475 51.4735H74.498V51.7965H75.4477V51.7476L77.5165 38.1478H80.7847V37.8126H77.2232L77.225 37.8091ZM51.0727 54.1359H50.7375V63.8182H51.0727V54.1359ZM74.9205 53.9858L74.5853 53.9351L73.1241 63.579L73.4593 63.6314L74.9205 53.9858ZM101.661 37.7811C103.424 37.7781 105.172 38.1037 106.815 38.7413L106.92 38.4707C104.76 37.6347 102.431 37.3261 100.128 37.5707C97.8251 37.8153 95.6136 38.6061 93.6775 39.8772C91.7414 41.1483 90.1366 42.8631 88.9964 44.8791C87.8562 46.8951 87.2136 49.154 87.122 51.4683H86.3661V51.7913H87.4048V51.5992C87.5209 47.8954 89.0738 44.3821 91.7346 41.8031C94.3955 39.224 97.9555 37.7816 101.661 37.7811ZM90.7184 80.4261L88.7823 71.9554H87.8622V84.2093H88.7823V75.7404L90.7184 84.2093H91.6018V71.9554H90.7184V80.4261ZM62.2895 37.8091V38.8758H62.6247V38.146H72.5113V37.8091H62.2895ZM81.7816 71.9554H81.2072V84.2093H84.3654V83.3469H82.0958V78.284H84.3654V77.4111H82.0958V72.8161H84.3654V71.9554H81.7816ZM75.6398 81.8263L74.3915 71.9519H73.3248L74.8699 84.2058H76.4027L77.9512 71.9519H76.8846L75.6398 81.8263ZM84.7617 53.2927V52.432H84.0075L81.827 38.9281H78.2376L76.057 52.432H75.1056V53.2927H75.9174L74.1139 64.4659H75.2906L77.0888 53.2927H80.2959L81.923 63.9875L82.2582 63.9369L80.6398 53.2875H81.3818L83.18 64.4607H85.9506L84.1471 53.2875L84.7617 53.2927ZM77.2285 52.432L78.7386 43.0465L80.1649 52.432H77.2285ZM80.5071 52.432L78.9149 41.9571L79.2344 39.9547L81.2421 52.432H80.5071ZM117.607 71.9554H117.033V84.2093H120.191V83.3469H117.922V78.284H120.191V77.4111H117.922V72.8161H120.191V71.9554H117.607ZM96.3294 71.9554H94.7931V72.8161H96.3294V84.2093H97.2163V72.8161H98.7544V71.9554H96.3294ZM113.173 79.2879C113.173 79.0183 113.114 78.7519 113.001 78.5072C112.888 78.2624 112.724 78.0451 112.518 77.8703C112.724 77.6954 112.888 77.4781 113.001 77.2334C113.114 76.9886 113.173 76.7222 113.173 76.4527V73.8182C113.173 73.3234 112.976 72.849 112.626 72.4991C112.276 72.1492 111.802 71.9524 111.307 71.9519H109.514V84.2058H110.395V78.3172H111.307C111.371 78.3172 111.438 78.3172 111.501 78.3067C111.727 78.3519 111.93 78.4739 112.077 78.6521C112.223 78.8303 112.303 79.0537 112.304 79.2844V84.2058H113.318V83.3469H113.173V79.2879ZM112.3 76.4527C112.3 76.6834 112.219 76.9069 112.073 77.0853C111.927 77.2638 111.723 77.3862 111.497 77.4321C111.433 77.425 111.368 77.4215 111.303 77.4216H110.392V72.8196H111.303C111.568 72.8201 111.821 72.9255 112.008 73.1127C112.195 73.2999 112.3 73.5537 112.3 73.8182V76.4527ZM104.723 77.6852V82.5421C104.687 82.7704 104.57 82.9783 104.394 83.1283C104.218 83.2784 103.994 83.3608 103.763 83.3608C103.532 83.3608 103.308 83.2784 103.132 83.1283C102.956 82.9783 102.839 82.7704 102.803 82.5421V71.9607H101.93V82.3745C101.93 82.8629 102.124 83.3314 102.469 83.6768C102.815 84.0222 103.283 84.2163 103.772 84.2163C104.26 84.2163 104.729 84.0222 105.074 83.6768C105.42 83.3314 105.614 82.8629 105.614 82.3745V71.9607H104.723V77.6852ZM112.808 58.5895C112.808 58.0815 112.134 57.9715 111.78 57.7393C110.474 59.8936 108.623 61.7826 106.275 62.7812C100.926 65.3999 94.0651 62.2208 92.0574 56.7511C89.6133 51.3094 91.4673 44.1272 96.6541 40.9864C100.853 38.2979 106.827 39.3698 110.052 43.1146C111.073 43.8216 111.488 46.5259 112.92 44.698C110.324 40.5081 105.395 37.727 100.422 38.263C93.3528 38.5633 87.5864 45.3056 88.0001 52.3115H87.4851V53.2944H88.1381C88.8085 58.5511 92.8029 63.1199 97.9146 64.5078C103.473 66.114 109.861 63.5598 112.808 58.5895ZM101.635 62.6887L101.626 62.9785H101.857C107.003 62.9785 110.586 58.4673 110.622 58.4219L110.394 58.2473C110.362 58.2927 106.761 62.8196 101.638 62.6887H101.635ZM125.35 71.7826C125.1 71.7708 124.851 71.8098 124.617 71.8972C124.382 71.9846 124.168 72.1186 123.987 72.291C123.806 72.4635 123.662 72.671 123.564 72.9007C123.465 73.1305 123.414 73.3779 123.414 73.6279V75.4034C123.414 76.1908 123.711 76.9491 124.247 77.5263L125.408 78.7798C125.945 79.3565 126.243 80.1149 126.244 80.9027V82.3675C126.245 82.5064 126.216 82.6439 126.16 82.7709C126.104 82.8979 126.021 83.0115 125.918 83.1042C125.814 83.1968 125.692 83.2663 125.56 83.3082C125.427 83.35 125.287 83.3632 125.149 83.3469C124.909 83.3109 124.689 83.1888 124.532 83.0032C124.375 82.8176 124.29 82.5811 124.294 82.3378V79.7994H123.435V82.3099C123.427 82.7906 123.604 83.256 123.928 83.611C124.252 83.966 124.7 84.1838 125.179 84.2198C125.429 84.2311 125.678 84.1918 125.912 84.1042C126.146 84.0166 126.359 83.8825 126.54 83.7101C126.721 83.5377 126.865 83.3305 126.963 83.1009C127.062 82.8714 127.113 82.6243 127.113 82.3745V80.5623C127.114 79.7749 126.816 79.0166 126.281 78.4394L125.12 77.1859C124.584 76.6087 124.287 75.8504 124.287 75.063V73.6279C124.287 73.4889 124.317 73.3515 124.374 73.2249C124.431 73.0982 124.515 72.9853 124.619 72.8934C124.724 72.8016 124.846 72.7331 124.979 72.6923C125.112 72.6516 125.252 72.6397 125.39 72.6573C125.631 72.6943 125.849 72.8171 126.006 73.0029C126.163 73.1887 126.248 73.4249 126.244 73.6681V76.4142H127.103V73.6873C127.109 73.2068 126.931 72.7422 126.606 72.3882C126.281 72.0343 125.833 71.8177 125.354 71.7826H125.35ZM115.993 53.9351L114.524 63.579L114.859 63.6314L116.326 53.9858L115.993 53.9351ZM43.6687 63.8182V44.0399H43.3335V63.8182H43.6687ZM50.7375 37.8056V51.4526H50.1003V51.7895H51.0727V37.8056H50.7375ZM47.0922 64.5165V53.2875H47.9651V52.4268H47.0922V38.9229H43.5482L35.7636 60.3964L35.5088 59.6981L43.2357 38.146H46.3328V37.8091H42.8743L35.2591 58.9963L28.0821 38.9281H24.5136V52.432H23.6617V53.2927H24.5136V64.4659H25.4529V42.8964L32.9162 63.6035H33.412L25.4529 41.5591V39.7347L34.2832 64.4642H35.4616L36.2647 62.2522L36.345 62.0287L44.3181 40.0507L44.2954 64.52L47.0922 64.5165ZM60.5996 64.4467V63.5738H54.5504V62.9418H60.0427V62.6049H54.5504V53.2875H59.6132V52.4268H54.5504V51.7878H58.7019V51.4509H54.5538V39.7329H60.0305V38.8705H51.7693L51.7588 52.4268H50.9051V53.2875H51.757L51.7466 64.4467H60.5996ZM59.1576 37.8091H51.0744V38.146H59.1576V37.8091ZM69.7197 39.7295H73.3074V38.867H63.3475V39.7295H66.9317L66.9212 52.4233H66.1042V53.284H66.9194V64.4572H69.7127V53.284H70.6398V52.4233H69.7127L69.7197 39.7295ZM66.2281 54.1272H65.8929V63.6209H66.2281V54.1272ZM23.5429 78.1863H70.1562V77.8476H23.5429V78.1863ZM66.2456 51.4753V39.7382H65.9104V51.4735H65.2225V51.7965H66.2456V51.4753ZM23.6355 63.6192H23.9724V54.1359H23.6355V63.6192ZM23.9724 51.4491V38.146H27.2493V37.8091H23.6355V51.4561H23V51.793H23.9724V51.4491Z" fill="#1F263B"/>
</svg>
