<svg width="16" height="16" viewBox="0 0 16 16" fill="none" xmlns="http://www.w3.org/2000/svg">
<g id="icon/&#233;&#146;&#177;&#229;&#140;&#133;">
<path id="Vector" d="M14.7154 3.59044C14.7154 2.45772 13.7445 1.48682 12.6118 1.48682H3.63091C2.49819 1.48682 1.52728 2.45772 1.52728 3.59044V12.5308C1.52728 13.6636 2.49819 14.6345 3.63091 14.6345H12.5713C13.704 14.6345 14.6749 13.6636 14.6749 12.5308V10.3059H9.94178C9.94178 10.2654 8.12134 10.4272 8.12134 8.16178C8.12134 5.73452 10.1036 5.89634 10.1036 5.89634H14.7154V3.59044V3.59044Z" fill="#1F263B"/>
<path id="Vector_2" d="M8.97089 8.12135C8.97089 9.69906 10.3868 9.53725 10.3868 9.53725H14.5536V6.50317H10.5082C10.5082 6.54363 8.97089 6.42226 8.97089 8.12135V8.12135ZM10.5486 7.43362C10.8318 7.43362 11.0745 7.67635 11.0745 7.95953C11.0745 8.1618 10.9531 8.32362 10.7913 8.44498C10.6295 8.52589 10.4272 8.52589 10.2654 8.44498C10.1036 8.36407 9.98224 8.1618 9.98224 7.95953C10.0227 7.67635 10.2654 7.43362 10.5486 7.43362V7.43362Z" fill="#1F263B"/>
</g>
</svg>
