<svg width="1000" height="160" viewBox="0 0 1000 160" fill="none" xmlns="http://www.w3.org/2000/svg">
<path d="M1000 0L1000 75L400 74.9999L300 160L-6.99382e-06 160L0 -4.37114e-05L1000 0Z" fill="url(#paint0_linear_649_2538)"/>
<path d="M857.141 19.896H850.757V31H852.549V26.28H856.821V24.712H852.549V21.48H857.141V19.896ZM859.097 25.448C859.097 29.864 860.697 31.16 863.977 31.16C867.305 31.128 868.809 29.912 868.857 25.448C868.809 21.032 867.305 19.768 863.977 19.736C860.697 19.736 859.097 21.048 859.097 25.448ZM866.969 25.448C866.937 28.6 866.457 29.576 863.977 29.64C861.497 29.576 861.017 28.6 860.985 25.448C861.017 22.344 861.513 21.304 863.977 21.24C866.457 21.304 866.937 22.344 866.969 25.448ZM877.851 31H879.963L876.715 26.472C878.235 26.088 878.923 25.112 878.923 23.256C878.923 20.776 877.739 19.896 874.667 19.896H871.499V31H873.291V26.68H874.667H874.955L877.851 31ZM873.291 25.272V21.384H874.443C876.411 21.384 877.115 21.72 877.115 23.256C877.067 24.968 876.475 25.256 874.443 25.272H873.291ZM887.751 19.896H885.959V31H892.423V29.4H887.751V19.896ZM904.154 31L899.994 19.896H897.594L893.402 31H895.258L896.378 27.896H901.146L902.25 31H904.154ZM898.682 21.528H898.874L900.602 26.344H896.938L898.682 21.528ZM905.842 19.896V31H909.554C912.546 31 913.458 29.896 913.458 27.816C913.458 26.408 912.898 25.544 911.506 25.24V25.176C912.642 24.84 913.122 24.056 913.122 22.856C913.122 20.808 912.21 19.896 909.234 19.896H905.842ZM907.634 24.648V21.368H908.626C910.738 21.4 911.266 21.544 911.346 23C911.346 24.328 910.594 24.648 908.626 24.648H907.634ZM907.634 29.496V26.024H908.994C911.058 26.024 911.65 26.472 911.65 27.752C911.65 29.176 911.106 29.496 908.994 29.496H907.634ZM917.872 26.008H922.144V24.504H917.872V21.48H922.464V19.896H916.08V31H922.8V29.4H917.872V26.008ZM926.954 19.896H925.162V31H931.626V29.4H926.954V19.896ZM935.348 31V19.896H933.556V31H935.348ZM940.054 31V21.704H940.15L945.014 31H947.43V19.896H945.654V28.648H945.558L941.078 19.896H938.294V31H940.054ZM950.056 25.448C950.104 29.992 951.848 31.144 955.352 31.16C956.648 31.16 957.896 30.952 958.792 30.68V24.888H955V26.392H957.096V29.464C956.664 29.576 956.136 29.624 955.512 29.624C952.984 29.592 952.024 28.888 951.976 25.448C951.976 22.2 953.16 21.304 955.592 21.304C956.712 21.304 957.656 21.448 958.408 21.752V20.152C957.768 19.896 956.552 19.736 955.48 19.736C953.704 19.736 952.344 20.168 951.432 21.048C950.52 21.928 950.056 23.384 950.056 25.448ZM815.517 43.896V55H818.925C820.669 55 821.997 54.584 822.909 53.752C823.837 52.904 824.301 51.48 824.301 49.448C824.253 44.936 822.381 43.928 818.925 43.896H815.517ZM817.309 53.432V45.432H818.861C821.133 45.432 822.445 46.248 822.445 49.448C822.445 50.936 822.141 51.96 821.549 52.552C820.957 53.144 820.061 53.432 818.861 53.432H817.309ZM828.575 50.008H832.847V48.504H828.575V45.48H833.167V43.896H826.783V55H833.503V53.4H828.575V50.008ZM842.057 55H844.169L840.921 50.472C842.441 50.088 843.128 49.112 843.128 47.256C843.128 44.776 841.945 43.896 838.873 43.896H835.705V55H837.497V50.68H838.873H839.161L842.057 55ZM837.497 49.272V45.384H838.649C840.617 45.384 841.321 45.72 841.321 47.256C841.273 48.968 840.681 49.256 838.649 49.272H837.497ZM847.528 55V43.896H845.736V55H847.528ZM855.194 55L859.034 43.896H857.194L854.17 53.096H854.074L851.114 43.896H849.162L852.954 55H855.194ZM869.005 55L864.845 43.896H862.445L858.253 55H860.109L861.229 51.896H865.997L867.101 55H869.005ZM863.533 45.528H863.725L865.453 50.344H861.789L863.533 45.528ZM868.131 43.896V45.48H871.251V55H873.043V45.48H876.163V43.896H868.131ZM879.622 55V43.896H877.83V55H879.622ZM887.288 55L891.128 43.896H889.288L886.264 53.096H886.168L883.208 43.896H881.256L885.048 55H887.288ZM894.559 50.008H898.831V48.504H894.559V45.48H899.151V43.896H892.767V55H899.487V53.4H894.559V50.008ZM909.558 55L911.67 47.208H911.766L913.83 55H916.102L918.694 43.896H916.854L914.95 52.872H914.854L912.822 45.112H910.71L908.662 52.872H908.566L906.662 43.896H904.774L907.302 55H909.558ZM919.916 49.448C919.916 53.864 921.516 55.16 924.796 55.16C928.124 55.128 929.628 53.912 929.676 49.448C929.628 45.032 928.124 43.768 924.796 43.736C921.516 43.736 919.916 45.048 919.916 49.448ZM927.788 49.448C927.756 52.6 927.276 53.576 924.796 53.64C922.316 53.576 921.836 52.6 921.804 49.448C921.836 46.344 922.332 45.304 924.796 45.24C927.276 45.304 927.756 46.344 927.788 49.448ZM938.51 55H940.622L937.374 50.472C938.894 50.088 939.582 49.112 939.582 47.256C939.582 44.776 938.398 43.896 935.326 43.896H932.158V55H933.95V50.68H935.326H935.614L938.51 55ZM933.95 49.272V45.384H935.102C937.07 45.384 937.774 45.72 937.774 47.256C937.726 48.968 937.134 49.256 935.102 49.272H933.95ZM950.509 43.896H948.333L944.701 48.392H943.981V43.896H942.189V55H943.981V49.912H944.701L948.413 55H950.653L946.141 49.048L950.509 43.896ZM951.771 54.744C952.107 54.856 952.571 54.952 953.179 55.032C953.803 55.112 954.427 55.16 955.051 55.16C957.787 55.16 959.115 54.104 959.115 51.944C959.067 49.752 958.411 49.144 955.787 48.488C953.899 48.04 953.659 47.768 953.659 46.792C953.659 45.592 954.235 45.256 955.755 45.256C956.219 45.256 956.715 45.304 957.243 45.384C957.771 45.464 958.203 45.576 958.523 45.688V44.12C957.931 43.912 956.795 43.72 955.707 43.72C953.147 43.72 951.883 44.712 951.883 46.824C951.947 48.824 952.555 49.32 954.971 49.944C956.987 50.456 957.275 50.696 957.323 51.928C957.323 53.144 956.635 53.592 955.019 53.592C953.851 53.592 952.491 53.368 951.771 53.112V54.744Z" fill="white"/>
<path d="M305.18 35.6741C304.566 34.0206 303.669 32.4922 302.531 31.1606C301.432 29.8741 300.086 28.832 298.577 28.099C297.079 27.3691 295.438 26.9935 293.779 27.0001H271.371L268.926 36.8123H291.401C292.118 36.801 292.829 36.9625 293.474 37.2837C294.099 37.6064 294.659 38.0457 295.125 38.5787C295.61 39.1286 295.988 39.7681 296.238 40.4629C296.495 41.1793 296.625 41.9369 296.622 42.7001V64.6808C296.63 65.4698 296.5 66.254 296.238 66.9964C295.994 67.6823 295.615 68.3101 295.125 68.8413C294.651 69.355 294.092 69.78 293.474 70.0971C292.829 70.4183 292.118 70.5798 291.401 70.5686H271.371L268.926 80.4583H293.781C295.441 80.4653 297.081 80.0896 298.58 79.3594C300.089 78.627 301.435 77.5848 302.534 76.2978C303.666 74.9767 304.563 73.4622 305.182 71.8235C305.821 70.1491 306.141 68.3172 306.141 66.3279V41.1305C306.153 39.2666 305.827 37.4166 305.18 35.6741Z" fill="white"/>
<path d="M224.354 52.0807C222.996 50.5869 221.349 49.3968 219.518 48.5852C217.617 47.7415 215.564 47.3137 213.491 47.3294H204.048C202.563 47.3294 201.386 46.8712 200.517 45.955C199.648 45.0388 199.213 43.9268 199.211 42.619C199.211 41.4691 199.39 40.5532 199.749 39.8712C200.09 39.2086 200.628 38.673 201.284 38.3408C202.01 37.9815 202.788 37.743 203.588 37.634C204.529 37.4988 205.478 37.4333 206.428 37.4379H224.009V27L202.435 27C200.388 27 198.52 27.4186 196.831 28.2558C195.191 29.0562 193.727 30.1915 192.532 31.5919C191.332 33.0168 190.396 34.6527 189.768 36.42C189.106 38.2275 188.767 40.1422 188.768 42.0725C188.768 44.8467 189.177 47.2279 189.996 49.2161C190.815 51.2043 191.966 52.8264 193.45 54.0825C194.935 55.3386 196.752 56.2546 198.902 56.8303C201.052 57.4061 203.432 57.694 206.042 57.694H212.26C214.206 57.694 215.831 58.2694 217.135 59.4204C218.44 60.5714 219.093 62.1676 219.093 64.2092C219.093 65.3079 218.888 66.25 218.479 67.0355C218.085 67.7998 217.536 68.4686 216.867 68.9964C216.2 69.5199 215.394 69.9123 214.449 70.1738C213.485 70.4383 212.49 70.5704 211.492 70.5668H190.46V80.4565H214.259C216.408 80.4565 218.354 80.0379 220.095 79.2007C221.812 78.3813 223.352 77.2205 224.625 75.7862C225.904 74.3471 226.889 72.6332 227.581 70.6444C228.273 68.6557 228.619 66.5097 228.618 64.2067C228.618 61.7479 228.247 59.4846 227.505 57.4169C226.763 55.3491 225.712 53.5704 224.354 52.0807Z" fill="white"/>
<path d="M175.919 35.8713C175.214 34.149 174.198 32.5777 172.925 31.2393C171.643 29.913 170.116 28.8591 168.434 28.1386C166.661 27.3735 164.754 26.9862 162.829 27.0004H138.63L136.102 36.3419H161.295C163.495 36.3419 165.107 36.9307 166.131 38.1084C167.155 39.2861 167.667 40.8167 167.667 42.7003C167.667 44.6897 167.155 46.2336 166.131 47.3323C165.107 48.4309 163.495 48.9803 161.295 48.9803H140.411V80.4594H149.622V58.3261H162.829C164.75 58.3415 166.655 57.9683 168.434 57.228C170.127 56.5271 171.657 55.4704 172.925 54.1264C174.187 52.7795 175.202 51.2106 175.919 49.4952C176.665 47.7229 177.044 45.8121 177.032 43.8828V41.5272C177.042 39.5841 176.663 37.6595 175.919 35.8713Z" fill="white"/>
<path d="M40.9589 71.7835C41.5726 73.437 42.4696 74.9654 43.6079 76.297C44.7069 77.5835 46.0527 78.6256 47.5617 79.3585C49.0603 80.0884 50.7004 80.464 52.3603 80.4575H73.7891L76.3172 70.6453H54.7408C54.023 70.6566 53.3126 70.4951 52.6671 70.1739C52.0425 69.8514 51.4826 69.4121 51.0162 68.8788C50.5312 68.329 50.1534 67.6895 49.9031 66.9947C49.6459 66.2783 49.516 65.5207 49.5195 64.7575V42.7768C49.5117 41.9878 49.6416 41.2036 49.9031 40.4612C50.1476 39.7753 50.5264 39.1475 51.0162 38.6163C51.4908 38.1025 52.0495 37.6775 52.6671 37.3604C53.3127 37.0395 54.0231 36.8783 54.7408 36.8898H73.7924L76.2371 27.0001L52.3603 27.0001C50.7003 26.9931 49.0602 27.3688 47.5617 28.0991C46.0524 28.8315 44.7065 29.8736 43.6079 31.1606C42.4751 32.4817 41.5785 33.9962 40.9589 35.6349C40.3202 37.3093 40.0005 39.1412 40 41.1305V66.3288C39.9878 68.192 40.3129 70.0413 40.9589 71.7835Z" fill="white"/>
<path d="M111.468 27H101.488L88.0525 80.4591H89.7693L89.7584 80.5H108.865L111.283 71.0366H99.554L101.104 64.367L106.171 42.5431H106.708L111.545 64.367L113.311 72.2949L115.154 80.4591H124.366L111.468 27Z" fill="white"/>
<path d="M250.103 80.4898H240.353L241.648 77.753C243.102 74.7259 244.216 72.2068 244.989 70.1959C245.762 68.185 246.399 65.8214 246.898 63.1051C247.399 60.3906 247.649 57.1668 247.649 53.4337C247.649 49.9513 247.422 46.9451 246.967 44.4153C246.512 41.8855 245.944 39.7191 245.263 37.9162C244.58 36.1122 243.603 33.8625 242.331 31.1673C241.922 30.4216 241.263 29.0325 240.354 27H250.104C254.828 35.3767 257.191 44.1865 257.191 53.4294C257.191 58.6539 256.577 63.3715 255.35 67.582C254.123 71.7925 252.373 76.0951 250.103 80.4898Z" fill="#2590FF"/>
<path d="M54.7328 98.54V122H50.5508L45.6548 109.488V122H41.4728V98.54H45.6548L50.5508 111.596V98.54H54.7328ZM64.5123 122.272C62.495 122.272 60.897 121.705 59.7183 120.572C58.5396 119.416 57.9503 117.739 57.9503 115.54V104.966C57.9503 102.745 58.5736 101.067 59.8203 99.934C61.067 98.778 62.7103 98.2 64.7503 98.2C66.7223 98.2 68.2976 98.778 69.4763 99.934C70.6776 101.067 71.2783 102.745 71.2783 104.966V115.54C71.2783 117.716 70.6436 119.382 69.3743 120.538C68.1276 121.694 66.507 122.272 64.5123 122.272ZM64.6483 118.498C65.4416 118.498 66.0423 118.203 66.4503 117.614C66.881 117.002 67.0963 116.152 67.0963 115.064V105.646C67.0963 104.445 66.8923 103.538 66.4843 102.926C66.0763 102.291 65.4643 101.974 64.6483 101.974C63.7643 101.974 63.1183 102.28 62.7103 102.892C62.325 103.504 62.1323 104.422 62.1323 105.646V115.064C62.1323 117.353 62.971 118.498 64.6483 118.498ZM87.7606 98.54V122H83.5786L78.6826 109.488V122H74.5006V98.54H78.6826L83.5786 111.596V98.54H87.7606ZM90.9781 108.366H100.328V112.106H90.9781V108.366ZM107.726 102.314V108.298H113.166V112.072H107.726V122H103.544V98.54H114.016V102.314H107.726ZM123.063 122.272C121.839 122.272 120.74 122.011 119.765 121.49C118.813 120.946 118.054 120.187 117.487 119.212C116.943 118.237 116.671 117.115 116.671 115.846V98.54H120.853V115.744C120.853 116.696 121.035 117.399 121.397 117.852C121.76 118.283 122.315 118.498 123.063 118.498C124.537 118.498 125.273 117.58 125.273 115.744V98.54H129.455V115.846C129.455 117.115 129.183 118.237 128.639 119.212C128.095 120.187 127.336 120.946 126.361 121.49C125.387 122.011 124.287 122.272 123.063 122.272ZM146.08 98.54V122H141.898L137.002 109.488V122H132.82V98.54H137.002L141.898 111.596V98.54H146.08ZM155.859 122.272C153.842 122.272 152.244 121.705 151.065 120.572C149.887 119.416 149.297 117.739 149.297 115.54V104.966C149.297 102.745 149.921 101.067 151.167 99.934C152.414 98.778 154.057 98.2 156.097 98.2C158.047 98.2 159.622 98.7553 160.823 99.866C162.025 100.977 162.625 102.62 162.625 104.796V105.51H158.443V104.796C158.443 103.889 158.217 103.198 157.763 102.722C157.31 102.223 156.721 101.974 155.995 101.974C155.111 101.974 154.465 102.28 154.057 102.892C153.672 103.504 153.479 104.422 153.479 105.646V115.064C153.479 117.353 154.318 118.498 155.995 118.498C156.811 118.498 157.423 118.226 157.831 117.682C158.239 117.115 158.443 116.311 158.443 115.268V112.786H155.961V109.488H162.625V115.54C162.625 117.716 161.991 119.382 160.721 120.538C159.475 121.694 157.854 122.272 155.859 122.272ZM165.984 98.54H170.132V122H165.984V98.54ZM183.795 109.692C184.815 110.145 185.507 110.814 185.869 111.698C186.232 112.582 186.413 113.749 186.413 115.2C186.413 117.58 185.926 119.314 184.951 120.402C183.977 121.467 182.322 122 179.987 122H173.629V98.54H179.987C182.277 98.54 183.909 99.05 184.883 100.07C185.858 101.067 186.345 102.665 186.345 104.864C186.345 106.02 186.153 107.006 185.767 107.822C185.382 108.638 184.725 109.261 183.795 109.692ZM177.777 102.28V107.958H179.545C180.52 107.958 181.2 107.743 181.585 107.312C181.971 106.859 182.163 106.133 182.163 105.136C182.163 104.093 181.971 103.357 181.585 102.926C181.2 102.495 180.52 102.28 179.545 102.28H177.777ZM179.511 118.26C180.554 118.26 181.268 118.011 181.653 117.512C182.039 116.991 182.231 116.118 182.231 114.894C182.231 113.715 182.016 112.865 181.585 112.344C181.177 111.823 180.486 111.562 179.511 111.562H177.777V118.26H179.511ZM189.645 98.54H193.827V118.26H200.117V122H189.645V98.54ZM206.787 102.314V108.196H212.227V111.936H206.787V118.26H213.111V122H202.639V98.54H213.111V102.314H206.787ZM228.541 112.582H226.535V122H222.353V98.54H228.745C231.057 98.54 232.689 99.0953 233.641 100.206C234.615 101.317 235.103 103.096 235.103 105.544C235.103 107.108 234.887 108.411 234.457 109.454C234.026 110.497 233.323 111.279 232.349 111.8L235.851 122H231.499L228.541 112.582ZM226.535 108.842H228.711C229.549 108.842 230.127 108.57 230.445 108.026C230.762 107.459 230.921 106.632 230.921 105.544C230.921 104.456 230.762 103.64 230.445 103.096C230.15 102.552 229.572 102.28 228.711 102.28H226.535V108.842ZM238.637 98.54H242.785V122H238.637V98.54ZM252.709 122.272C250.692 122.272 249.094 121.705 247.915 120.572C246.736 119.416 246.147 117.739 246.147 115.54V104.966C246.147 102.745 246.77 101.067 248.017 99.934C249.264 98.778 250.907 98.2 252.947 98.2C254.896 98.2 256.472 98.7553 257.673 99.866C258.874 100.977 259.475 102.62 259.475 104.796V105.51H255.293V104.796C255.293 103.889 255.066 103.198 254.613 102.722C254.16 102.223 253.57 101.974 252.845 101.974C251.961 101.974 251.315 102.28 250.907 102.892C250.522 103.504 250.329 104.422 250.329 105.646V115.064C250.329 117.353 251.168 118.498 252.845 118.498C253.661 118.498 254.273 118.226 254.681 117.682C255.089 117.115 255.293 116.311 255.293 115.268V112.786H252.811V109.488H259.475V115.54C259.475 117.716 258.84 119.382 257.571 120.538C256.324 121.694 254.704 122.272 252.709 122.272ZM275.481 98.54V122H271.299V111.936H266.879V122H262.697V98.54H266.879V108.196H271.299V98.54H275.481ZM289.828 102.314H285.782V122H281.634V102.314H277.554V98.54H289.828V102.314ZM297.517 122.272C295.454 122.272 293.879 121.671 292.791 120.47C291.703 119.269 291.147 117.546 291.125 115.302H295.069C295.114 116.458 295.341 117.308 295.749 117.852C296.179 118.396 296.803 118.668 297.619 118.668C298.435 118.668 299.024 118.419 299.387 117.92C299.772 117.421 299.965 116.628 299.965 115.54C299.965 114.633 299.749 113.919 299.319 113.398C298.911 112.854 298.208 112.355 297.211 111.902L295.613 111.188C294.094 110.508 292.995 109.669 292.315 108.672C291.657 107.675 291.329 106.337 291.329 104.66C291.329 102.688 291.895 101.113 293.029 99.934C294.185 98.7553 295.737 98.166 297.687 98.166C299.613 98.166 301.098 98.7553 302.141 99.934C303.206 101.09 303.773 102.767 303.841 104.966H299.999C299.976 103.901 299.783 103.107 299.421 102.586C299.081 102.042 298.503 101.77 297.687 101.77C296.168 101.77 295.409 102.665 295.409 104.456C295.409 105.272 295.59 105.929 295.953 106.428C296.338 106.904 296.973 107.335 297.857 107.72L299.387 108.4C301.019 109.125 302.197 110.032 302.923 111.12C303.671 112.208 304.045 113.659 304.045 115.472C304.045 117.648 303.478 119.325 302.345 120.504C301.211 121.683 299.602 122.272 297.517 122.272Z" fill="white"/>
<defs>
<linearGradient id="paint0_linear_649_2538" x1="1000" y1="80" x2="-3.49691e-06" y2="80" gradientUnits="userSpaceOnUse">
<stop stop-color="#2590FF"/>
<stop offset="1" stop-color="#35CEFF"/>
</linearGradient>
</defs>
</svg>
